<svg id="Component_25_1" data-name="Component 25 – 1" xmlns="http://www.w3.org/2000/svg" width="68.911" height="68.911" viewBox="0 0 68.911 68.911">
  <rect id="Rectangle_68" data-name="Rectangle 68" width="68.911" height="68.911" rx="5" fill="#e5142c"/>
  <g id="c" transform="translate(17.459 11.779)">
    <g id="d">
      <g id="Group_39876" data-name="Group 39876">
        <path id="Path_34904" data-name="Path 34904" d="M19.468,27.992c-.133-.814-.431-1.079-1.184-1.081q-2.048,0-4.1,0a.984.984,0,0,0-1.12,1.117c-.009,1.264,0,2.529,0,3.794,0,1.144.16,1.334,1.283,1.516a13.467,13.467,0,0,0,.3,12.966c-.175.013-.315.031-.455.031q-6.323,0-12.647,0A1.385,1.385,0,0,1,0,44.766Q0,23.193,0,1.617A1.417,1.417,0,0,1,1.606,0H30.9a1.412,1.412,0,0,1,1.615,1.607q.006,12.849,0,25.7c0,.116-.016.231-.028.39a13.5,13.5,0,0,0-13.015.294Zm-3.2-24.454q-5.207,0-10.415,0a2.186,2.186,0,0,0-2.3,2.277q-.015,2.932,0,5.865A2.171,2.171,0,0,0,5.8,13.953q10.441.017,20.882,0a2.155,2.155,0,0,0,2.26-2.3q0-2.856,0-5.713a2.188,2.188,0,0,0-2.419-2.4H16.263Zm3.167,17.051c0-.707,0-1.414,0-2.121A.936.936,0,0,0,18.388,17.4q-2.146-.012-4.291,0a.912.912,0,0,0-1.02.945q-.035,2.222,0,4.443a.919.919,0,0,0,1,.974c1.464.015,2.929.017,4.393,0a.911.911,0,0,0,.963-1c.01-.724,0-1.448,0-2.172ZM9.918,30.054v-1.01c0-.337,0-.673,0-1.01-.006-.76-.349-1.117-1.106-1.121q-2.1-.011-4.191,0a.96.96,0,0,0-1.071,1.059q-.017,2.121,0,4.242a.957.957,0,0,0,1.058,1.07q2.121.012,4.242,0a.953.953,0,0,0,1.066-1.057c.008-.724,0-1.448,0-2.172ZM6.678,42.8c.724,0,1.448.005,2.171,0a.947.947,0,0,0,1.067-1.052q.011-2.12,0-4.241A.956.956,0,0,0,8.86,36.433q-2.12-.02-4.241,0a.963.963,0,0,0-1.072,1.061q-.017,2.12,0,4.241c.005.718.375,1.06,1.11,1.065.673,0,1.346,0,2.02,0Zm.05-25.4c-.69,0-1.38,0-2.07,0-.74.006-1.1.344-1.109,1.067q-.017,2.12,0,4.241a.95.95,0,0,0,1.023,1.057q2.172.023,4.342,0a.933.933,0,0,0,1-1.02q.014-2.146,0-4.291A.948.948,0,0,0,8.85,17.4c-.707-.006-1.413,0-2.121,0Zm22.219,3.167c0-.708.005-1.416,0-2.124A.927.927,0,0,0,27.927,17.4q-2.149-.012-4.3,0a.9.9,0,0,0-1.023.941q-.038,2.225,0,4.451a.915.915,0,0,0,1,.972q2.175.023,4.349,0a.921.921,0,0,0,.993-1.023c.007-.725,0-1.45,0-2.175Z" fill="#fff"/>
        <path id="Path_34905" data-name="Path 34905" d="M176.668,297.917a10.414,10.414,0,1,1-10.425-10.447,10.415,10.415,0,0,1,10.425,10.447Zm-12.043,1.6v4.7h3.311v-4.709h4.649v-3.284H167.9v-4.681h-3.308v4.719h-4.682v3.252h4.712Z" transform="translate(-140.04 -258.326)" fill="#fff"/>
      </g>
    </g>
  </g>
</svg>
