<svg id="Clouds" xmlns="http://www.w3.org/2000/svg" width="237.185" height="88.816" viewBox="0 0 237.185 88.816">
  <path id="Union_25" data-name="Union 25" d="M8.037,27.294A8.038,8.038,0,0,1,5.763,11.547c0-.058,0-.116,0-.175a11.373,11.373,0,0,1,22.745-.151h.455a8.037,8.037,0,1,1,0,16.073Z" transform="matrix(1, 0.017, -0.017, 1, 0.476, 60.881)" fill="#fff"/>
  <path id="Union_27" data-name="Union 27" d="M6,20.368a6,6,0,0,1-6-6q0-.27.023-.533Q0,13.6,0,13.352A4.98,4.98,0,0,1,4.3,8.42a8.486,8.486,0,0,1,16.972-.046h.34a6,6,0,1,1,0,11.994Z" transform="matrix(1, 0.017, -0.017, 1, 209.579, 60.904)" fill="#fff" opacity="0.5"/>
  <path id="Union_29" data-name="Union 29" d="M6.442,21.88A6.442,6.442,0,0,1,0,15.438q0-.289.025-.573Q0,14.607,0,14.343a5.349,5.349,0,0,1,4.619-5.3A9.117,9.117,0,0,1,22.852,9h.365a6.442,6.442,0,0,1,0,12.884Z" transform="matrix(1, 0.017, -0.017, 1, 52.078, 23.526)" fill="#fff" opacity="0.53"/>
  <path id="Union_31" data-name="Union 31" d="M8.5,28.859a8.5,8.5,0,0,1-8.5-8.5q0-.382.033-.755Q0,19.267,0,18.919A7.056,7.056,0,0,1,6.093,11.93a12.025,12.025,0,0,1,24.048-.065h.482a8.5,8.5,0,0,1,0,16.994Z" transform="matrix(1, 0.017, -0.017, 1, 118.458, 42.181)" fill="#fff"/>
  <path id="Union_35" data-name="Union 35" d="M6.774,23.007A6.774,6.774,0,0,1,0,16.232q0-.3.026-.6Q0,15.36,0,15.082A5.625,5.625,0,0,1,4.858,9.51a9.586,9.586,0,0,1,19.171-.052h.384a6.774,6.774,0,0,1,0,13.549Z" transform="matrix(1, 0.017, -0.017, 1, 181.909, 0)" fill="#fff"/>
</svg>
