<svg id="Component_21_1" data-name="Component 21 – 1" xmlns="http://www.w3.org/2000/svg" width="68.911" height="68.911" viewBox="0 0 68.911 68.911">
  <rect id="Rectangle_68" data-name="Rectangle 68" width="68.911" height="68.911" rx="5" fill="#e5142c"/>
  <g id="launch" transform="translate(20.396 11.779)">
    <path id="Path_97" data-name="Path 97" d="M28,39.393a11.625,11.625,0,0,0,3.428,8.276l.965.965.965-.965a11.625,11.625,0,0,0,3.428-8.276,4.393,4.393,0,1,0-8.787,0Zm6.59,0a9.436,9.436,0,0,1-2.2,6.079,9.436,9.436,0,0,1-2.2-6.079,2.2,2.2,0,1,1,4.393,0Z" transform="translate(-17.017 1.342)" fill="#fff"/>
    <path id="Path_98" data-name="Path 98" d="M33.809,2.1l-.433-.186-.433.186A13.769,13.769,0,0,0,24.59,14.767v4.057a10.719,10.719,0,0,0-6.59,9.9v2.939h1.1v4.393h6.59V31.664h3.295v4.393H37.77V31.664h3.295v4.393h6.59V31.664h1.1V28.724a10.719,10.719,0,0,0-6.59-9.9V14.767A13.769,13.769,0,0,0,33.809,2.1ZM20.2,28.724a8.53,8.53,0,0,1,4.393-7.469v8.211H20.2Zm3.295,5.136h-2.2v-2.2h2.2Zm12.082,0H31.18v-2.2h4.393Zm4.393-4.393H26.787v-14.7a11.573,11.573,0,0,1,6.59-10.452,11.573,11.573,0,0,1,6.59,10.454Zm5.492,4.393h-2.2v-2.2h2.2Zm1.1-5.136v.742H42.163V21.258A8.53,8.53,0,0,1,46.557,28.724Z" transform="translate(-18 -1.912)" fill="#fff"/>
    <path id="Path_99" data-name="Path 99" d="M19,38.295a6.445,6.445,0,0,0,1.875,4.526l1.42,1.42,1.42-1.42a6.445,6.445,0,0,0,1.875-4.526,3.295,3.295,0,1,0-6.59,0Zm4.393,0a4.234,4.234,0,0,1-1.1,2.834,4.234,4.234,0,0,1-1.1-2.834,1.1,1.1,0,1,1,2.2,0Z" transform="translate(-17.902 1.342)" fill="#fff"/>
    <path id="Path_100" data-name="Path 100" d="M39,38.295a6.445,6.445,0,0,0,1.875,4.526l1.42,1.42,1.42-1.42a6.445,6.445,0,0,0,1.875-4.526,3.295,3.295,0,1,0-6.59,0Zm4.393,0a4.234,4.234,0,0,1-1.1,2.834,4.234,4.234,0,0,1-1.1-2.834,1.1,1.1,0,1,1,2.2,0Z" transform="translate(-15.935 1.342)" fill="#fff"/>
    <path id="Path_101" data-name="Path 101" d="M32.393,10a4.393,4.393,0,1,0,4.393,4.393A4.393,4.393,0,0,0,32.393,10Zm0,6.59a2.2,2.2,0,1,1,2.2-2.2A2.2,2.2,0,0,1,32.393,16.59Z" transform="translate(-17.017 -1.117)" fill="#fff"/>
  </g>
</svg>
