<svg xmlns="http://www.w3.org/2000/svg" width="30" height="30" viewBox="0 0 30 30">
  <g id="Group_39975" data-name="Group 39975" transform="translate(-79 -1077)">
    <path id="Path_34992" data-name="Path 34992" d="M148.41,146.147a7,7,0,0,1-2.337.714,4.785,4.785,0,0,0,1.755-2.463,6.517,6.517,0,0,1-2.627,1,0,0,0,0,0,0,0,4.064,4.064,0,0,0-3.045-1.4,4.382,4.382,0,0,0-4.211,4.535,4.8,4.8,0,0,0,.108,1.01h0a11.844,11.844,0,0,1-8.92-4.7,4.749,4.749,0,0,0,1.277,5.991,2.566,2.566,0,0,1-1.839-.511,4.335,4.335,0,0,0,3.248,4.43,3.075,3.075,0,0,1-1.753.142,4.053,4.053,0,0,0,3.763,3.079A6.6,6.6,0,0,1,128,159.854a11.977,11.977,0,0,0,6.586,2.006c6.794,0,12.069-5.929,11.785-13.243,0-.009,0-.017,0-.025s0-.04,0-.057,0-.045,0-.068A7.585,7.585,0,0,0,148.41,146.147Z" transform="translate(-43.999 939)" fill="#fff"/>
    <rect id="Rectangle_17439" data-name="Rectangle 17439" width="30" height="30" transform="translate(79 1077)" fill="none"/>
  </g>
</svg>
