<svg id="Component_26_1" data-name="Component 26 – 1" xmlns="http://www.w3.org/2000/svg" width="68.911" height="68.911" viewBox="0 0 68.911 68.911">
  <rect id="Rectangle_68" data-name="Rectangle 68" width="68.911" height="68.911" rx="5" fill="#e5142c"/>
  <g id="b" transform="translate(10.792 11.779)">
    <g id="c">
      <g id="d">
        <g id="Group_39875" data-name="Group 39875">
          <path id="Path_34897" data-name="Path 34897" d="M0,779.972c.008,0,.02,0,.024-.008a1.688,1.688,0,0,1,1.712-.639c.091.009.184,0,.314,0,0-.109,0-.2,0-.288.013-.892.025-1.784.041-2.675a2.23,2.23,0,0,1,.042-.353.8.8,0,0,1,.9-.775c1.113-.026,2.226-.056,3.338-.056q20.329,0,40.658,0a.542.542,0,0,1,.393.174,1.276,1.276,0,0,1,.419,1.1c-.036.857-.01,1.716-.01,2.574v.326c.382,0,.737-.018,1.09,0a.951.951,0,0,1,1,1c.023,1.4.018,2.8-.005,4.2a1.408,1.408,0,0,1-.255.645.636.636,0,0,1-.586.286q-4.512.021-9.023.061c-.109,0-.217.018-.326.028H.663L0,784.92v-4.946Zm2.063,3.535H47.815v-2.06H2.063Zm2.053-4.2H45.762v-2.016H4.115v2.016Z" transform="translate(0 -735.607)" fill="#fff"/>
          <path id="Path_34898" data-name="Path 34898" d="M0,17.494a1.211,1.211,0,0,1,.5-.583c3.092-2.187,6.171-4.394,9.277-6.562Q17.066,5.262,24.387.215a.912.912,0,0,1,1.175.005q4.851,3.355,9.7,6.714,7.088,4.913,14.175,9.828a1.043,1.043,0,0,1,.171,1.69.842.842,0,0,1-.684.289q-23.888-.011-47.775.007a1.162,1.162,0,0,1-1.054-.672C.059,18.021.032,17.96,0,17.9v-.408Zm4.516-.954.033.09q20.406.115,40.812,0l.03-.1L24.972,2.32,4.516,16.541Z" transform="translate(0 -0.004)" fill="#fff"/>
          <path id="Path_34899" data-name="Path 34899" d="M83.245,409.027c-4.792,0-9.585.008-14.376,0-1.988,0-3.976-.045-5.963-.08-.355-.006-.71-.061-1.064-.1a.561.561,0,0,1-.452-.327,1.022,1.022,0,0,1,.35-1.417.827.827,0,0,1,.385-.1c2.438-.038,4.876-.087,7.314-.1,5.387-.024,10.773-.045,16.16-.035,5.6.01,11.2.055,16.8.088.56,0,1.121.03,1.681.047a.866.866,0,0,1,.846.847.934.934,0,0,1-.7,1.038,14.422,14.422,0,0,1-1.626.093q-9.673.009-19.347,0v.035Z" transform="translate(-58.116 -386.103)" fill="#fff"/>
          <path id="Path_34900" data-name="Path 34900" d="M700.747,496.132c0,1.5,0,3.008,0,4.512,0,.263-.021.526-.047.788a.887.887,0,0,1-.952.884q-1.975.043-3.951.055c-.747,0-1.5-.013-2.243-.041-.771-.029-1.074-.326-1.1-1.1-.036-.959-.063-1.92-.061-2.88q.008-3.543.049-7.086c.011-1.047.265-1.344,1.306-1.353,2.047-.018,4.095.013,6.143.036a.853.853,0,0,1,.8.81c.038.474.059.95.062,1.425.008,1.317,0,2.634,0,3.952h-.008Zm-6.206-4.2v8.372H698.6v-8.372Z" transform="translate(-657.044 -464.898)" fill="#fff"/>
          <path id="Path_34901" data-name="Path 34901" d="M130.59,495.493c0,1.759,0,3.517.005,5.276a.741.741,0,0,1-.211.512,1.229,1.229,0,0,1-1.079.451c-2-.026-4.01-.014-6.015-.006a.79.79,0,0,1-.558-.22,1.232,1.232,0,0,1-.443-1.058c.02-3.4.014-6.8.006-10.195a.872.872,0,0,1,.248-.625,1.161,1.161,0,0,1,.993-.41c2.03.022,4.061.013,6.091.005a.781.781,0,0,1,.533.217,1.192,1.192,0,0,1,.441,1.058c-.027,1.665-.011,3.33-.011,5Zm-2.061-4.2h-4.155v8.365h4.155Z" transform="translate(-116.047 -464.244)" fill="#fff"/>
          <path id="Path_34902" data-name="Path 34902" d="M408.374,496.786q0-2.4,0-4.791c0-.246.019-.492.039-.738a.774.774,0,0,1,.805-.775q3.223-.008,6.445.007a.76.76,0,0,1,.869.837q.053,1.2.056,2.394.013,4.141.009,8.282a.923.923,0,0,1-.871.872q-2.077.015-4.153.012c-.824,0-1.648-.01-2.472-.016a.943.943,0,0,1-.743-.757v-5.326h.013Zm6.156,4.051V492.5c-1.208,0-2.4-.015-3.585.006-.649.012-.554-.009-.555.564,0,2.531.01,5.063.018,7.594a1.256,1.256,0,0,0,.028.172h4.094Z" transform="translate(-387.515 -465.442)" fill="#fff"/>
          <path id="Path_34903" data-name="Path 34903" d="M398,114.824a5.182,5.182,0,1,1-5.217-5.164A5.254,5.254,0,0,1,398,114.824Zm-8.232.01a2.988,2.988,0,0,0,3.005,3.125,3.054,3.054,0,0,0,3.125-3.1c0-1.867-1.33-3.084-3.374-3.083A3.023,3.023,0,0,0,389.772,114.834Z" transform="translate(-367.852 -104.062)" fill="#fff"/>
        </g>
      </g>
    </g>
  </g>
</svg>
