<svg xmlns="http://www.w3.org/2000/svg" width="80" height="80" viewBox="0 0 80 80">
  <g id="Group_39971" data-name="Group 39971" transform="translate(0 -8)">
    <rect id="Rectangle_17413" data-name="Rectangle 17413" width="80" height="80" rx="4" transform="translate(0 8)" fill="#e5142c"/>
    <path id="Path_34858" data-name="Path 34858" d="M6.316,6.888A.453.453,0,0,0,6,6.828a.524.524,0,0,0-.291.145.347.347,0,0,0-.094.3.314.314,0,0,0,.179.256.5.5,0,0,0,.316.06A.524.524,0,0,0,6.4,7.444.338.338,0,0,0,6.5,7.153a.327.327,0,0,0-.179-.265Zm.205.974-.769.111.487,3.384.769-.111Zm2.684,1a1.661,1.661,0,0,1-.581-.051.3.3,0,0,1-.214-.273.326.326,0,0,1,.154-.291A.816.816,0,0,1,9,8.093a1.337,1.337,0,0,1,.453.026.842.842,0,0,1,.376.171l.444-.47a1.563,1.563,0,0,0-.615-.342,2.029,2.029,0,0,0-.752-.034,1.694,1.694,0,0,0-.949.385.875.875,0,0,0-.325.8.884.884,0,0,0,.154.479.851.851,0,0,0,.35.273,2.083,2.083,0,0,0,.453.12c.179.017.367.026.547.026a1.238,1.238,0,0,1,.556.077.326.326,0,0,1,.205.3.34.34,0,0,1-.162.316,1.108,1.108,0,0,1-.5.171,1.589,1.589,0,0,1-.6-.06,1.244,1.244,0,0,1-.521-.308l-.41.521A1.406,1.406,0,0,0,8.4,11a2.407,2.407,0,0,0,.923.077,2.5,2.5,0,0,0,.709-.2,1.207,1.207,0,0,0,.5-.427.993.993,0,0,0,.145-.641C10.6,9.153,10.111,8.837,9.2,8.863Zm4.786-1.051-.043-.684-2.914.214.043.675,1.068-.077.2,2.735.778-.06-.2-2.726Zm2.521-.786-.855.034L14.2,10.538l.846-.034.231-.6,1.8-.068h0l.273.581.846-.034L16.5,7.025Zm-.957,2.2.556-1.41h.009l.65,1.367-1.214.043Zm5.709-2.248V8.119L21.3,9.2,19.537,6.965h-.675l-.017,3.419h.795V9.315L19.623,8.2l1.735,2.2h.675l.017-3.419h-.786ZM26.1,9.162a.756.756,0,0,0-.453-.419.705.705,0,0,0,.5-.675.791.791,0,0,0-.316-.709,1.5,1.5,0,0,0-.863-.273l-1.726-.077-.154,3.419,1.761.077c.752.034,1.2-.214,1.316-.744a.851.851,0,0,0-.06-.6ZM23.973,7.7l.966.043a.5.5,0,0,1,.325.111.307.307,0,0,1,.1.256c-.009.214-.162.316-.47.3l-.957-.043.034-.667Zm.872,2.137-.957-.043L23.922,9l.957.043a.581.581,0,0,1,.385.128.365.365,0,0,1,.12.3c-.017.256-.2.385-.538.367Zm4.82-2.41L29.5,9.333c-.051.564-.316.846-.8.838a.9.9,0,0,1-.214-.017.816.816,0,0,1-.632-.966l.162-1.906-.778-.068-.162,1.906a1.5,1.5,0,0,0,.376,1.239,1.745,1.745,0,0,0,1.179.487,1.583,1.583,0,0,0,1.145-.333,1.612,1.612,0,0,0,.5-1.12l.162-1.9-.769-.068Zm2.325,2.983.342-2.7-.778-.094-.436,3.393,2.521.325.094-.692-1.743-.231Zm0,0,.342-2.7-.778-.094-.436,3.393,2.521.325.094-.692-1.743-.231ZM29.665,7.427,29.5,9.333c-.051.564-.316.846-.8.838a.9.9,0,0,1-.214-.017.816.816,0,0,1-.632-.966l.162-1.906-.778-.068-.162,1.906a1.5,1.5,0,0,0,.376,1.239,1.745,1.745,0,0,0,1.179.487,1.583,1.583,0,0,0,1.145-.333,1.612,1.612,0,0,0,.5-1.12l.162-1.9-.769-.068ZM26.1,9.162a.756.756,0,0,0-.453-.419.705.705,0,0,0,.5-.675.791.791,0,0,0-.316-.709,1.5,1.5,0,0,0-.863-.273l-1.726-.077-.154,3.419,1.761.077c.752.034,1.2-.214,1.316-.744a.851.851,0,0,0-.06-.6ZM23.973,7.7l.966.043a.5.5,0,0,1,.325.111.307.307,0,0,1,.1.256c-.009.214-.162.316-.47.3l-.957-.043.034-.667Zm.872,2.137-.957-.043L23.922,9l.957.043a.581.581,0,0,1,.385.128.365.365,0,0,1,.12.3c-.017.256-.2.385-.538.367ZM21.264,6.974V8.119L21.3,9.2,19.537,6.965h-.675l-.017,3.419h.795V9.315L19.623,8.2l1.735,2.2h.675l.017-3.419h-.786Zm-4.752.051-.855.034L14.2,10.538l.846-.034.231-.6,1.8-.068h0l.273.581.846-.034L16.5,7.025Zm-.957,2.2.556-1.41h.009l.65,1.367-1.214.043Zm-1.564-1.41-.043-.684-2.914.214.043.675,1.068-.077.2,2.735.778-.06-.2-2.726,1.068-.077ZM9.2,8.863a1.661,1.661,0,0,1-.581-.051.3.3,0,0,1-.214-.273.326.326,0,0,1,.154-.291A.816.816,0,0,1,9,8.093a1.337,1.337,0,0,1,.453.026.842.842,0,0,1,.376.171l.444-.47a1.563,1.563,0,0,0-.615-.342,2.029,2.029,0,0,0-.752-.034,1.694,1.694,0,0,0-.949.385.875.875,0,0,0-.325.8.884.884,0,0,0,.154.479.851.851,0,0,0,.35.273,2.083,2.083,0,0,0,.453.12c.179.017.367.026.547.026a1.238,1.238,0,0,1,.556.077.326.326,0,0,1,.205.3.34.34,0,0,1-.162.316,1.108,1.108,0,0,1-.5.171,1.589,1.589,0,0,1-.6-.06,1.244,1.244,0,0,1-.521-.308l-.41.521A1.406,1.406,0,0,0,8.4,11a2.407,2.407,0,0,0,.923.077,2.5,2.5,0,0,0,.709-.2,1.207,1.207,0,0,0,.5-.427.993.993,0,0,0,.145-.641c-.077-.658-.564-.974-1.47-.949Zm-2.684-1-.769.111.487,3.384.769-.111L6.521,7.863Zm-.205-.974A.453.453,0,0,0,6,6.828a.524.524,0,0,0-.291.145.347.347,0,0,0-.094.3.314.314,0,0,0,.179.256.5.5,0,0,0,.316.06A.524.524,0,0,0,6.4,7.444.338.338,0,0,0,6.5,7.153a.327.327,0,0,0-.179-.265Zm0,0A.453.453,0,0,0,6,6.828a.524.524,0,0,0-.291.145.347.347,0,0,0-.094.3.314.314,0,0,0,.179.256.5.5,0,0,0,.316.06A.524.524,0,0,0,6.4,7.444.338.338,0,0,0,6.5,7.153a.327.327,0,0,0-.179-.265Zm.205.974-.769.111.487,3.384.769-.111L6.521,7.863Zm2.684,1a1.661,1.661,0,0,1-.581-.051.3.3,0,0,1-.214-.273.326.326,0,0,1,.154-.291A.816.816,0,0,1,9,8.093a1.337,1.337,0,0,1,.453.026.842.842,0,0,1,.376.171l.444-.47a1.563,1.563,0,0,0-.615-.342,2.029,2.029,0,0,0-.752-.034,1.694,1.694,0,0,0-.949.385.875.875,0,0,0-.325.8.884.884,0,0,0,.154.479.851.851,0,0,0,.35.273,2.083,2.083,0,0,0,.453.12c.179.017.367.026.547.026a1.238,1.238,0,0,1,.556.077.326.326,0,0,1,.205.3.34.34,0,0,1-.162.316,1.108,1.108,0,0,1-.5.171,1.589,1.589,0,0,1-.6-.06,1.244,1.244,0,0,1-.521-.308l-.41.521A1.406,1.406,0,0,0,8.4,11a2.407,2.407,0,0,0,.923.077,2.5,2.5,0,0,0,.709-.2,1.207,1.207,0,0,0,.5-.427.993.993,0,0,0,.145-.641c-.077-.658-.564-.974-1.47-.949Zm4.786-1.051-.043-.684-2.914.214.043.675,1.068-.077.2,2.735.778-.06-.2-2.726Zm2.521-.786-.855.034L14.2,10.538l.846-.034.231-.6,1.8-.068h0l.273.581.846-.034L16.5,7.025Zm-.957,2.2.556-1.41h.009l.65,1.367-1.214.043Zm5.709-2.248V8.119L21.3,9.2,19.537,6.965h-.675l-.017,3.419h.795V9.315L19.623,8.2l1.735,2.2h.675l.017-3.419h-.786ZM26.1,9.162a.756.756,0,0,0-.453-.419.705.705,0,0,0,.5-.675.791.791,0,0,0-.316-.709,1.5,1.5,0,0,0-.863-.273l-1.726-.077-.154,3.419,1.761.077c.752.034,1.2-.214,1.316-.744a.851.851,0,0,0-.06-.6ZM23.973,7.7l.966.043a.5.5,0,0,1,.325.111.307.307,0,0,1,.1.256c-.009.214-.162.316-.47.3l-.957-.043.034-.667Zm.872,2.137-.957-.043L23.922,9l.957.043a.581.581,0,0,1,.385.128.365.365,0,0,1,.12.3c-.017.256-.2.385-.538.367Zm4.82-2.41L29.5,9.333c-.051.564-.316.846-.8.838a.9.9,0,0,1-.214-.017.816.816,0,0,1-.632-.966l.162-1.906-.778-.068-.162,1.906a1.5,1.5,0,0,0,.376,1.239,1.745,1.745,0,0,0,1.179.487,1.583,1.583,0,0,0,1.145-.333,1.612,1.612,0,0,0,.5-1.12l.162-1.9-.769-.068Zm2.325,2.983.342-2.7-.778-.094-.436,3.393,2.521.325.094-.692-1.743-.231Zm0,0,.342-2.7-.778-.094-.436,3.393,2.521.325.094-.692-1.743-.231ZM29.665,7.427,29.5,9.333c-.051.564-.316.846-.8.838a.9.9,0,0,1-.214-.017.816.816,0,0,1-.632-.966l.162-1.906-.778-.068-.162,1.906a1.5,1.5,0,0,0,.376,1.239,1.745,1.745,0,0,0,1.179.487,1.583,1.583,0,0,0,1.145-.333,1.612,1.612,0,0,0,.5-1.12l.162-1.9-.769-.068ZM26.1,9.162a.756.756,0,0,0-.453-.419.705.705,0,0,0,.5-.675.791.791,0,0,0-.316-.709,1.5,1.5,0,0,0-.863-.273l-1.726-.077-.154,3.419,1.761.077c.752.034,1.2-.214,1.316-.744a.851.851,0,0,0-.06-.6ZM23.973,7.7l.966.043a.5.5,0,0,1,.325.111.307.307,0,0,1,.1.256c-.009.214-.162.316-.47.3l-.957-.043.034-.667Zm.872,2.137-.957-.043L23.922,9l.957.043a.581.581,0,0,1,.385.128.365.365,0,0,1,.12.3c-.017.256-.2.385-.538.367ZM21.264,6.974V8.119L21.3,9.2,19.537,6.965h-.675l-.017,3.419h.795V9.315L19.623,8.2l1.735,2.2h.675l.017-3.419h-.786Zm-4.752.051-.855.034L14.2,10.538l.846-.034.231-.6,1.8-.068h0l.273.581.846-.034L16.5,7.025Zm-.957,2.2.556-1.41h.009l.65,1.367Zm-1.564-1.41-.043-.684-2.914.214.043.675,1.068-.077.2,2.735.778-.06-.2-2.726,1.068-.077ZM9.2,8.863a1.661,1.661,0,0,1-.581-.051.3.3,0,0,1-.214-.273.326.326,0,0,1,.154-.291A.816.816,0,0,1,9,8.093a1.337,1.337,0,0,1,.453.026.842.842,0,0,1,.376.171l.444-.47a1.563,1.563,0,0,0-.615-.342,2.029,2.029,0,0,0-.752-.034,1.694,1.694,0,0,0-.949.385.875.875,0,0,0-.325.8.884.884,0,0,0,.154.479.851.851,0,0,0,.35.273,2.083,2.083,0,0,0,.453.12c.179.017.367.026.547.026a1.238,1.238,0,0,1,.556.077.326.326,0,0,1,.205.3.34.34,0,0,1-.162.316,1.108,1.108,0,0,1-.5.171,1.589,1.589,0,0,1-.6-.06,1.244,1.244,0,0,1-.521-.308l-.41.521A1.406,1.406,0,0,0,8.4,11a2.407,2.407,0,0,0,.923.077,2.5,2.5,0,0,0,.709-.2,1.207,1.207,0,0,0,.5-.427.993.993,0,0,0,.145-.641c-.077-.658-.564-.974-1.47-.949Zm-2.684-1-.769.111.487,3.384.769-.111L6.521,7.863Zm-.205-.974A.453.453,0,0,0,6,6.828a.524.524,0,0,0-.291.145.347.347,0,0,0-.094.3.314.314,0,0,0,.179.256.5.5,0,0,0,.316.06A.524.524,0,0,0,6.4,7.444.338.338,0,0,0,6.5,7.153a.327.327,0,0,0-.179-.265Zm0,0A.453.453,0,0,0,6,6.828a.524.524,0,0,0-.291.145.347.347,0,0,0-.094.3.314.314,0,0,0,.179.256.5.5,0,0,0,.316.06A.524.524,0,0,0,6.4,7.444.338.338,0,0,0,6.5,7.153a.327.327,0,0,0-.179-.265Zm.205.974-.769.111.487,3.384.769-.111L6.521,7.863Zm2.684,1a1.661,1.661,0,0,1-.581-.051.3.3,0,0,1-.214-.273.326.326,0,0,1,.154-.291A.816.816,0,0,1,9,8.093a1.337,1.337,0,0,1,.453.026.842.842,0,0,1,.376.171l.444-.47a1.563,1.563,0,0,0-.615-.342,2.029,2.029,0,0,0-.752-.034,1.694,1.694,0,0,0-.949.385.875.875,0,0,0-.325.8.884.884,0,0,0,.154.479.851.851,0,0,0,.35.273,2.083,2.083,0,0,0,.453.12c.179.017.367.026.547.026a1.238,1.238,0,0,1,.556.077.326.326,0,0,1,.205.3.34.34,0,0,1-.162.316,1.108,1.108,0,0,1-.5.171,1.589,1.589,0,0,1-.6-.06,1.244,1.244,0,0,1-.521-.308l-.41.521A1.406,1.406,0,0,0,8.4,11a2.407,2.407,0,0,0,.923.077,2.5,2.5,0,0,0,.709-.2,1.207,1.207,0,0,0,.5-.427.993.993,0,0,0,.145-.641c-.077-.658-.564-.974-1.47-.949Zm4.786-1.051-.043-.684-2.914.214.043.675,1.068-.077.2,2.735.778-.06-.2-2.726Zm2.521-.786-.855.034L14.2,10.538l.846-.034.231-.6,1.8-.068h0l.273.581.846-.034L16.5,7.025Zm-.957,2.2.556-1.41h.009l.65,1.367-1.214.043Zm5.709-2.248V8.119L21.3,9.2,19.537,6.965h-.675l-.017,3.419h.795V9.315L19.623,8.2l1.735,2.2h.675l.017-3.419h-.786ZM26.1,9.162a.756.756,0,0,0-.453-.419.705.705,0,0,0,.5-.675.791.791,0,0,0-.316-.709,1.5,1.5,0,0,0-.863-.273l-1.726-.077-.154,3.419,1.761.077c.752.034,1.2-.214,1.316-.744a.851.851,0,0,0-.06-.6ZM23.973,7.7l.966.043a.5.5,0,0,1,.325.111.307.307,0,0,1,.1.256c-.009.214-.162.316-.47.3l-.957-.043.034-.667Zm.872,2.137-.957-.043L23.922,9l.957.043a.581.581,0,0,1,.385.128.365.365,0,0,1,.12.3c-.017.256-.2.385-.538.367Zm4.82-2.41L29.5,9.333c-.051.564-.316.846-.8.838a.9.9,0,0,1-.214-.017.816.816,0,0,1-.632-.966l.162-1.906-.778-.068-.162,1.906a1.5,1.5,0,0,0,.376,1.239,1.745,1.745,0,0,0,1.179.487,1.583,1.583,0,0,0,1.145-.333,1.612,1.612,0,0,0,.5-1.12l.162-1.9-.769-.068Zm-8.435,26.5-.855,1.043.855,1.051.88-1.077Zm0,0-.855,1.043.855,1.051.88-1.077Zm6.777-1.2a.7.7,0,0,1-.077-.017,3.081,3.081,0,0,1-.82-.316,3.019,3.019,0,0,1-.718-.641,3.311,3.311,0,0,1-.462-.855L19.495,14.255H18.4q-1.372,3.525-3.128,8.068-1.756,4.525-3.213,8.162a4.915,4.915,0,0,1-.581,1.111,3.633,3.633,0,0,1-.846.769,2.871,2.871,0,0,1-.872.35,5.227,5.227,0,0,1-.889.154v.47H15.05a2.062,2.062,0,0,1,.427.179,1.268,1.268,0,0,1,.547.513,1.554,1.554,0,0,1,.137.684v9.846a4.24,4.24,0,0,0,.4,1.8,4.513,4.513,0,0,0,1.188,1.53,5.814,5.814,0,0,0,1.974,1.06,8.352,8.352,0,0,0,2.675.393,7.629,7.629,0,0,0,1.966-.273,6.381,6.381,0,0,0,1.957-.906,5.1,5.1,0,0,0,1.513-1.684,4.706,4.706,0,0,0,.573-2.4V36.844a11.975,11.975,0,0,1,.154-2.068,1.592,1.592,0,0,1,.556-1.111,2.806,2.806,0,0,1,1.034-.385,6.111,6.111,0,0,1,.966-.137v-.41H28.007Zm-9.623-14.2,2.923,7.5H15.5l2.88-7.5Zm8.854,25.306a5.126,5.126,0,0,1-.2,1.393,4.159,4.159,0,0,1-.684,1.325,3.617,3.617,0,0,1-1.376,1.077,5.21,5.21,0,0,1-2.162.41,4.809,4.809,0,0,1-2.162-.41,3.479,3.479,0,0,1-1.248-1.06,3.661,3.661,0,0,1-.581-1.367,7.722,7.722,0,0,1-.145-1.4V34.6a1.851,1.851,0,0,1,.137-.718.808.808,0,0,1,.53-.47c.137-.043.342-.094.607-.154v-.538H15.033a6.939,6.939,0,0,1-.829-.214c-.564-.205-.855-.487-.855-.846a4.575,4.575,0,0,1,.068-.6,8.576,8.576,0,0,1,.248-.949c.128-.4.273-.838.427-1.308s.359-1.026.615-1.658h6.777l1.6,4.325a1.022,1.022,0,0,1,.085.316,1.7,1.7,0,0,1,.026.3c0,.2-.231.367-.7.5a8.126,8.126,0,0,1-1.761.273v.47h4.641a3.124,3.124,0,0,1,1.12.453,1.76,1.76,0,0,1,.556,1.085,10.431,10.431,0,0,1,.188,2.128v6.829Zm-6.863-8.863.855,1.051.88-1.077-.88-1.017-.855,1.043Zm.855-1.043-.855,1.043.855,1.051.88-1.077-.88-1.017Zm0,0-.855,1.043.855,1.051.88-1.077-.88-1.017Zm10.76-23.52.342-2.7-.778-.094-.436,3.393,2.521.325.094-.692-1.743-.231Zm0,0,.342-2.7-.778-.094-.436,3.393,2.521.325.094-.692-1.743-.231ZM29.665,7.427,29.5,9.333c-.051.564-.316.846-.8.838a.9.9,0,0,1-.214-.017.816.816,0,0,1-.632-.966l.162-1.906-.778-.068-.162,1.906a1.5,1.5,0,0,0,.376,1.239,1.745,1.745,0,0,0,1.179.487,1.583,1.583,0,0,0,1.145-.333,1.612,1.612,0,0,0,.5-1.12l.162-1.9-.769-.068ZM26.1,9.162a.756.756,0,0,0-.453-.419.705.705,0,0,0,.5-.675.791.791,0,0,0-.316-.709,1.5,1.5,0,0,0-.863-.273l-1.726-.077-.154,3.419,1.761.077c.752.034,1.2-.214,1.316-.744a.851.851,0,0,0-.06-.6ZM23.973,7.7l.966.043a.5.5,0,0,1,.325.111.307.307,0,0,1,.1.256c-.009.214-.162.316-.47.3l-.957-.043.034-.667Zm.872,2.137-.957-.043L23.922,9l.957.043a.581.581,0,0,1,.385.128.365.365,0,0,1,.12.3c-.017.256-.2.385-.538.367ZM21.264,6.974V8.119L21.3,9.2,19.537,6.965h-.675l-.017,3.419h.795V9.315L19.623,8.2l1.735,2.2h.675l.017-3.419h-.786Zm-4.752.051-.855.034L14.2,10.538l.846-.034.231-.6,1.8-.068h0l.273.581.846-.034L16.5,7.025Zm-.957,2.2.556-1.41h.009l.65,1.367-1.214.043Zm-1.564-1.41-.043-.684-2.914.214.043.675,1.068-.077.2,2.735.778-.06-.2-2.726,1.068-.077ZM9.2,8.863a1.661,1.661,0,0,1-.581-.051.3.3,0,0,1-.214-.273.326.326,0,0,1,.154-.291A.816.816,0,0,1,9,8.093a1.337,1.337,0,0,1,.453.026.842.842,0,0,1,.376.171l.444-.47a1.563,1.563,0,0,0-.615-.342,2.029,2.029,0,0,0-.752-.034,1.694,1.694,0,0,0-.949.385.875.875,0,0,0-.325.8.884.884,0,0,0,.154.479.851.851,0,0,0,.35.273,2.083,2.083,0,0,0,.453.12c.179.017.367.026.547.026a1.238,1.238,0,0,1,.556.077.326.326,0,0,1,.205.3.34.34,0,0,1-.162.316,1.108,1.108,0,0,1-.5.171,1.589,1.589,0,0,1-.6-.06,1.244,1.244,0,0,1-.521-.308l-.41.521A1.406,1.406,0,0,0,8.4,11a2.407,2.407,0,0,0,.923.077,2.5,2.5,0,0,0,.709-.2,1.207,1.207,0,0,0,.5-.427.993.993,0,0,0,.145-.641c-.077-.658-.564-.974-1.47-.949Zm-2.684-1-.769.111.487,3.384.769-.111L6.521,7.863Zm-.205-.974A.453.453,0,0,0,6,6.828a.524.524,0,0,0-.291.145.347.347,0,0,0-.094.3.314.314,0,0,0,.179.256.5.5,0,0,0,.316.06A.524.524,0,0,0,6.4,7.444.338.338,0,0,0,6.5,7.153a.327.327,0,0,0-.179-.265ZM21.229,33.929l-.855,1.043.855,1.051.88-1.077-.88-1.017Zm0,0-.855,1.043.855,1.051.88-1.077-.88-1.017Zm6.777-1.2a.7.7,0,0,1-.077-.017,3.081,3.081,0,0,1-.82-.316,3.019,3.019,0,0,1-.718-.641,3.311,3.311,0,0,1-.462-.855L19.495,14.255H18.4q-1.372,3.525-3.128,8.068-1.756,4.525-3.213,8.162a4.914,4.914,0,0,1-.581,1.111,3.633,3.633,0,0,1-.846.769,2.871,2.871,0,0,1-.872.35,5.227,5.227,0,0,1-.889.154v.47H15.05a2.062,2.062,0,0,1,.427.179,1.268,1.268,0,0,1,.547.513,1.554,1.554,0,0,1,.137.684v9.846a4.24,4.24,0,0,0,.4,1.8,4.513,4.513,0,0,0,1.188,1.53,5.814,5.814,0,0,0,1.974,1.06,8.352,8.352,0,0,0,2.675.393,7.629,7.629,0,0,0,1.966-.273,6.381,6.381,0,0,0,1.957-.906,5.1,5.1,0,0,0,1.513-1.684,4.706,4.706,0,0,0,.573-2.4V36.844a11.975,11.975,0,0,1,.154-2.068,1.592,1.592,0,0,1,.556-1.111,2.806,2.806,0,0,1,1.034-.385,6.111,6.111,0,0,1,.966-.137v-.41H28.007Zm-9.623-14.2,2.923,7.5H15.5l2.88-7.5Zm8.854,25.306a5.126,5.126,0,0,1-.2,1.393,4.159,4.159,0,0,1-.684,1.325,3.617,3.617,0,0,1-1.376,1.077,5.21,5.21,0,0,1-2.162.41,4.809,4.809,0,0,1-2.162-.41,3.479,3.479,0,0,1-1.248-1.06,3.661,3.661,0,0,1-.581-1.367,7.722,7.722,0,0,1-.145-1.4V34.6a1.851,1.851,0,0,1,.137-.718.808.808,0,0,1,.53-.47c.137-.043.342-.094.607-.154v-.538H15.033a6.939,6.939,0,0,1-.829-.214c-.564-.205-.855-.487-.855-.846a4.575,4.575,0,0,1,.068-.6,8.576,8.576,0,0,1,.248-.949c.128-.4.273-.838.427-1.308s.359-1.026.615-1.658h6.777l1.6,4.325a1.022,1.022,0,0,1,.085.316,1.7,1.7,0,0,1,.026.3c0,.2-.231.367-.7.5a8.126,8.126,0,0,1-1.761.273v.47h4.641a3.124,3.124,0,0,1,1.12.453,1.76,1.76,0,0,1,.556,1.085,10.431,10.431,0,0,1,.188,2.128v6.829Zm-6.863-8.863.855,1.051.88-1.077-.88-1.017-.855,1.043Zm.855-1.043-.855,1.043.855,1.051.88-1.077-.88-1.017Zm0,0-.855,1.043.855,1.051.88-1.077-.88-1.017ZM6.316,6.888A.453.453,0,0,0,6,6.828a.524.524,0,0,0-.291.145.347.347,0,0,0-.094.3.314.314,0,0,0,.179.256.5.5,0,0,0,.316.06A.524.524,0,0,0,6.4,7.444.338.338,0,0,0,6.5,7.153a.327.327,0,0,0-.179-.265Zm.205.974-.769.111.487,3.384.769-.111Zm2.684,1a1.661,1.661,0,0,1-.581-.051.3.3,0,0,1-.214-.273.326.326,0,0,1,.154-.291A.816.816,0,0,1,9,8.093a1.337,1.337,0,0,1,.453.026.842.842,0,0,1,.376.171l.444-.47a1.563,1.563,0,0,0-.615-.342,2.029,2.029,0,0,0-.752-.034,1.694,1.694,0,0,0-.949.385.875.875,0,0,0-.325.8.884.884,0,0,0,.154.479.851.851,0,0,0,.35.273,2.083,2.083,0,0,0,.453.12c.179.017.367.026.547.026a1.238,1.238,0,0,1,.556.077.326.326,0,0,1,.205.3.34.34,0,0,1-.162.316,1.108,1.108,0,0,1-.5.171,1.589,1.589,0,0,1-.6-.06,1.244,1.244,0,0,1-.521-.308l-.41.521A1.406,1.406,0,0,0,8.4,11a2.407,2.407,0,0,0,.923.077,2.5,2.5,0,0,0,.709-.2,1.207,1.207,0,0,0,.5-.427.993.993,0,0,0,.145-.641C10.6,9.153,10.111,8.837,9.2,8.863Zm4.786-1.051-.043-.684-2.914.214.043.675,1.068-.077.2,2.735.778-.06-.2-2.726Zm2.521-.786-.855.034L14.2,10.538l.846-.034.231-.6,1.8-.068h0l.273.581.846-.034L16.5,7.025Zm-.957,2.2.556-1.41h.009l.65,1.367-1.214.043Zm5.709-2.248V8.119L21.3,9.2,19.537,6.965h-.675l-.017,3.419h.795V9.315L19.623,8.2l1.735,2.2h.675l.017-3.419h-.786Zm-.034,26.956-.855,1.043.855,1.051.88-1.077-.88-1.017ZM26.1,9.162a.756.756,0,0,0-.453-.419.705.705,0,0,0,.5-.675.791.791,0,0,0-.316-.709,1.5,1.5,0,0,0-.863-.273l-1.726-.077-.154,3.419,1.761.077c.752.034,1.2-.214,1.316-.744a.851.851,0,0,0-.06-.6ZM23.973,7.7l.966.043a.5.5,0,0,1,.325.111.307.307,0,0,1,.1.256c-.009.214-.162.316-.47.3l-.957-.043.034-.667Zm.872,2.137-.957-.043L23.922,9l.957.043a.581.581,0,0,1,.385.128.365.365,0,0,1,.12.3C25.366,9.726,25.187,9.854,24.845,9.837Zm4.82-2.41L29.5,9.333c-.051.564-.316.846-.8.838a.9.9,0,0,1-.214-.017.816.816,0,0,1-.632-.966l.162-1.906-.778-.068-.162,1.906a1.5,1.5,0,0,0,.376,1.239,1.745,1.745,0,0,0,1.179.487,1.583,1.583,0,0,0,1.145-.333,1.612,1.612,0,0,0,.5-1.12l.162-1.9-.769-.068Zm-8.435,26.5-.855,1.043.855,1.051.88-1.077-.88-1.017Zm6.777-1.2a.7.7,0,0,1-.077-.017,3.081,3.081,0,0,1-.82-.316,3.019,3.019,0,0,1-.718-.641,3.311,3.311,0,0,1-.462-.855L19.495,14.255H18.4q-1.372,3.525-3.128,8.068-1.756,4.525-3.213,8.162a4.914,4.914,0,0,1-.581,1.111,3.633,3.633,0,0,1-.846.769,2.871,2.871,0,0,1-.872.35,5.227,5.227,0,0,1-.889.154v.47H15.05a2.062,2.062,0,0,1,.427.179,1.268,1.268,0,0,1,.547.513,1.554,1.554,0,0,1,.137.684v9.846a4.24,4.24,0,0,0,.4,1.8,4.513,4.513,0,0,0,1.188,1.53,5.814,5.814,0,0,0,1.974,1.06,8.352,8.352,0,0,0,2.675.393,7.629,7.629,0,0,0,1.966-.273,6.381,6.381,0,0,0,1.957-.906,5.1,5.1,0,0,0,1.513-1.684,4.706,4.706,0,0,0,.573-2.4V36.844a11.975,11.975,0,0,1,.154-2.068,1.592,1.592,0,0,1,.556-1.111,2.806,2.806,0,0,1,1.034-.385,6.111,6.111,0,0,1,.966-.137v-.41H28.007Zm-9.623-14.2,2.923,7.5H15.5l2.88-7.5Zm8.854,25.306a5.126,5.126,0,0,1-.2,1.393,4.159,4.159,0,0,1-.684,1.325,3.617,3.617,0,0,1-1.376,1.077,5.21,5.21,0,0,1-2.162.41,4.809,4.809,0,0,1-2.162-.41,3.479,3.479,0,0,1-1.248-1.06,3.661,3.661,0,0,1-.581-1.367,7.722,7.722,0,0,1-.145-1.4V34.6a1.851,1.851,0,0,1,.137-.718.808.808,0,0,1,.53-.47c.137-.043.342-.094.607-.154v-.538H15.033a6.939,6.939,0,0,1-.829-.214c-.564-.205-.855-.487-.855-.846a4.575,4.575,0,0,1,.068-.6,8.576,8.576,0,0,1,.248-.949c.128-.4.273-.838.427-1.308s.359-1.026.615-1.658h6.777l1.6,4.325a1.022,1.022,0,0,1,.085.316,1.7,1.7,0,0,1,.026.3c0,.2-.231.367-.7.5a8.126,8.126,0,0,1-1.761.273v.47h4.641a3.124,3.124,0,0,1,1.12.453,1.76,1.76,0,0,1,.556,1.085,10.431,10.431,0,0,1,.188,2.128v6.829Zm-6.863-8.863.855,1.051.88-1.077-.88-1.017-.855,1.043ZM31.99,10.409l.342-2.7-.778-.094-.436,3.393,2.521.325.094-.692-1.743-.231Zm0,0,.342-2.7-.778-.094-.436,3.393,2.521.325.094-.692-1.743-.231ZM29.5,9.333c-.051.564-.316.846-.8.838a.9.9,0,0,1-.214-.017.816.816,0,0,1-.632-.966l.162-1.906-.778-.068-.162,1.906a1.5,1.5,0,0,0,.376,1.239,1.745,1.745,0,0,0,1.179.487,1.583,1.583,0,0,0,1.145-.333,1.612,1.612,0,0,0,.5-1.12l.162-1.9-.769-.068L29.5,9.333Zm-3.854-.59a.705.705,0,0,0,.5-.675.791.791,0,0,0-.316-.709,1.5,1.5,0,0,0-.863-.273l-1.726-.077-.154,3.419,1.761.077c.752.034,1.2-.214,1.316-.744a.851.851,0,0,0-.06-.6.756.756,0,0,0-.453-.419ZM23.973,7.7l.966.043a.5.5,0,0,1,.325.111.307.307,0,0,1,.1.256c-.009.214-.162.316-.47.3l-.957-.043.034-.667Zm.872,2.137-.957-.043L23.922,9l.957.043a.581.581,0,0,1,.385.128.365.365,0,0,1,.12.3c-.017.256-.2.385-.538.367Zm-3.59-1.718L21.3,9.2,19.537,6.965h-.675l-.017,3.419h.795V9.315L19.623,8.2l1.735,2.2h.675l.017-3.419h-.786V8.119Zm-5.606-1.06L14.2,10.538l.846-.034.231-.6,1.8-.068h0l.273.581.846-.034-1.7-3.359-.855.034Zm-.1,2.162.556-1.41h.009l.65,1.367-1.214.043ZM13.939,7.128l-2.914.214.043.675,1.068-.077.2,2.735.778-.06-.2-2.726,1.068-.077-.043-.684ZM9.2,8.863a1.661,1.661,0,0,1-.581-.051A.3.3,0,0,1,8.4,8.538a.326.326,0,0,1,.154-.291.816.816,0,0,1,.436-.154,1.337,1.337,0,0,1,.453.026.842.842,0,0,1,.376.171l.444-.47a1.563,1.563,0,0,0-.615-.342A2.029,2.029,0,0,0,8.9,7.444a1.694,1.694,0,0,0-.949.385.875.875,0,0,0-.325.8.884.884,0,0,0,.154.479.851.851,0,0,0,.35.273,2.083,2.083,0,0,0,.453.12c.179.017.367.026.547.026a1.238,1.238,0,0,1,.556.077.326.326,0,0,1,.205.3.34.34,0,0,1-.162.316,1.108,1.108,0,0,1-.5.171,1.589,1.589,0,0,1-.6-.06,1.244,1.244,0,0,1-.521-.308l-.41.521A1.406,1.406,0,0,0,8.393,11a2.407,2.407,0,0,0,.923.077,2.5,2.5,0,0,0,.709-.2,1.207,1.207,0,0,0,.5-.427.993.993,0,0,0,.145-.641C10.589,9.153,10.1,8.837,9.2,8.863ZM5.743,7.974l.487,3.384L7,11.247,6.512,7.863ZM6.1,7.589a.524.524,0,0,0,.291-.145.338.338,0,0,0,.094-.291.327.327,0,0,0-.179-.265.453.453,0,0,0-.316-.06.524.524,0,0,0-.291.145.347.347,0,0,0-.094.3.314.314,0,0,0,.179.256.5.5,0,0,0,.316.06ZM28,32.733a.7.7,0,0,1-.077-.017,3.081,3.081,0,0,1-.82-.316,3.019,3.019,0,0,1-.718-.641,3.311,3.311,0,0,1-.462-.855L19.486,14.255H18.392q-1.372,3.525-3.128,8.068-1.756,4.525-3.213,8.162a4.914,4.914,0,0,1-.581,1.111,3.633,3.633,0,0,1-.846.769,2.871,2.871,0,0,1-.872.35,5.227,5.227,0,0,1-.889.154v.47h6.179a2.062,2.062,0,0,1,.427.179,1.268,1.268,0,0,1,.547.513,1.554,1.554,0,0,1,.137.684v9.846a4.24,4.24,0,0,0,.4,1.8,4.513,4.513,0,0,0,1.188,1.53,5.814,5.814,0,0,0,1.974,1.06,8.352,8.352,0,0,0,2.675.393,7.629,7.629,0,0,0,1.966-.273,6.381,6.381,0,0,0,1.957-.906,5.1,5.1,0,0,0,1.513-1.684,4.706,4.706,0,0,0,.573-2.4V36.844a11.975,11.975,0,0,1,.154-2.068,1.592,1.592,0,0,1,.556-1.111,2.806,2.806,0,0,1,1.034-.385,6.112,6.112,0,0,1,.966-.137v-.41H28Zm-9.623-14.2,2.923,7.5h-5.8l2.88-7.5Zm8.854,25.306a5.126,5.126,0,0,1-.2,1.393,4.159,4.159,0,0,1-.684,1.325,3.617,3.617,0,0,1-1.376,1.077,5.21,5.21,0,0,1-2.162.41,4.809,4.809,0,0,1-2.162-.41A3.479,3.479,0,0,1,19.4,46.57a3.661,3.661,0,0,1-.581-1.367,7.722,7.722,0,0,1-.145-1.4V34.6a1.851,1.851,0,0,1,.137-.718.808.808,0,0,1,.53-.47c.137-.043.342-.094.607-.154v-.538H15.025a6.939,6.939,0,0,1-.829-.214c-.564-.205-.855-.487-.855-.846a4.575,4.575,0,0,1,.068-.6,8.576,8.576,0,0,1,.248-.949c.128-.4.273-.838.427-1.308s.359-1.026.615-1.658h6.777l1.6,4.325a1.022,1.022,0,0,1,.085.316,1.694,1.694,0,0,1,.026.3c0,.2-.231.367-.7.5a8.126,8.126,0,0,1-1.761.273v.47h4.641a3.124,3.124,0,0,1,1.12.453,1.76,1.76,0,0,1,.556,1.085,10.431,10.431,0,0,1,.188,2.128v6.829Zm-6.863-8.863.855,1.051.88-1.077-.88-1.017-.855,1.043Zm19.571.3V1.854C32.827-.616,7.153-.624.026,1.854V35.263c.06.188-1.308,4.307,9.769,13.691,8.461,7.017,9.974,8.085,10.187,8.247h0c.231-.137,1.752-1.239,10.187-8.23,11.076-9.393,9.709-13.512,9.777-13.7ZM.513,2.367c6.948-2.41,31.989-2.4,38.938.009v5.1C32.5,5.068,7.461,5.059.513,7.478Zm0,5.3c6.948-2.419,31.989-2.41,38.938,0v5.111c-6.948-2.41-31.99-2.419-38.938,0V7.666ZM29.9,48.518c-7.683,6.367-9.487,7.709-9.871,7.974l-.06.043-.051-.034c-.359-.248-2.12-1.547-9.88-7.982C-.761,39.356.573,35.348.513,35.16V13.033c6.957-2.419,31.989-2.41,38.938,0V35.16h-.009C39.374,35.34,40.715,39.356,29.9,48.518Zm8.752-34.69-.154-.051c-3.077-1.068-10.213-1.735-18.554-1.735s-15.426.667-18.486,1.726l-.154.051V35.314c-.171,1.735.8,5.7,9.119,12.751,6.94,5.752,8.829,7.188,9.307,7.529l.128.094.085.051.043.026.231-.162c.479-.342,2.35-1.752,9.316-7.529,8.316-7.042,9.281-11.016,9.119-12.751Zm-.444,21.537c.376,3.983-6.145,9.965-8.957,12.35C22.358,53.441,20.477,54.86,20,55.2c-.487-.35-2.376-1.778-9.264-7.5-2.82-2.384-9.333-8.367-8.957-12.35v-.145h.017V14.153c3.1-1.017,10-1.649,18.178-1.649s15.127.624,18.238,1.649V35.365ZM33.733,10.64l-1.743-.231.342-2.7-.778-.094-.436,3.393,2.521.325.094-.692Zm-5.1.205a1.583,1.583,0,0,0,1.145-.333,1.612,1.612,0,0,0,.5-1.12l.162-1.9-.769-.068L29.5,9.333c-.051.564-.316.846-.8.838a.9.9,0,0,1-.214-.017.816.816,0,0,1-.632-.966l.162-1.906-.778-.068-.162,1.906a1.5,1.5,0,0,0,.376,1.239,1.745,1.745,0,0,0,1.179.487ZM18.4,14.255q-1.372,3.525-3.128,8.068-1.756,4.525-3.213,8.162a4.914,4.914,0,0,1-.581,1.111,3.633,3.633,0,0,1-.846.769,2.871,2.871,0,0,1-.872.35,5.227,5.227,0,0,1-.889.154v.47H15.05a2.062,2.062,0,0,1,.427.179,1.268,1.268,0,0,1,.547.513,1.554,1.554,0,0,1,.137.684v9.846a4.24,4.24,0,0,0,.4,1.8,4.513,4.513,0,0,0,1.188,1.53,5.814,5.814,0,0,0,1.974,1.06,8.352,8.352,0,0,0,2.675.393,7.629,7.629,0,0,0,1.966-.273,6.381,6.381,0,0,0,1.957-.906,5.1,5.1,0,0,0,1.513-1.684,4.706,4.706,0,0,0,.573-2.4V36.844a11.975,11.975,0,0,1,.154-2.068,1.592,1.592,0,0,1,.556-1.111,2.806,2.806,0,0,1,1.034-.385,6.111,6.111,0,0,1,.966-.137v-.41H28.007a.7.7,0,0,1-.077-.017,3.081,3.081,0,0,1-.82-.316,3.019,3.019,0,0,1-.718-.641,3.311,3.311,0,0,1-.462-.855L19.495,14.255H18.4Zm4.683,17.221a1.022,1.022,0,0,1,.085.316,1.7,1.7,0,0,1,.026.3c0,.2-.231.368-.7.5a8.126,8.126,0,0,1-1.761.273v.47h4.641a3.124,3.124,0,0,1,1.12.453,1.76,1.76,0,0,1,.556,1.085,10.431,10.431,0,0,1,.188,2.128v6.829a5.126,5.126,0,0,1-.2,1.393,4.159,4.159,0,0,1-.684,1.325,3.617,3.617,0,0,1-1.376,1.077,5.21,5.21,0,0,1-2.162.41,4.809,4.809,0,0,1-2.162-.41,3.479,3.479,0,0,1-1.248-1.06,3.661,3.661,0,0,1-.581-1.367,7.722,7.722,0,0,1-.145-1.4V34.6a1.851,1.851,0,0,1,.137-.718.808.808,0,0,1,.53-.47c.137-.043.342-.094.607-.154v-.538H15.033a6.939,6.939,0,0,1-.829-.214c-.564-.205-.855-.487-.855-.846a4.575,4.575,0,0,1,.068-.6,8.576,8.576,0,0,1,.248-.949c.128-.4.273-.838.427-1.308s.359-1.026.615-1.658h6.777l1.6,4.325ZM15.5,26.024l2.88-7.5,2.923,7.5ZM26.161,9.76a.851.851,0,0,0-.06-.6.756.756,0,0,0-.453-.419.705.705,0,0,0,.5-.675.791.791,0,0,0-.316-.709,1.5,1.5,0,0,0-.863-.273l-1.726-.077-.154,3.419,1.761.077c.752.034,1.2-.214,1.316-.744ZM23.973,7.7l.966.043a.5.5,0,0,1,.325.111.307.307,0,0,1,.1.256c-.009.214-.162.316-.47.3l-.957-.043.034-.667ZM23.922,9l.957.043a.581.581,0,0,1,.385.128.365.365,0,0,1,.12.3c-.017.256-.2.385-.538.367l-.957-.043ZM22.11,34.946l-.88-1.017-.855,1.043.855,1.051.88-1.077Zm-.752-24.554h.675l.017-3.419h-.786V8.119L21.3,9.2,19.537,6.965h-.675l-.017,3.419h.795V9.315L19.623,8.2l1.735,2.2Zm-5.7-3.333L14.2,10.538l.846-.034.231-.6,1.8-.068h0l.273.581.846-.034L16.5,7.025l-.855.034Zm-.1,2.162.556-1.41h.009l.65,1.367-1.214.043ZM13.948,7.128l-2.914.214.043.675,1.068-.077.2,2.735.778-.06-.2-2.726,1.068-.077-.043-.684ZM9.2,8.863a1.661,1.661,0,0,1-.581-.051.3.3,0,0,1-.214-.273.326.326,0,0,1,.154-.291A.816.816,0,0,1,9,8.093a1.337,1.337,0,0,1,.453.026.842.842,0,0,1,.376.171l.444-.47a1.563,1.563,0,0,0-.615-.342,2.029,2.029,0,0,0-.752-.034,1.694,1.694,0,0,0-.949.385.875.875,0,0,0-.325.8.884.884,0,0,0,.154.479.851.851,0,0,0,.35.273,2.083,2.083,0,0,0,.453.12c.179.017.367.026.547.026a1.238,1.238,0,0,1,.556.077.326.326,0,0,1,.205.3.34.34,0,0,1-.162.316,1.108,1.108,0,0,1-.5.171,1.589,1.589,0,0,1-.6-.06,1.244,1.244,0,0,1-.521-.308l-.41.521A1.406,1.406,0,0,0,8.4,11a2.407,2.407,0,0,0,.923.077,2.5,2.5,0,0,0,.709-.2,1.207,1.207,0,0,0,.5-.427.993.993,0,0,0,.145-.641C10.6,9.153,10.111,8.837,9.2,8.863ZM5.752,7.974l.487,3.384.769-.111L6.521,7.863Zm.359-.385A.524.524,0,0,0,6.4,7.444.338.338,0,0,0,6.5,7.153a.327.327,0,0,0-.179-.265A.453.453,0,0,0,6,6.828a.524.524,0,0,0-.291.145.347.347,0,0,0-.094.3.314.314,0,0,0,.179.256.5.5,0,0,0,.316.06Zm15.119,26.34-.855,1.043.855,1.051.88-1.077-.88-1.017Zm0,0-.855,1.043.855,1.051.88-1.077-.88-1.017Zm6.777-1.2a.7.7,0,0,1-.077-.017,3.081,3.081,0,0,1-.82-.316,3.019,3.019,0,0,1-.718-.641,3.311,3.311,0,0,1-.462-.855L19.495,14.255H18.4q-1.372,3.525-3.128,8.068-1.756,4.525-3.213,8.162a4.914,4.914,0,0,1-.581,1.111,3.633,3.633,0,0,1-.846.769,2.871,2.871,0,0,1-.872.35,5.227,5.227,0,0,1-.889.154v.47H15.05a2.062,2.062,0,0,1,.427.179,1.268,1.268,0,0,1,.547.513,1.554,1.554,0,0,1,.137.684v9.846a4.24,4.24,0,0,0,.4,1.8,4.513,4.513,0,0,0,1.188,1.53,5.814,5.814,0,0,0,1.974,1.06,8.352,8.352,0,0,0,2.675.393,7.629,7.629,0,0,0,1.966-.273,6.381,6.381,0,0,0,1.957-.906,5.1,5.1,0,0,0,1.513-1.684,4.706,4.706,0,0,0,.573-2.4V36.844a11.975,11.975,0,0,1,.154-2.068,1.592,1.592,0,0,1,.556-1.111,2.806,2.806,0,0,1,1.034-.385,6.111,6.111,0,0,1,.966-.137v-.41H28.007Zm-9.623-14.2,2.923,7.5H15.5l2.88-7.5Zm8.854,25.306a5.126,5.126,0,0,1-.2,1.393,4.159,4.159,0,0,1-.684,1.325,3.617,3.617,0,0,1-1.376,1.077,5.21,5.21,0,0,1-2.162.41,4.809,4.809,0,0,1-2.162-.41,3.479,3.479,0,0,1-1.248-1.06,3.661,3.661,0,0,1-.581-1.367,7.723,7.723,0,0,1-.145-1.4V34.6a1.851,1.851,0,0,1,.137-.718.808.808,0,0,1,.53-.47c.137-.043.342-.094.607-.154v-.538H15.033a6.939,6.939,0,0,1-.829-.214c-.564-.205-.855-.487-.855-.846a4.575,4.575,0,0,1,.068-.6,8.576,8.576,0,0,1,.248-.949c.128-.4.273-.838.427-1.308s.359-1.026.615-1.658h6.777l1.6,4.325a1.022,1.022,0,0,1,.085.316,1.694,1.694,0,0,1,.026.3c0,.2-.231.367-.7.5a8.126,8.126,0,0,1-1.761.273v.47h4.641a3.124,3.124,0,0,1,1.12.453,1.76,1.76,0,0,1,.556,1.085,10.431,10.431,0,0,1,.188,2.128v6.829Zm-6.863-8.863.855,1.051.88-1.077-.88-1.017-.855,1.043ZM6.316,6.888A.453.453,0,0,0,6,6.828a.524.524,0,0,0-.291.145.347.347,0,0,0-.094.3.314.314,0,0,0,.179.256.5.5,0,0,0,.316.06A.524.524,0,0,0,6.4,7.444.338.338,0,0,0,6.5,7.153a.327.327,0,0,0-.179-.265Zm.205.974-.769.111.487,3.384.769-.111Zm2.684,1a1.661,1.661,0,0,1-.581-.051.3.3,0,0,1-.214-.273.326.326,0,0,1,.154-.291A.816.816,0,0,1,9,8.093a1.337,1.337,0,0,1,.453.026.842.842,0,0,1,.376.171l.444-.47a1.563,1.563,0,0,0-.615-.342,2.029,2.029,0,0,0-.752-.034,1.694,1.694,0,0,0-.949.385.875.875,0,0,0-.325.8.884.884,0,0,0,.154.479.851.851,0,0,0,.35.273,2.083,2.083,0,0,0,.453.12c.179.017.367.026.547.026a1.238,1.238,0,0,1,.556.077.326.326,0,0,1,.205.3.34.34,0,0,1-.162.316,1.108,1.108,0,0,1-.5.171,1.589,1.589,0,0,1-.6-.06,1.244,1.244,0,0,1-.521-.308l-.41.521A1.406,1.406,0,0,0,8.4,11a2.407,2.407,0,0,0,.923.077,2.5,2.5,0,0,0,.709-.2,1.207,1.207,0,0,0,.5-.427.993.993,0,0,0,.145-.641C10.6,9.153,10.111,8.837,9.2,8.863Zm4.786-1.051-.043-.684-2.914.214.043.675,1.068-.077.2,2.735.778-.06-.2-2.726Zm2.521-.786-.855.034L14.2,10.538l.846-.034.231-.6,1.8-.068h0l.273.581.846-.034L16.5,7.025Zm-.957,2.2.556-1.41h.009l.65,1.367-1.214.043Zm5.709-2.248V8.119L21.3,9.2,19.537,6.965h-.675l-.017,3.419h.795V9.315L19.623,8.2l1.735,2.2h.675l.017-3.419h-.786ZM26.1,9.162a.756.756,0,0,0-.453-.419.705.705,0,0,0,.5-.675.791.791,0,0,0-.316-.709,1.5,1.5,0,0,0-.863-.273l-1.726-.077-.154,3.419,1.761.077c.752.034,1.2-.214,1.316-.744a.851.851,0,0,0-.06-.6ZM23.973,7.7l.966.043a.5.5,0,0,1,.325.111.307.307,0,0,1,.1.256c-.009.214-.162.316-.47.3l-.957-.043.034-.667Zm.872,2.137-.957-.043L23.922,9l.957.043a.581.581,0,0,1,.385.128.365.365,0,0,1,.12.3c-.017.256-.2.385-.538.367Zm4.82-2.41L29.5,9.333c-.051.564-.316.846-.8.838a.9.9,0,0,1-.214-.017.816.816,0,0,1-.632-.966l.162-1.906-.778-.068-.162,1.906a1.5,1.5,0,0,0,.376,1.239,1.745,1.745,0,0,0,1.179.487,1.583,1.583,0,0,0,1.145-.333,1.612,1.612,0,0,0,.5-1.12l.162-1.9-.769-.068Zm2.325,2.983.342-2.7-.778-.094-.436,3.393,2.521.325.094-.692-1.743-.231Zm0,0,.342-2.7-.778-.094-.436,3.393,2.521.325.094-.692-1.743-.231Zm-10.76,23.52-.855,1.043.855,1.051.88-1.077-.88-1.017Zm0,0-.855,1.043.855,1.051.88-1.077-.88-1.017Zm6.777-1.2a.7.7,0,0,1-.077-.017,3.081,3.081,0,0,1-.82-.316,3.019,3.019,0,0,1-.718-.641,3.311,3.311,0,0,1-.462-.855L19.495,14.255H18.4q-1.372,3.525-3.128,8.068-1.756,4.525-3.213,8.162a4.914,4.914,0,0,1-.581,1.111,3.633,3.633,0,0,1-.846.769,2.871,2.871,0,0,1-.872.35,5.227,5.227,0,0,1-.889.154v.47H15.05a2.062,2.062,0,0,1,.427.179,1.268,1.268,0,0,1,.547.513,1.554,1.554,0,0,1,.137.684v9.846a4.24,4.24,0,0,0,.4,1.8,4.513,4.513,0,0,0,1.188,1.53,5.814,5.814,0,0,0,1.974,1.06,8.352,8.352,0,0,0,2.675.393,7.629,7.629,0,0,0,1.966-.273,6.381,6.381,0,0,0,1.957-.906,5.1,5.1,0,0,0,1.513-1.684,4.706,4.706,0,0,0,.573-2.4V36.844a11.975,11.975,0,0,1,.154-2.068,1.592,1.592,0,0,1,.556-1.111,2.806,2.806,0,0,1,1.034-.385,6.111,6.111,0,0,1,.966-.137v-.41H28.007Zm-9.623-14.2,2.923,7.5H15.5l2.88-7.5Zm8.854,25.306a5.126,5.126,0,0,1-.2,1.393,4.159,4.159,0,0,1-.684,1.325,3.617,3.617,0,0,1-1.376,1.077,5.21,5.21,0,0,1-2.162.41,4.809,4.809,0,0,1-2.162-.41,3.479,3.479,0,0,1-1.248-1.06,3.661,3.661,0,0,1-.581-1.367,7.722,7.722,0,0,1-.145-1.4V34.6a1.851,1.851,0,0,1,.137-.718.808.808,0,0,1,.53-.47c.137-.043.342-.094.607-.154v-.538H15.033a6.939,6.939,0,0,1-.829-.214c-.564-.205-.855-.487-.855-.846a4.575,4.575,0,0,1,.068-.6,8.576,8.576,0,0,1,.248-.949c.128-.4.273-.838.427-1.308s.359-1.026.615-1.658h6.777l1.6,4.325a1.022,1.022,0,0,1,.085.316,1.7,1.7,0,0,1,.026.3c0,.2-.231.367-.7.5a8.126,8.126,0,0,1-1.761.273v.47h4.641a3.124,3.124,0,0,1,1.12.453,1.76,1.76,0,0,1,.556,1.085,10.431,10.431,0,0,1,.188,2.128v6.829Zm-6.863-8.863.855,1.051.88-1.077-.88-1.017-.855,1.043Zm.855-1.043-.855,1.043.855,1.051.88-1.077-.88-1.017Zm8.435-26.5L29.5,9.333c-.051.564-.316.846-.8.838a.9.9,0,0,1-.214-.017.816.816,0,0,1-.632-.966l.162-1.906-.778-.068-.162,1.906a1.5,1.5,0,0,0,.376,1.239,1.745,1.745,0,0,0,1.179.487,1.583,1.583,0,0,0,1.145-.333,1.612,1.612,0,0,0,.5-1.12l.162-1.9-.769-.068ZM26.1,9.162a.756.756,0,0,0-.453-.419.705.705,0,0,0,.5-.675.791.791,0,0,0-.316-.709,1.5,1.5,0,0,0-.863-.273l-1.726-.077-.154,3.419,1.761.077c.752.034,1.2-.214,1.316-.744a.851.851,0,0,0-.06-.6ZM23.973,7.7l.966.043a.5.5,0,0,1,.325.111.307.307,0,0,1,.1.256c-.009.214-.162.316-.47.3l-.957-.043.034-.667Zm.872,2.137-.957-.043L23.922,9l.957.043a.581.581,0,0,1,.385.128.365.365,0,0,1,.12.3c-.017.256-.2.385-.538.367ZM21.229,33.929l-.855,1.043.855,1.051.88-1.077-.88-1.017Zm.034-26.956V8.119L21.3,9.2,19.537,6.965h-.675l-.017,3.419h.795V9.315L19.623,8.2l1.735,2.2h.675l.017-3.419Zm-4.752.051-.855.034L14.2,10.538l.846-.034.231-.6,1.8-.068h0l.273.581.846-.034L16.5,7.025Zm-.957,2.2.556-1.41h.009l.65,1.367-1.214.043Zm-1.564-1.41-.043-.684-2.914.214.043.675,1.068-.077.2,2.735.778-.06-.2-2.726,1.068-.077ZM9.2,8.863a1.661,1.661,0,0,1-.581-.051.3.3,0,0,1-.214-.273.326.326,0,0,1,.154-.291A.816.816,0,0,1,9,8.093a1.337,1.337,0,0,1,.453.026.842.842,0,0,1,.376.171l.444-.47a1.563,1.563,0,0,0-.615-.342,2.029,2.029,0,0,0-.752-.034,1.694,1.694,0,0,0-.949.385.875.875,0,0,0-.325.8.884.884,0,0,0,.154.479.851.851,0,0,0,.35.273,2.083,2.083,0,0,0,.453.12c.179.017.367.026.547.026a1.238,1.238,0,0,1,.556.077.326.326,0,0,1,.205.3.34.34,0,0,1-.162.316,1.108,1.108,0,0,1-.5.171,1.589,1.589,0,0,1-.6-.06,1.244,1.244,0,0,1-.521-.308l-.41.521A1.406,1.406,0,0,0,8.4,11a2.407,2.407,0,0,0,.923.077,2.5,2.5,0,0,0,.709-.2,1.207,1.207,0,0,0,.5-.427.993.993,0,0,0,.145-.641C10.6,9.153,10.111,8.837,9.2,8.863Zm-2.684-1-.769.111.487,3.384.769-.111L6.521,7.863Zm-.205-.974A.453.453,0,0,0,6,6.828a.524.524,0,0,0-.291.145.347.347,0,0,0-.094.3.314.314,0,0,0,.179.256.5.5,0,0,0,.316.06A.524.524,0,0,0,6.4,7.444.338.338,0,0,0,6.5,7.153a.327.327,0,0,0-.179-.265ZM21.229,33.929l-.855,1.043.855,1.051.88-1.077-.88-1.017Zm0,0-.855,1.043.855,1.051.88-1.077-.88-1.017Zm6.777-1.2a.7.7,0,0,1-.077-.017,3.081,3.081,0,0,1-.82-.316,3.019,3.019,0,0,1-.718-.641,3.311,3.311,0,0,1-.462-.855L19.495,14.255H18.4q-1.372,3.525-3.128,8.068-1.756,4.525-3.213,8.162a4.914,4.914,0,0,1-.581,1.111,3.633,3.633,0,0,1-.846.769,2.871,2.871,0,0,1-.872.35,5.227,5.227,0,0,1-.889.154v.47H15.05a2.062,2.062,0,0,1,.427.179,1.268,1.268,0,0,1,.547.513,1.554,1.554,0,0,1,.137.684v9.846a4.24,4.24,0,0,0,.4,1.8,4.513,4.513,0,0,0,1.188,1.53,5.814,5.814,0,0,0,1.974,1.06,8.352,8.352,0,0,0,2.675.393,7.629,7.629,0,0,0,1.966-.273,6.381,6.381,0,0,0,1.957-.906,5.1,5.1,0,0,0,1.513-1.684,4.706,4.706,0,0,0,.573-2.4V36.844a11.975,11.975,0,0,1,.154-2.068,1.592,1.592,0,0,1,.556-1.111,2.806,2.806,0,0,1,1.034-.385,6.111,6.111,0,0,1,.966-.137v-.41H28.007Zm-9.623-14.2,2.923,7.5H15.5l2.88-7.5Zm8.854,25.306a5.126,5.126,0,0,1-.2,1.393,4.159,4.159,0,0,1-.684,1.325,3.617,3.617,0,0,1-1.376,1.077,5.21,5.21,0,0,1-2.162.41,4.809,4.809,0,0,1-2.162-.41,3.479,3.479,0,0,1-1.248-1.06,3.661,3.661,0,0,1-.581-1.367,7.722,7.722,0,0,1-.145-1.4V34.6a1.851,1.851,0,0,1,.137-.718.808.808,0,0,1,.53-.47c.137-.043.342-.094.607-.154v-.538H15.033a6.939,6.939,0,0,1-.829-.214c-.564-.205-.855-.487-.855-.846a4.575,4.575,0,0,1,.068-.6,8.576,8.576,0,0,1,.248-.949c.128-.4.273-.838.427-1.308s.359-1.026.615-1.658h6.777l1.6,4.325a1.022,1.022,0,0,1,.085.316,1.7,1.7,0,0,1,.026.3c0,.2-.231.367-.7.5a8.126,8.126,0,0,1-1.761.273v.47h4.641a3.124,3.124,0,0,1,1.12.453,1.76,1.76,0,0,1,.556,1.085,10.431,10.431,0,0,1,.188,2.128v6.829Zm-6.863-8.863.855,1.051.88-1.077-.88-1.017-.855,1.043Zm.855-1.043-.855,1.043.855,1.051.88-1.077-.88-1.017Zm0,0-.855,1.043.855,1.051.88-1.077-.88-1.017ZM6.316,6.888A.453.453,0,0,0,6,6.828a.524.524,0,0,0-.291.145.347.347,0,0,0-.094.3.314.314,0,0,0,.179.256.5.5,0,0,0,.316.06A.524.524,0,0,0,6.4,7.444.338.338,0,0,0,6.5,7.153a.327.327,0,0,0-.179-.265Zm.205.974-.769.111.487,3.384.769-.111Zm2.684,1a1.661,1.661,0,0,1-.581-.051.3.3,0,0,1-.214-.273.326.326,0,0,1,.154-.291A.816.816,0,0,1,9,8.093a1.337,1.337,0,0,1,.453.026.842.842,0,0,1,.376.171l.444-.47a1.563,1.563,0,0,0-.615-.342,2.029,2.029,0,0,0-.752-.034,1.694,1.694,0,0,0-.949.385.875.875,0,0,0-.325.8.884.884,0,0,0,.154.479.851.851,0,0,0,.35.273,2.083,2.083,0,0,0,.453.12c.179.017.367.026.547.026a1.238,1.238,0,0,1,.556.077.326.326,0,0,1,.205.3.34.34,0,0,1-.162.316,1.108,1.108,0,0,1-.5.171,1.589,1.589,0,0,1-.6-.06,1.244,1.244,0,0,1-.521-.308l-.41.521A1.406,1.406,0,0,0,8.4,11a2.407,2.407,0,0,0,.923.077,2.5,2.5,0,0,0,.709-.2,1.207,1.207,0,0,0,.5-.427.993.993,0,0,0,.145-.641C10.6,9.153,10.111,8.837,9.2,8.863Zm4.786-1.051-.043-.684-2.914.214.043.675,1.068-.077.2,2.735.778-.06-.2-2.726Zm2.521-.786-.855.034L14.2,10.538l.846-.034.231-.6,1.8-.068h0l.273.581.846-.034L16.5,7.025Zm-.957,2.2.556-1.41h.009l.65,1.367-1.214.043Zm5.709-2.248V8.119L21.3,9.2,19.537,6.965h-.675l-.017,3.419h.795V9.315L19.623,8.2l1.735,2.2h.675l.017-3.419h-.786ZM26.1,9.162a.756.756,0,0,0-.453-.419.705.705,0,0,0,.5-.675.791.791,0,0,0-.316-.709,1.5,1.5,0,0,0-.863-.273l-1.726-.077-.154,3.419,1.761.077c.752.034,1.2-.214,1.316-.744a.851.851,0,0,0-.06-.6ZM23.973,7.7l.966.043a.5.5,0,0,1,.325.111.307.307,0,0,1,.1.256c-.009.214-.162.316-.47.3l-.957-.043.034-.667Zm.872,2.137-.957-.043L23.922,9l.957.043a.581.581,0,0,1,.385.128.365.365,0,0,1,.12.3c-.017.256-.2.385-.538.367Zm4.82-2.41L29.5,9.333c-.051.564-.316.846-.8.838a.9.9,0,0,1-.214-.017.816.816,0,0,1-.632-.966l.162-1.906-.778-.068-.162,1.906a1.5,1.5,0,0,0,.376,1.239,1.745,1.745,0,0,0,1.179.487,1.583,1.583,0,0,0,1.145-.333,1.612,1.612,0,0,0,.5-1.12l.162-1.9-.769-.068Zm2.325,2.983.342-2.7-.778-.094-.436,3.393,2.521.325.094-.692-1.743-.231Zm0,0,.342-2.7-.778-.094-.436,3.393,2.521.325.094-.692-1.743-.231Zm-10.76,23.52-.855,1.043.855,1.051.88-1.077-.88-1.017Zm0,0-.855,1.043.855,1.051.88-1.077-.88-1.017Zm6.777-1.2a.7.7,0,0,1-.077-.017,3.081,3.081,0,0,1-.82-.316,3.019,3.019,0,0,1-.718-.641,3.311,3.311,0,0,1-.462-.855L19.495,14.255H18.4q-1.372,3.525-3.128,8.068-1.756,4.525-3.213,8.162a4.914,4.914,0,0,1-.581,1.111,3.633,3.633,0,0,1-.846.769,2.871,2.871,0,0,1-.872.35,5.227,5.227,0,0,1-.889.154v.47H15.05a2.062,2.062,0,0,1,.427.179,1.268,1.268,0,0,1,.547.513,1.554,1.554,0,0,1,.137.684v9.846a4.24,4.24,0,0,0,.4,1.8,4.513,4.513,0,0,0,1.188,1.53,5.814,5.814,0,0,0,1.974,1.06,8.352,8.352,0,0,0,2.675.393,7.629,7.629,0,0,0,1.966-.273,6.381,6.381,0,0,0,1.957-.906,5.1,5.1,0,0,0,1.513-1.684,4.706,4.706,0,0,0,.573-2.4V36.844a11.975,11.975,0,0,1,.154-2.068,1.592,1.592,0,0,1,.556-1.111,2.806,2.806,0,0,1,1.034-.385,6.111,6.111,0,0,1,.966-.137v-.41H28.007Zm-9.623-14.2,2.923,7.5H15.5l2.88-7.5Zm8.854,25.306a5.126,5.126,0,0,1-.2,1.393,4.159,4.159,0,0,1-.684,1.325,3.617,3.617,0,0,1-1.376,1.077,5.21,5.21,0,0,1-2.162.41,4.809,4.809,0,0,1-2.162-.41,3.479,3.479,0,0,1-1.248-1.06,3.661,3.661,0,0,1-.581-1.367,7.722,7.722,0,0,1-.145-1.4V34.6a1.851,1.851,0,0,1,.137-.718.808.808,0,0,1,.53-.47c.137-.043.342-.094.607-.154v-.538H15.033a6.939,6.939,0,0,1-.829-.214c-.564-.205-.855-.487-.855-.846a4.575,4.575,0,0,1,.068-.6,8.576,8.576,0,0,1,.248-.949c.128-.4.273-.838.427-1.308s.359-1.026.615-1.658h6.777l1.6,4.325a1.022,1.022,0,0,1,.085.316,1.7,1.7,0,0,1,.026.3c0,.2-.231.367-.7.5a8.126,8.126,0,0,1-1.761.273v.47h4.641a3.124,3.124,0,0,1,1.12.453,1.76,1.76,0,0,1,.556,1.085,10.431,10.431,0,0,1,.188,2.128v6.829Zm-6.863-8.863.855,1.051.88-1.077-.88-1.017-.855,1.043Zm.855-1.043-.855,1.043.855,1.051.88-1.077-.88-1.017Zm0,0-.855,1.043.855,1.051.88-1.077-.88-1.017Zm8.435-26.5L29.5,9.333c-.051.564-.316.846-.8.838a.9.9,0,0,1-.214-.017.816.816,0,0,1-.632-.966l.162-1.906-.778-.068-.162,1.906a1.5,1.5,0,0,0,.376,1.239,1.745,1.745,0,0,0,1.179.487,1.583,1.583,0,0,0,1.145-.333,1.612,1.612,0,0,0,.5-1.12l.162-1.9-.769-.068ZM26.1,9.162a.756.756,0,0,0-.453-.419.705.705,0,0,0,.5-.675.791.791,0,0,0-.316-.709,1.5,1.5,0,0,0-.863-.273l-1.726-.077-.154,3.419,1.761.077c.752.034,1.2-.214,1.316-.744a.851.851,0,0,0-.06-.6ZM23.973,7.7l.966.043a.5.5,0,0,1,.325.111.307.307,0,0,1,.1.256c-.009.214-.162.316-.47.3l-.957-.043.034-.667Zm.872,2.137-.957-.043L23.922,9l.957.043a.581.581,0,0,1,.385.128.365.365,0,0,1,.12.3c-.017.256-.2.385-.538.367ZM21.264,6.974V8.119L21.3,9.2,19.537,6.965h-.675l-.017,3.419h.795V9.315L19.623,8.2l1.735,2.2h.675l.017-3.419h-.786Zm-4.752.051-.855.034L14.2,10.538l.846-.034.231-.6,1.8-.068h0l.273.581.846-.034L16.5,7.025Zm-.957,2.2.556-1.41h.009l.65,1.367-1.214.043Zm-1.564-1.41-.043-.684-2.914.214.043.675,1.068-.077.2,2.735.778-.06-.2-2.726,1.068-.077ZM9.2,8.863a1.661,1.661,0,0,1-.581-.051.3.3,0,0,1-.214-.273.326.326,0,0,1,.154-.291A.816.816,0,0,1,9,8.093a1.337,1.337,0,0,1,.453.026.842.842,0,0,1,.376.171l.444-.47a1.563,1.563,0,0,0-.615-.342,2.029,2.029,0,0,0-.752-.034,1.694,1.694,0,0,0-.949.385.875.875,0,0,0-.325.8.884.884,0,0,0,.154.479.851.851,0,0,0,.35.273,2.083,2.083,0,0,0,.453.12c.179.017.367.026.547.026a1.238,1.238,0,0,1,.556.077.326.326,0,0,1,.205.3.34.34,0,0,1-.162.316,1.108,1.108,0,0,1-.5.171,1.589,1.589,0,0,1-.6-.06,1.244,1.244,0,0,1-.521-.308l-.41.521A1.406,1.406,0,0,0,8.4,11a2.407,2.407,0,0,0,.923.077,2.5,2.5,0,0,0,.709-.2,1.207,1.207,0,0,0,.5-.427.993.993,0,0,0,.145-.641c-.077-.658-.564-.974-1.47-.949Zm-2.684-1-.769.111.487,3.384.769-.111L6.521,7.863Zm-.205-.974A.453.453,0,0,0,6,6.828a.524.524,0,0,0-.291.145.347.347,0,0,0-.094.3.314.314,0,0,0,.179.256.5.5,0,0,0,.316.06A.524.524,0,0,0,6.4,7.444.338.338,0,0,0,6.5,7.153a.327.327,0,0,0-.179-.265Zm0,0A.453.453,0,0,0,6,6.828a.524.524,0,0,0-.291.145.347.347,0,0,0-.094.3.314.314,0,0,0,.179.256.5.5,0,0,0,.316.06A.524.524,0,0,0,6.4,7.444.338.338,0,0,0,6.5,7.153a.327.327,0,0,0-.179-.265Zm.205.974-.769.111.487,3.384.769-.111L6.521,7.863Zm2.684,1a1.661,1.661,0,0,1-.581-.051.3.3,0,0,1-.214-.273.326.326,0,0,1,.154-.291A.816.816,0,0,1,9,8.093a1.337,1.337,0,0,1,.453.026.842.842,0,0,1,.376.171l.444-.47a1.563,1.563,0,0,0-.615-.342,2.029,2.029,0,0,0-.752-.034,1.694,1.694,0,0,0-.949.385.875.875,0,0,0-.325.8.884.884,0,0,0,.154.479.851.851,0,0,0,.35.273,2.083,2.083,0,0,0,.453.12c.179.017.367.026.547.026a1.238,1.238,0,0,1,.556.077.326.326,0,0,1,.205.3.34.34,0,0,1-.162.316,1.108,1.108,0,0,1-.5.171,1.589,1.589,0,0,1-.6-.06,1.244,1.244,0,0,1-.521-.308l-.41.521A1.406,1.406,0,0,0,8.4,11a2.407,2.407,0,0,0,.923.077,2.5,2.5,0,0,0,.709-.2,1.207,1.207,0,0,0,.5-.427.993.993,0,0,0,.145-.641c-.077-.658-.564-.974-1.47-.949Zm4.786-1.051-.043-.684-2.914.214.043.675,1.068-.077.2,2.735.778-.06-.2-2.726Zm2.521-.786-.855.034L14.2,10.538l.846-.034.231-.6,1.8-.068h0l.273.581.846-.034L16.5,7.025Zm-.957,2.2.556-1.41h.009l.65,1.367-1.214.043Zm5.709-2.248V8.119L21.3,9.2,19.537,6.965h-.675l-.017,3.419h.795V9.315L19.623,8.2l1.735,2.2h.675l.017-3.419h-.786ZM26.1,9.162a.756.756,0,0,0-.453-.419.705.705,0,0,0,.5-.675.791.791,0,0,0-.316-.709,1.5,1.5,0,0,0-.863-.273l-1.726-.077-.154,3.419,1.761.077c.752.034,1.2-.214,1.316-.744a.851.851,0,0,0-.06-.6ZM23.973,7.7l.966.043a.5.5,0,0,1,.325.111.307.307,0,0,1,.1.256c-.009.214-.162.316-.47.3l-.957-.043.034-.667Zm.872,2.137-.957-.043L23.922,9l.957.043a.581.581,0,0,1,.385.128.365.365,0,0,1,.12.3c-.017.256-.2.385-.538.367Zm4.82-2.41L29.5,9.333c-.051.564-.316.846-.8.838a.9.9,0,0,1-.214-.017.816.816,0,0,1-.632-.966l.162-1.906-.778-.068-.162,1.906a1.5,1.5,0,0,0,.376,1.239,1.745,1.745,0,0,0,1.179.487,1.583,1.583,0,0,0,1.145-.333,1.612,1.612,0,0,0,.5-1.12l.162-1.9-.769-.068Zm2.325,2.983.342-2.7-.778-.094-.436,3.393,2.521.325.094-.692-1.743-.231Zm0,0,.342-2.7-.778-.094-.436,3.393,2.521.325.094-.692-1.743-.231ZM29.665,7.427,29.5,9.333c-.051.564-.316.846-.8.838a.9.9,0,0,1-.214-.017.816.816,0,0,1-.632-.966l.162-1.906-.778-.068-.162,1.906a1.5,1.5,0,0,0,.376,1.239,1.745,1.745,0,0,0,1.179.487,1.583,1.583,0,0,0,1.145-.333,1.612,1.612,0,0,0,.5-1.12l.162-1.9-.769-.068ZM26.1,9.162a.756.756,0,0,0-.453-.419.705.705,0,0,0,.5-.675.791.791,0,0,0-.316-.709,1.5,1.5,0,0,0-.863-.273l-1.726-.077-.154,3.419,1.761.077c.752.034,1.2-.214,1.316-.744a.851.851,0,0,0-.06-.6ZM23.973,7.7l.966.043a.5.5,0,0,1,.325.111.307.307,0,0,1,.1.256c-.009.214-.162.316-.47.3l-.957-.043.034-.667Zm.872,2.137-.957-.043L23.922,9l.957.043a.581.581,0,0,1,.385.128.365.365,0,0,1,.12.3c-.017.256-.2.385-.538.367ZM21.264,6.974V8.119L21.3,9.2,19.537,6.965h-.675l-.017,3.419h.795V9.315L19.623,8.2l1.735,2.2h.675l.017-3.419h-.786Zm-4.752.051-.855.034L14.2,10.538l.846-.034.231-.6,1.8-.068h0l.273.581.846-.034L16.5,7.025Zm-.957,2.2.556-1.41h.009l.65,1.367-1.214.043Zm-1.564-1.41-.043-.684-2.914.214.043.675,1.068-.077.2,2.735.778-.06-.2-2.726,1.068-.077ZM9.2,8.863a1.661,1.661,0,0,1-.581-.051.3.3,0,0,1-.214-.273.326.326,0,0,1,.154-.291A.816.816,0,0,1,9,8.093a1.337,1.337,0,0,1,.453.026.842.842,0,0,1,.376.171l.444-.47a1.563,1.563,0,0,0-.615-.342,2.029,2.029,0,0,0-.752-.034,1.694,1.694,0,0,0-.949.385.875.875,0,0,0-.325.8.884.884,0,0,0,.154.479.851.851,0,0,0,.35.273,2.083,2.083,0,0,0,.453.12c.179.017.367.026.547.026a1.238,1.238,0,0,1,.556.077.326.326,0,0,1,.205.3.34.34,0,0,1-.162.316,1.108,1.108,0,0,1-.5.171,1.589,1.589,0,0,1-.6-.06,1.244,1.244,0,0,1-.521-.308l-.41.521A1.406,1.406,0,0,0,8.4,11a2.407,2.407,0,0,0,.923.077,2.5,2.5,0,0,0,.709-.2,1.207,1.207,0,0,0,.5-.427.993.993,0,0,0,.145-.641c-.077-.658-.564-.974-1.47-.949Zm-2.684-1-.769.111.487,3.384.769-.111L6.521,7.863Zm-.205-.974A.453.453,0,0,0,6,6.828a.524.524,0,0,0-.291.145.347.347,0,0,0-.094.3.314.314,0,0,0,.179.256.5.5,0,0,0,.316.06A.524.524,0,0,0,6.4,7.444.338.338,0,0,0,6.5,7.153a.327.327,0,0,0-.179-.265Zm0,0A.453.453,0,0,0,6,6.828a.524.524,0,0,0-.291.145.347.347,0,0,0-.094.3.314.314,0,0,0,.179.256.5.5,0,0,0,.316.06A.524.524,0,0,0,6.4,7.444.338.338,0,0,0,6.5,7.153a.327.327,0,0,0-.179-.265Zm.205.974-.769.111.487,3.384.769-.111L6.521,7.863Zm2.684,1a1.661,1.661,0,0,1-.581-.051.3.3,0,0,1-.214-.273.326.326,0,0,1,.154-.291A.816.816,0,0,1,9,8.093a1.337,1.337,0,0,1,.453.026.842.842,0,0,1,.376.171l.444-.47a1.563,1.563,0,0,0-.615-.342,2.029,2.029,0,0,0-.752-.034,1.694,1.694,0,0,0-.949.385.875.875,0,0,0-.325.8.884.884,0,0,0,.154.479.851.851,0,0,0,.35.273,2.083,2.083,0,0,0,.453.12c.179.017.367.026.547.026a1.238,1.238,0,0,1,.556.077.326.326,0,0,1,.205.3.34.34,0,0,1-.162.316,1.108,1.108,0,0,1-.5.171,1.589,1.589,0,0,1-.6-.06,1.244,1.244,0,0,1-.521-.308l-.41.521A1.406,1.406,0,0,0,8.4,11a2.407,2.407,0,0,0,.923.077,2.5,2.5,0,0,0,.709-.2,1.207,1.207,0,0,0,.5-.427.993.993,0,0,0,.145-.641c-.077-.658-.564-.974-1.47-.949Zm4.786-1.051-.043-.684-2.914.214.043.675,1.068-.077.2,2.735.778-.06-.2-2.726Zm2.521-.786-.855.034L14.2,10.538l.846-.034.231-.6,1.8-.068h0l.273.581.846-.034L16.5,7.025Zm-.957,2.2.556-1.41h.009l.65,1.367-1.214.043Zm5.709-2.248V8.119L21.3,9.2,19.537,6.965h-.675l-.017,3.419h.795V9.315L19.623,8.2l1.735,2.2h.675l.017-3.419h-.786ZM26.1,9.162a.756.756,0,0,0-.453-.419.705.705,0,0,0,.5-.675.791.791,0,0,0-.316-.709,1.5,1.5,0,0,0-.863-.273l-1.726-.077-.154,3.419,1.761.077c.752.034,1.2-.214,1.316-.744a.851.851,0,0,0-.06-.6ZM23.973,7.7l.966.043a.5.5,0,0,1,.325.111.307.307,0,0,1,.1.256c-.009.214-.162.316-.47.3l-.957-.043.034-.667Zm.872,2.137-.957-.043L23.922,9l.957.043a.581.581,0,0,1,.385.128.365.365,0,0,1,.12.3c-.017.256-.2.385-.538.367Zm4.82-2.41L29.5,9.333c-.051.564-.316.846-.8.838a.9.9,0,0,1-.214-.017.816.816,0,0,1-.632-.966l.162-1.906-.778-.068-.162,1.906a1.5,1.5,0,0,0,.376,1.239,1.745,1.745,0,0,0,1.179.487,1.583,1.583,0,0,0,1.145-.333,1.612,1.612,0,0,0,.5-1.12l.162-1.9-.769-.068Zm2.325,2.983.342-2.7-.778-.094-.436,3.393,2.521.325.094-.692-1.743-.231Zm0,0,.342-2.7-.778-.094-.436,3.393,2.521.325.094-.692-1.743-.231ZM29.665,7.427,29.5,9.333c-.051.564-.316.846-.8.838a.9.9,0,0,1-.214-.017.816.816,0,0,1-.632-.966l.162-1.906-.778-.068-.162,1.906a1.5,1.5,0,0,0,.376,1.239,1.745,1.745,0,0,0,1.179.487,1.583,1.583,0,0,0,1.145-.333,1.612,1.612,0,0,0,.5-1.12l.162-1.9-.769-.068ZM26.1,9.162a.756.756,0,0,0-.453-.419.705.705,0,0,0,.5-.675.791.791,0,0,0-.316-.709,1.5,1.5,0,0,0-.863-.273l-1.726-.077-.154,3.419,1.761.077c.752.034,1.2-.214,1.316-.744a.851.851,0,0,0-.06-.6ZM23.973,7.7l.966.043a.5.5,0,0,1,.325.111.307.307,0,0,1,.1.256c-.009.214-.162.316-.47.3l-.957-.043.034-.667Zm.872,2.137-.957-.043L23.922,9l.957.043a.581.581,0,0,1,.385.128.365.365,0,0,1,.12.3c-.017.256-.2.385-.538.367ZM21.264,6.974V8.119L21.3,9.2,19.537,6.965h-.675l-.017,3.419h.795V9.315L19.623,8.2l1.735,2.2h.675l.017-3.419h-.786Zm-4.752.051-.855.034L14.2,10.538l.846-.034.231-.6,1.8-.068h0l.273.581.846-.034L16.5,7.025Zm-.957,2.2.556-1.41h.009l.65,1.367Zm-1.564-1.41-.043-.684-2.914.214.043.675,1.068-.077.2,2.735.778-.06-.2-2.726,1.068-.077ZM9.2,8.863a1.661,1.661,0,0,1-.581-.051.3.3,0,0,1-.214-.273.326.326,0,0,1,.154-.291A.816.816,0,0,1,9,8.093a1.337,1.337,0,0,1,.453.026.842.842,0,0,1,.376.171l.444-.47a1.563,1.563,0,0,0-.615-.342,2.029,2.029,0,0,0-.752-.034,1.694,1.694,0,0,0-.949.385.875.875,0,0,0-.325.8.884.884,0,0,0,.154.479.851.851,0,0,0,.35.273,2.083,2.083,0,0,0,.453.12c.179.017.367.026.547.026a1.238,1.238,0,0,1,.556.077.326.326,0,0,1,.205.3.34.34,0,0,1-.162.316,1.108,1.108,0,0,1-.5.171,1.589,1.589,0,0,1-.6-.06,1.244,1.244,0,0,1-.521-.308l-.41.521A1.406,1.406,0,0,0,8.4,11a2.407,2.407,0,0,0,.923.077,2.5,2.5,0,0,0,.709-.2,1.207,1.207,0,0,0,.5-.427.993.993,0,0,0,.145-.641c-.077-.658-.564-.974-1.47-.949Zm-2.684-1-.769.111.487,3.384.769-.111L6.521,7.863Zm-.205-.974A.453.453,0,0,0,6,6.828a.524.524,0,0,0-.291.145.347.347,0,0,0-.094.3.314.314,0,0,0,.179.256.5.5,0,0,0,.316.06A.524.524,0,0,0,6.4,7.444.338.338,0,0,0,6.5,7.153a.327.327,0,0,0-.179-.265Z" transform="translate(20 19.001)" fill="#fff"/>
  </g>
</svg>
