<svg id="Group_39896" data-name="Group 39896" xmlns="http://www.w3.org/2000/svg" width="77" height="77" viewBox="0 0 77 77">
  <circle id="Ellipse_35" data-name="Ellipse 35" cx="38.5" cy="38.5" r="38.5" fill="#000c7a"/>
  <g id="f" transform="translate(23 17)">
    <path id="Path_34851" data-name="Path 34851" d="M4.261,2.46l.811.765L3.875,5.41,2.05,3.7l.536-.981Z" transform="translate(-0.709 -0.85)" fill="#fff"/>
    <path id="Path_34852" data-name="Path 34852" d="M10.546,1.96l.752.824L9.951,4.878,8.25,3.046l.6-.942Z" transform="translate(-2.853 -0.677)" fill="#fff"/>
    <path id="Path_34853" data-name="Path 34853" d="M16.812,1.65l.713.863L16.066,4.535l-1.6-1.917.648-.909Z" transform="translate(-5.004 -0.57)" fill="#fff"/>
    <path id="Path_34854" data-name="Path 34854" d="M22.4,4.62l-1.871-2.4.831-1.079h2.067l.831,1.079Z" transform="translate(-7.1 -0.393)" fill="#fff"/>
    <path id="Path_34855" data-name="Path 34855" d="M29.289,4.535,27.83,2.513l.713-.863,1.694.059.654.909Z" transform="translate(-9.625 -0.57)" fill="#fff"/>
    <path id="Path_34856" data-name="Path 34856" d="M35.408,4.878,34.06,2.784l.759-.824,1.688.144.6.942Z" transform="translate(-11.779 -0.677)" fill="#fff"/>
    <path id="Path_34857" data-name="Path 34857" d="M41.5,5.61,40.3,3.425l.811-.765,1.675.262.536.988Z" transform="translate(-13.937 -0.919)" fill="#fff"/>
    <path id="Path_34858" data-name="Path 34858" d="M4.834,5.272a.347.347,0,0,0-.242-.046.4.4,0,0,0-.222.111.265.265,0,0,0-.072.229.24.24,0,0,0,.137.2.386.386,0,0,0,.242.046A.4.4,0,0,0,4.9,5.7a.258.258,0,0,0,.072-.222.251.251,0,0,0-.137-.2Zm.157.746L4.4,6.1l.373,2.59.589-.085Zm2.054.765A1.271,1.271,0,0,1,6.6,6.744a.232.232,0,0,1-.164-.209.249.249,0,0,1,.118-.222.624.624,0,0,1,.334-.118,1.023,1.023,0,0,1,.347.02.644.644,0,0,1,.288.131l.34-.36a1.2,1.2,0,0,0-.471-.262A1.553,1.553,0,0,0,6.816,5.7a1.3,1.3,0,0,0-.726.294.669.669,0,0,0-.249.615.676.676,0,0,0,.118.366.652.652,0,0,0,.268.209,1.594,1.594,0,0,0,.347.092c.137.013.281.02.419.02a.947.947,0,0,1,.425.059.249.249,0,0,1,.157.229.26.26,0,0,1-.124.242.848.848,0,0,1-.379.131,1.216,1.216,0,0,1-.458-.046.952.952,0,0,1-.4-.235l-.314.4a1.076,1.076,0,0,0,.53.347,1.842,1.842,0,0,0,.706.059,1.911,1.911,0,0,0,.543-.15A.924.924,0,0,0,8.059,8a.76.76,0,0,0,.111-.491C8.112,7.006,7.739,6.764,7.045,6.783Zm3.663-.8-.033-.523-2.231.164.033.517L9.3,6.077l.15,2.093.6-.046-.15-2.087Zm1.93-.6-.654.026L10.872,8.065l.648-.026.177-.458,1.38-.052h0l.209.445.648-.026-1.3-2.571Zm-.733,1.681.425-1.079h.007l.5,1.047-.929.033Zm4.37-1.72v.877l.026.824L14.954,5.331h-.517l-.013,2.617h.608V7.13l-.013-.857,1.328,1.681h.517l.013-2.617h-.6Zm3.7,1.675a.579.579,0,0,0-.347-.321.54.54,0,0,0,.379-.517.606.606,0,0,0-.242-.543,1.148,1.148,0,0,0-.661-.209l-1.321-.059L17.669,7.98l1.348.059c.576.026.916-.164,1.007-.569a.652.652,0,0,0-.046-.458ZM18.349,5.894l.739.033a.382.382,0,0,1,.249.085.235.235,0,0,1,.078.2c-.007.164-.124.242-.36.229L18.323,6.4l.026-.51Zm.667,1.635L18.284,7.5l.026-.608.733.033a.445.445,0,0,1,.294.1.279.279,0,0,1,.092.229c-.013.2-.15.294-.412.281Zm3.689-1.845-.124,1.459c-.039.432-.242.648-.615.641a.69.69,0,0,1-.164-.013.625.625,0,0,1-.484-.739l.124-1.459-.6-.052-.124,1.459a1.148,1.148,0,0,0,.288.949,1.336,1.336,0,0,0,.9.373,1.211,1.211,0,0,0,.877-.255,1.234,1.234,0,0,0,.379-.857l.124-1.452-.589-.052Zm1.779,2.283L24.747,5.9l-.6-.072-.334,2.6,1.93.249.072-.53-1.334-.177Zm0,0L24.747,5.9l-.6-.072-.334,2.6,1.93.249.072-.53-1.334-.177ZM22.706,5.684l-.124,1.459c-.039.432-.242.648-.615.641a.69.69,0,0,1-.164-.013.625.625,0,0,1-.484-.739l.124-1.459-.6-.052-.124,1.459a1.148,1.148,0,0,0,.288.949,1.336,1.336,0,0,0,.9.373,1.211,1.211,0,0,0,.877-.255,1.234,1.234,0,0,0,.379-.857l.124-1.452-.589-.052ZM19.978,7.012a.579.579,0,0,0-.347-.321.54.54,0,0,0,.379-.517.606.606,0,0,0-.242-.543,1.148,1.148,0,0,0-.661-.209l-1.321-.059L17.669,7.98l1.348.059c.576.026.916-.164,1.007-.569a.652.652,0,0,0-.046-.458ZM18.349,5.894l.739.033a.382.382,0,0,1,.249.085.235.235,0,0,1,.078.2c-.007.164-.124.242-.36.229L18.323,6.4l.026-.51Zm.667,1.635L18.284,7.5l.026-.608.733.033a.445.445,0,0,1,.294.1.279.279,0,0,1,.092.229c-.013.2-.15.294-.412.281ZM16.276,5.338v.877l.026.824L14.954,5.331h-.517l-.013,2.617h.608V7.13l-.013-.857,1.328,1.681h.517l.013-2.617h-.6Zm-3.637.039-.654.026L10.872,8.065l.648-.026.177-.458,1.38-.052h0l.209.445.648-.026-1.3-2.571Zm-.733,1.681.425-1.079h.007l.5,1.047-.929.033Zm-1.2-1.079-.033-.523-2.231.164.033.517L9.3,6.077l.15,2.093.6-.046-.15-2.087.818-.059Zm-3.663.8A1.271,1.271,0,0,1,6.6,6.744a.232.232,0,0,1-.164-.209.249.249,0,0,1,.118-.222.624.624,0,0,1,.334-.118,1.023,1.023,0,0,1,.347.02.644.644,0,0,1,.288.131l.34-.36a1.2,1.2,0,0,0-.471-.262A1.553,1.553,0,0,0,6.816,5.7a1.3,1.3,0,0,0-.726.294.669.669,0,0,0-.249.615.676.676,0,0,0,.118.366.652.652,0,0,0,.268.209,1.6,1.6,0,0,0,.347.092c.137.013.281.02.419.02a.947.947,0,0,1,.425.059.249.249,0,0,1,.157.229.26.26,0,0,1-.124.242.848.848,0,0,1-.379.131,1.216,1.216,0,0,1-.458-.046.952.952,0,0,1-.4-.235l-.314.4a1.076,1.076,0,0,0,.53.347,1.842,1.842,0,0,0,.706.059,1.911,1.911,0,0,0,.543-.15A.924.924,0,0,0,8.059,8a.76.76,0,0,0,.111-.491c-.059-.5-.432-.746-1.125-.726ZM4.991,6.018,4.4,6.1l.373,2.59.589-.085-.373-2.59Zm-.157-.746a.347.347,0,0,0-.242-.046.4.4,0,0,0-.222.111.265.265,0,0,0-.072.229.24.24,0,0,0,.137.2.386.386,0,0,0,.242.046A.4.4,0,0,0,4.9,5.7a.258.258,0,0,0,.072-.222.251.251,0,0,0-.137-.2Zm0,0a.347.347,0,0,0-.242-.046.4.4,0,0,0-.222.111.265.265,0,0,0-.072.229.24.24,0,0,0,.137.2.386.386,0,0,0,.242.046A.4.4,0,0,0,4.9,5.7a.258.258,0,0,0,.072-.222.251.251,0,0,0-.137-.2Zm.157.746L4.4,6.1l.373,2.59.589-.085-.373-2.59Zm2.054.765A1.271,1.271,0,0,1,6.6,6.744a.232.232,0,0,1-.164-.209.249.249,0,0,1,.118-.222.624.624,0,0,1,.334-.118,1.023,1.023,0,0,1,.347.02.644.644,0,0,1,.288.131l.34-.36a1.2,1.2,0,0,0-.471-.262A1.553,1.553,0,0,0,6.816,5.7a1.3,1.3,0,0,0-.726.294.669.669,0,0,0-.249.615.676.676,0,0,0,.118.366.652.652,0,0,0,.268.209,1.6,1.6,0,0,0,.347.092c.137.013.281.02.419.02a.947.947,0,0,1,.425.059.249.249,0,0,1,.157.229.26.26,0,0,1-.124.242.848.848,0,0,1-.379.131,1.216,1.216,0,0,1-.458-.046.952.952,0,0,1-.4-.235l-.314.4a1.076,1.076,0,0,0,.53.347,1.842,1.842,0,0,0,.706.059,1.911,1.911,0,0,0,.543-.15A.924.924,0,0,0,8.059,8a.76.76,0,0,0,.111-.491c-.059-.5-.432-.746-1.125-.726Zm3.663-.8-.033-.523-2.231.164.033.517L9.3,6.077l.15,2.093.6-.046-.15-2.087Zm1.93-.6-.654.026L10.872,8.065l.648-.026.177-.458,1.38-.052h0l.209.445.648-.026-1.3-2.571Zm-.733,1.681.425-1.079h.007l.5,1.047-.929.033Zm4.37-1.72v.877l.026.824L14.954,5.331h-.517l-.013,2.617h.608V7.13l-.013-.857,1.328,1.681h.517l.013-2.617h-.6Zm3.7,1.675a.579.579,0,0,0-.347-.321.54.54,0,0,0,.379-.517.606.606,0,0,0-.242-.543,1.148,1.148,0,0,0-.661-.209l-1.321-.059L17.669,7.98l1.348.059c.576.026.916-.164,1.007-.569a.652.652,0,0,0-.046-.458ZM18.349,5.894l.739.033a.382.382,0,0,1,.249.085.235.235,0,0,1,.078.2c-.007.164-.124.242-.36.229L18.323,6.4l.026-.51Zm.667,1.635L18.284,7.5l.026-.608.733.033a.445.445,0,0,1,.294.1.279.279,0,0,1,.092.229c-.013.2-.15.294-.412.281Zm3.689-1.845-.124,1.459c-.039.432-.242.648-.615.641a.69.69,0,0,1-.164-.013.625.625,0,0,1-.484-.739l.124-1.459-.6-.052-.124,1.459a1.148,1.148,0,0,0,.288.949,1.336,1.336,0,0,0,.9.373,1.211,1.211,0,0,0,.877-.255,1.234,1.234,0,0,0,.379-.857l.124-1.452-.589-.052Zm1.779,2.283L24.747,5.9l-.6-.072-.334,2.6,1.93.249.072-.53-1.334-.177Zm0,0L24.747,5.9l-.6-.072-.334,2.6,1.93.249.072-.53-1.334-.177ZM22.706,5.684l-.124,1.459c-.039.432-.242.648-.615.641a.69.69,0,0,1-.164-.013.625.625,0,0,1-.484-.739l.124-1.459-.6-.052-.124,1.459a1.148,1.148,0,0,0,.288.949,1.336,1.336,0,0,0,.9.373,1.211,1.211,0,0,0,.877-.255,1.234,1.234,0,0,0,.379-.857l.124-1.452-.589-.052ZM19.978,7.012a.579.579,0,0,0-.347-.321.54.54,0,0,0,.379-.517.606.606,0,0,0-.242-.543,1.148,1.148,0,0,0-.661-.209l-1.321-.059L17.669,7.98l1.348.059c.576.026.916-.164,1.007-.569a.652.652,0,0,0-.046-.458ZM18.349,5.894l.739.033a.382.382,0,0,1,.249.085.235.235,0,0,1,.078.2c-.007.164-.124.242-.36.229L18.323,6.4l.026-.51Zm.667,1.635L18.284,7.5l.026-.608.733.033a.445.445,0,0,1,.294.1.279.279,0,0,1,.092.229c-.013.2-.15.294-.412.281ZM16.276,5.338v.877l.026.824L14.954,5.331h-.517l-.013,2.617h.608V7.13l-.013-.857,1.328,1.681h.517l.013-2.617h-.6Zm-3.637.039-.654.026L10.872,8.065l.648-.026.177-.458,1.38-.052h0l.209.445.648-.026-1.3-2.571Zm-.733,1.681.425-1.079h.007l.5,1.047Zm-1.2-1.079-.033-.523-2.231.164.033.517L9.3,6.077l.15,2.093.6-.046-.15-2.087.818-.059Zm-3.663.8A1.271,1.271,0,0,1,6.6,6.744a.232.232,0,0,1-.164-.209.249.249,0,0,1,.118-.222.624.624,0,0,1,.334-.118,1.024,1.024,0,0,1,.347.02.644.644,0,0,1,.288.131l.34-.36a1.2,1.2,0,0,0-.471-.262A1.553,1.553,0,0,0,6.816,5.7a1.3,1.3,0,0,0-.726.294.669.669,0,0,0-.249.615.676.676,0,0,0,.118.366.652.652,0,0,0,.268.209,1.594,1.594,0,0,0,.347.092c.137.013.281.02.419.02a.947.947,0,0,1,.425.059.249.249,0,0,1,.157.229.26.26,0,0,1-.124.242.848.848,0,0,1-.379.131,1.216,1.216,0,0,1-.458-.046.952.952,0,0,1-.4-.235l-.314.4a1.076,1.076,0,0,0,.53.347,1.842,1.842,0,0,0,.706.059,1.911,1.911,0,0,0,.543-.15A.924.924,0,0,0,8.059,8a.76.76,0,0,0,.111-.491c-.059-.5-.432-.746-1.125-.726ZM4.991,6.018,4.4,6.1l.373,2.59.589-.085-.373-2.59Zm-.157-.746a.347.347,0,0,0-.242-.046.4.4,0,0,0-.222.111.265.265,0,0,0-.072.229.24.24,0,0,0,.137.2.386.386,0,0,0,.242.046A.4.4,0,0,0,4.9,5.7a.258.258,0,0,0,.072-.222.251.251,0,0,0-.137-.2Zm0,0a.347.347,0,0,0-.242-.046.4.4,0,0,0-.222.111.265.265,0,0,0-.072.229.24.24,0,0,0,.137.2.386.386,0,0,0,.242.046A.4.4,0,0,0,4.9,5.7a.258.258,0,0,0,.072-.222.251.251,0,0,0-.137-.2Zm.157.746L4.4,6.1l.373,2.59.589-.085-.373-2.59Zm2.054.765A1.271,1.271,0,0,1,6.6,6.744a.232.232,0,0,1-.164-.209.249.249,0,0,1,.118-.222.624.624,0,0,1,.334-.118,1.024,1.024,0,0,1,.347.02.644.644,0,0,1,.288.131l.34-.36a1.2,1.2,0,0,0-.471-.262A1.553,1.553,0,0,0,6.816,5.7a1.3,1.3,0,0,0-.726.294.669.669,0,0,0-.249.615.676.676,0,0,0,.118.366.652.652,0,0,0,.268.209,1.594,1.594,0,0,0,.347.092c.137.013.281.02.419.02a.947.947,0,0,1,.425.059.249.249,0,0,1,.157.229.26.26,0,0,1-.124.242.848.848,0,0,1-.379.131,1.216,1.216,0,0,1-.458-.046.952.952,0,0,1-.4-.235l-.314.4a1.076,1.076,0,0,0,.53.347,1.842,1.842,0,0,0,.706.059,1.911,1.911,0,0,0,.543-.15A.924.924,0,0,0,8.059,8a.76.76,0,0,0,.111-.491c-.059-.5-.432-.746-1.125-.726Zm3.663-.8-.033-.523-2.231.164.033.517L9.3,6.077l.15,2.093.6-.046-.15-2.087Zm1.93-.6-.654.026L10.872,8.065l.648-.026.177-.458,1.38-.052h0l.209.445.648-.026-1.3-2.571Zm-.733,1.681.425-1.079h.007l.5,1.047-.929.033Zm4.37-1.72v.877l.026.824L14.954,5.331h-.517l-.013,2.617h.608V7.13l-.013-.857,1.328,1.681h.517l.013-2.617h-.6Zm3.7,1.675a.579.579,0,0,0-.347-.321.54.54,0,0,0,.379-.517.606.606,0,0,0-.242-.543,1.148,1.148,0,0,0-.661-.209l-1.321-.059L17.669,7.98l1.348.059c.576.026.916-.164,1.007-.569a.652.652,0,0,0-.046-.458ZM18.349,5.894l.739.033a.382.382,0,0,1,.249.085.235.235,0,0,1,.078.2c-.007.164-.124.242-.36.229L18.323,6.4l.026-.51Zm.667,1.635L18.284,7.5l.026-.608.733.033a.445.445,0,0,1,.294.1.279.279,0,0,1,.092.229c-.013.2-.15.294-.412.281Zm3.689-1.845-.124,1.459c-.039.432-.242.648-.615.641a.69.69,0,0,1-.164-.013.625.625,0,0,1-.484-.739l.124-1.459-.6-.052-.124,1.459a1.148,1.148,0,0,0,.288.949,1.336,1.336,0,0,0,.9.373,1.211,1.211,0,0,0,.877-.255,1.234,1.234,0,0,0,.379-.857l.124-1.452-.589-.052ZM16.249,25.97l-.654.8.654.8.674-.824Zm0,0-.654.8.654.8.674-.824Zm5.187-.916a.532.532,0,0,1-.059-.013,2.359,2.359,0,0,1-.628-.242,2.311,2.311,0,0,1-.549-.491,2.534,2.534,0,0,1-.353-.654L14.921,10.911h-.837q-1.05,2.7-2.394,6.175T9.23,23.333a3.762,3.762,0,0,1-.445.85,2.781,2.781,0,0,1-.648.589,2.2,2.2,0,0,1-.667.268,4,4,0,0,1-.68.118v.36h4.73a1.578,1.578,0,0,1,.327.137.97.97,0,0,1,.419.392,1.19,1.19,0,0,1,.1.523v7.536a3.245,3.245,0,0,0,.307,1.38,3.455,3.455,0,0,0,.909,1.171,4.45,4.45,0,0,0,1.511.811,6.393,6.393,0,0,0,2.048.3,5.839,5.839,0,0,0,1.5-.209,4.884,4.884,0,0,0,1.5-.693,3.9,3.9,0,0,0,1.158-1.289,3.6,3.6,0,0,0,.438-1.838V28.2a9.166,9.166,0,0,1,.118-1.583,1.219,1.219,0,0,1,.425-.85,2.148,2.148,0,0,1,.792-.294,4.678,4.678,0,0,1,.739-.1v-.314H21.437ZM14.071,14.182l2.237,5.737H11.867l2.2-5.737Zm6.777,19.37a3.923,3.923,0,0,1-.15,1.066,3.183,3.183,0,0,1-.523,1.014,2.768,2.768,0,0,1-1.053.824,3.988,3.988,0,0,1-1.655.314,3.681,3.681,0,0,1-1.655-.314,2.663,2.663,0,0,1-.955-.811,2.8,2.8,0,0,1-.445-1.047,5.911,5.911,0,0,1-.111-1.073V26.487a1.417,1.417,0,0,1,.1-.549.619.619,0,0,1,.406-.36c.1-.033.262-.072.464-.118v-.412H11.507a5.312,5.312,0,0,1-.635-.164c-.432-.157-.654-.373-.654-.648a3.5,3.5,0,0,1,.052-.458,6.564,6.564,0,0,1,.19-.726c.1-.307.209-.641.327-1s.275-.785.471-1.269h5.187l1.223,3.31a.782.782,0,0,1,.065.242,1.3,1.3,0,0,1,.02.229c0,.15-.177.281-.536.386a6.22,6.22,0,0,1-1.348.209v.36h3.552a2.391,2.391,0,0,1,.857.347,1.347,1.347,0,0,1,.425.831,7.984,7.984,0,0,1,.144,1.629v5.227ZM15.6,26.768l.654.8.674-.824-.674-.778-.654.8Zm.654-.8-.654.8.654.8.674-.824-.674-.778Zm0,0-.654.8.654.8.674-.824-.674-.778Zm8.236-18L24.747,5.9l-.6-.072-.334,2.6,1.93.249.072-.53-1.334-.177Zm0,0L24.747,5.9l-.6-.072-.334,2.6,1.93.249.072-.53-1.334-.177ZM22.706,5.684l-.124,1.459c-.039.432-.242.648-.615.641a.69.69,0,0,1-.164-.013.625.625,0,0,1-.484-.739l.124-1.459-.6-.052-.124,1.459a1.148,1.148,0,0,0,.288.949,1.336,1.336,0,0,0,.9.373,1.211,1.211,0,0,0,.877-.255,1.234,1.234,0,0,0,.379-.857l.124-1.452-.589-.052ZM19.978,7.012a.579.579,0,0,0-.347-.321.54.54,0,0,0,.379-.517.606.606,0,0,0-.242-.543,1.148,1.148,0,0,0-.661-.209l-1.321-.059L17.669,7.98l1.348.059c.576.026.916-.164,1.007-.569a.652.652,0,0,0-.046-.458ZM18.349,5.894l.739.033a.382.382,0,0,1,.249.085.235.235,0,0,1,.078.2c-.007.164-.124.242-.36.229L18.323,6.4l.026-.51Zm.667,1.635L18.284,7.5l.026-.608.733.033a.445.445,0,0,1,.294.1.279.279,0,0,1,.092.229c-.013.2-.15.294-.412.281ZM16.276,5.338v.877l.026.824L14.954,5.331h-.517l-.013,2.617h.608V7.13l-.013-.857,1.328,1.681h.517l.013-2.617h-.6Zm-3.637.039-.654.026L10.872,8.065l.648-.026.177-.458,1.38-.052h0l.209.445.648-.026-1.3-2.571Zm-.733,1.681.425-1.079h.007l.5,1.047-.929.033Zm-1.2-1.079-.033-.523-2.231.164.033.517L9.3,6.077l.15,2.093.6-.046-.15-2.087.818-.059Zm-3.663.8A1.271,1.271,0,0,1,6.6,6.744a.232.232,0,0,1-.164-.209.249.249,0,0,1,.118-.222.624.624,0,0,1,.334-.118,1.023,1.023,0,0,1,.347.02.644.644,0,0,1,.288.131l.34-.36a1.2,1.2,0,0,0-.471-.262A1.553,1.553,0,0,0,6.816,5.7a1.3,1.3,0,0,0-.726.294.669.669,0,0,0-.249.615.676.676,0,0,0,.118.366.652.652,0,0,0,.268.209,1.594,1.594,0,0,0,.347.092c.137.013.281.02.419.02a.947.947,0,0,1,.425.059.249.249,0,0,1,.157.229.26.26,0,0,1-.124.242.848.848,0,0,1-.379.131,1.216,1.216,0,0,1-.458-.046.952.952,0,0,1-.4-.235l-.314.4a1.076,1.076,0,0,0,.53.347,1.842,1.842,0,0,0,.706.059,1.911,1.911,0,0,0,.543-.15A.924.924,0,0,0,8.059,8a.76.76,0,0,0,.111-.491c-.059-.5-.432-.746-1.125-.726ZM4.991,6.018,4.4,6.1l.373,2.59.589-.085-.373-2.59Zm-.157-.746a.347.347,0,0,0-.242-.046.4.4,0,0,0-.222.111.265.265,0,0,0-.072.229.24.24,0,0,0,.137.2.386.386,0,0,0,.242.046A.4.4,0,0,0,4.9,5.7a.258.258,0,0,0,.072-.222.251.251,0,0,0-.137-.2Zm11.415,20.7-.654.8.654.8.674-.824-.674-.778Zm0,0-.654.8.654.8.674-.824-.674-.778Zm5.187-.916a.532.532,0,0,1-.059-.013,2.359,2.359,0,0,1-.628-.242,2.311,2.311,0,0,1-.549-.491,2.534,2.534,0,0,1-.353-.654L14.921,10.911h-.837q-1.05,2.7-2.394,6.175T9.23,23.333a3.762,3.762,0,0,1-.445.85,2.781,2.781,0,0,1-.648.589,2.2,2.2,0,0,1-.667.268,4,4,0,0,1-.68.118v.36h4.73a1.579,1.579,0,0,1,.327.137.97.97,0,0,1,.419.392,1.19,1.19,0,0,1,.1.523v7.536a3.245,3.245,0,0,0,.307,1.38,3.455,3.455,0,0,0,.909,1.171,4.45,4.45,0,0,0,1.511.811,6.393,6.393,0,0,0,2.048.3,5.839,5.839,0,0,0,1.5-.209,4.884,4.884,0,0,0,1.5-.693,3.9,3.9,0,0,0,1.158-1.289,3.6,3.6,0,0,0,.438-1.838V28.2a9.166,9.166,0,0,1,.118-1.583,1.219,1.219,0,0,1,.425-.85,2.148,2.148,0,0,1,.792-.294,4.678,4.678,0,0,1,.739-.1v-.314H21.437ZM14.071,14.182l2.237,5.737H11.867l2.2-5.737Zm6.777,19.37a3.923,3.923,0,0,1-.15,1.066,3.183,3.183,0,0,1-.523,1.014,2.768,2.768,0,0,1-1.053.824,3.988,3.988,0,0,1-1.655.314,3.681,3.681,0,0,1-1.655-.314,2.663,2.663,0,0,1-.955-.811,2.8,2.8,0,0,1-.445-1.047,5.911,5.911,0,0,1-.111-1.073V26.487a1.417,1.417,0,0,1,.1-.549.619.619,0,0,1,.406-.36c.1-.033.262-.072.464-.118v-.412H11.507a5.312,5.312,0,0,1-.635-.164c-.432-.157-.654-.373-.654-.648a3.5,3.5,0,0,1,.052-.458,6.564,6.564,0,0,1,.19-.726c.1-.307.209-.641.327-1s.275-.785.471-1.269h5.187l1.223,3.31a.782.782,0,0,1,.065.242,1.3,1.3,0,0,1,.02.229c0,.15-.177.281-.536.386a6.22,6.22,0,0,1-1.348.209v.36h3.552a2.391,2.391,0,0,1,.857.347,1.347,1.347,0,0,1,.425.831,7.984,7.984,0,0,1,.144,1.629v5.227ZM15.6,26.768l.654.8.674-.824-.674-.778-.654.8Zm.654-.8-.654.8.654.8.674-.824-.674-.778Zm0,0-.654.8.654.8.674-.824-.674-.778ZM4.834,5.272a.347.347,0,0,0-.242-.046.4.4,0,0,0-.222.111.265.265,0,0,0-.072.229.24.24,0,0,0,.137.2.386.386,0,0,0,.242.046A.4.4,0,0,0,4.9,5.7a.258.258,0,0,0,.072-.222.251.251,0,0,0-.137-.2Zm.157.746L4.4,6.1l.373,2.59.589-.085Zm2.054.765A1.271,1.271,0,0,1,6.6,6.744a.232.232,0,0,1-.164-.209.249.249,0,0,1,.118-.222.624.624,0,0,1,.334-.118,1.023,1.023,0,0,1,.347.02.644.644,0,0,1,.288.131l.34-.36a1.2,1.2,0,0,0-.471-.262A1.553,1.553,0,0,0,6.816,5.7a1.3,1.3,0,0,0-.726.294.669.669,0,0,0-.249.615.676.676,0,0,0,.118.366.652.652,0,0,0,.268.209,1.594,1.594,0,0,0,.347.092c.137.013.281.02.419.02a.947.947,0,0,1,.425.059.249.249,0,0,1,.157.229.26.26,0,0,1-.124.242.848.848,0,0,1-.379.131,1.216,1.216,0,0,1-.458-.046.952.952,0,0,1-.4-.235l-.314.4a1.076,1.076,0,0,0,.53.347,1.842,1.842,0,0,0,.706.059,1.911,1.911,0,0,0,.543-.15A.924.924,0,0,0,8.059,8a.76.76,0,0,0,.111-.491C8.112,7.006,7.739,6.764,7.045,6.783Zm3.663-.8-.033-.523-2.231.164.033.517L9.3,6.077l.15,2.093.6-.046-.15-2.087Zm1.93-.6-.654.026L10.872,8.065l.648-.026.177-.458,1.38-.052h0l.209.445.648-.026-1.3-2.571Zm-.733,1.681.425-1.079h.007l.5,1.047-.929.033Zm4.37-1.72v.877l.026.824L14.954,5.331h-.517l-.013,2.617h.608V7.13l-.013-.857,1.328,1.681h.517l.013-2.617h-.6ZM16.249,25.97l-.654.8.654.8.674-.824-.674-.778ZM19.978,7.012a.579.579,0,0,0-.347-.321.54.54,0,0,0,.379-.517.606.606,0,0,0-.242-.543,1.148,1.148,0,0,0-.661-.209l-1.321-.059L17.669,7.98l1.348.059c.576.026.916-.164,1.007-.569a.652.652,0,0,0-.046-.458ZM18.349,5.894l.739.033a.382.382,0,0,1,.249.085.235.235,0,0,1,.079.2c-.007.164-.124.242-.36.229L18.323,6.4l.026-.51Zm.667,1.635L18.284,7.5l.026-.608.733.033a.445.445,0,0,1,.294.1.279.279,0,0,1,.092.229C19.416,7.444,19.278,7.542,19.016,7.529Zm3.689-1.845-.124,1.459c-.039.432-.242.648-.615.641a.69.69,0,0,1-.164-.013.625.625,0,0,1-.484-.739l.124-1.459-.6-.052-.124,1.459a1.148,1.148,0,0,0,.288.949,1.336,1.336,0,0,0,.9.373,1.211,1.211,0,0,0,.877-.255,1.234,1.234,0,0,0,.379-.857l.124-1.452-.589-.052ZM16.249,25.97l-.654.8.654.8.674-.824-.674-.778Zm5.187-.916a.532.532,0,0,1-.059-.013,2.359,2.359,0,0,1-.628-.242,2.311,2.311,0,0,1-.549-.491,2.534,2.534,0,0,1-.353-.654L14.921,10.911h-.837q-1.05,2.7-2.394,6.175T9.23,23.333a3.762,3.762,0,0,1-.445.85,2.781,2.781,0,0,1-.648.589,2.2,2.2,0,0,1-.667.268,4,4,0,0,1-.68.118v.36h4.73a1.579,1.579,0,0,1,.327.137.97.97,0,0,1,.419.392,1.19,1.19,0,0,1,.1.523v7.536a3.245,3.245,0,0,0,.307,1.38,3.455,3.455,0,0,0,.909,1.171,4.45,4.45,0,0,0,1.511.811,6.393,6.393,0,0,0,2.048.3,5.839,5.839,0,0,0,1.5-.209,4.884,4.884,0,0,0,1.5-.693,3.9,3.9,0,0,0,1.158-1.289,3.6,3.6,0,0,0,.438-1.838V28.2a9.166,9.166,0,0,1,.118-1.583,1.219,1.219,0,0,1,.425-.85,2.148,2.148,0,0,1,.792-.294,4.678,4.678,0,0,1,.739-.1v-.314H21.437ZM14.071,14.182l2.237,5.737H11.867l2.2-5.737Zm6.777,19.37a3.923,3.923,0,0,1-.15,1.066,3.183,3.183,0,0,1-.523,1.014,2.768,2.768,0,0,1-1.053.824,3.988,3.988,0,0,1-1.655.314,3.681,3.681,0,0,1-1.655-.314,2.663,2.663,0,0,1-.955-.811,2.8,2.8,0,0,1-.445-1.047,5.911,5.911,0,0,1-.111-1.073V26.487a1.417,1.417,0,0,1,.1-.549.619.619,0,0,1,.406-.36c.1-.033.262-.072.464-.118v-.412H11.507a5.312,5.312,0,0,1-.635-.164c-.432-.157-.654-.373-.654-.648a3.5,3.5,0,0,1,.052-.458,6.564,6.564,0,0,1,.19-.726c.1-.307.209-.641.327-1s.275-.785.471-1.269h5.187l1.223,3.31a.782.782,0,0,1,.065.242,1.3,1.3,0,0,1,.02.229c0,.15-.177.281-.536.386a6.22,6.22,0,0,1-1.348.209v.36h3.552a2.391,2.391,0,0,1,.857.347,1.347,1.347,0,0,1,.425.831,7.984,7.984,0,0,1,.144,1.629v5.227ZM15.6,26.768l.654.8.674-.824-.674-.778-.654.8Zm8.89-18.8L24.747,5.9l-.6-.072-.334,2.6,1.93.249.072-.53-1.334-.177Zm0,0L24.747,5.9l-.6-.072-.334,2.6,1.93.249.072-.53-1.334-.177Zm-1.9-.824c-.039.432-.242.648-.615.641a.69.69,0,0,1-.164-.013.625.625,0,0,1-.484-.739l.124-1.459-.6-.052-.124,1.459a1.148,1.148,0,0,0,.288.949,1.336,1.336,0,0,0,.9.373,1.211,1.211,0,0,0,.877-.255,1.234,1.234,0,0,0,.379-.857l.124-1.452-.589-.052-.124,1.459Zm-2.95-.451a.54.54,0,0,0,.379-.517.606.606,0,0,0-.242-.543,1.148,1.148,0,0,0-.661-.209l-1.321-.059L17.669,7.98l1.348.059c.576.026.916-.164,1.007-.569a.652.652,0,0,0-.046-.458.579.579,0,0,0-.347-.321Zm-1.282-.8.739.033a.382.382,0,0,1,.249.085.235.235,0,0,1,.078.2c-.007.164-.124.242-.36.229L18.323,6.4l.026-.51Zm.667,1.635L18.284,7.5l.026-.608.733.033a.445.445,0,0,1,.294.1.279.279,0,0,1,.092.229c-.013.2-.15.294-.412.281ZM16.269,6.214l.033.824L14.954,5.331h-.517l-.013,2.617h.608V7.13l-.013-.857,1.328,1.681h.517l.013-2.617h-.6v.877ZM11.978,5.4,10.866,8.065l.648-.026.177-.458,1.38-.052h0l.209.445.648-.026-1.3-2.571-.654.026ZM11.9,7.058l.425-1.079h.007l.5,1.047-.929.033Zm-1.23-1.6-2.231.164.033.517.818-.059L9.44,8.17l.6-.046-.15-2.087.818-.059-.033-.523ZM7.039,6.783a1.271,1.271,0,0,1-.445-.039.232.232,0,0,1-.164-.209.249.249,0,0,1,.118-.222.624.624,0,0,1,.334-.118,1.024,1.024,0,0,1,.347.02.644.644,0,0,1,.288.131l.34-.36a1.2,1.2,0,0,0-.471-.262A1.553,1.553,0,0,0,6.81,5.7a1.3,1.3,0,0,0-.726.294.669.669,0,0,0-.249.615.676.676,0,0,0,.118.366.652.652,0,0,0,.268.209,1.594,1.594,0,0,0,.347.092c.137.013.281.02.419.02a.947.947,0,0,1,.425.059.249.249,0,0,1,.157.229.26.26,0,0,1-.124.242.848.848,0,0,1-.379.131,1.216,1.216,0,0,1-.458-.046.952.952,0,0,1-.4-.235l-.314.4a1.076,1.076,0,0,0,.53.347,1.842,1.842,0,0,0,.706.059,1.911,1.911,0,0,0,.543-.15A.924.924,0,0,0,8.053,8a.76.76,0,0,0,.111-.491C8.105,7.006,7.732,6.764,7.039,6.783ZM4.4,6.1l.373,2.59.589-.085-.373-2.59Zm.275-.294A.4.4,0,0,0,4.893,5.7a.258.258,0,0,0,.072-.222.251.251,0,0,0-.137-.2.347.347,0,0,0-.242-.046.4.4,0,0,0-.222.111.265.265,0,0,0-.072.229.24.24,0,0,0,.137.2.386.386,0,0,0,.242.046ZM21.43,25.054a.532.532,0,0,1-.059-.013,2.359,2.359,0,0,1-.628-.242,2.311,2.311,0,0,1-.549-.491,2.534,2.534,0,0,1-.353-.654L14.915,10.911h-.837q-1.05,2.7-2.394,6.175t-2.46,6.247a3.762,3.762,0,0,1-.445.85,2.781,2.781,0,0,1-.648.589,2.2,2.2,0,0,1-.667.268,4,4,0,0,1-.68.118v.36h4.73a1.578,1.578,0,0,1,.327.137.97.97,0,0,1,.419.392,1.19,1.19,0,0,1,.1.523v7.536a3.245,3.245,0,0,0,.307,1.38,3.455,3.455,0,0,0,.909,1.171,4.45,4.45,0,0,0,1.511.811,6.393,6.393,0,0,0,2.048.3,5.839,5.839,0,0,0,1.5-.209,4.884,4.884,0,0,0,1.5-.693A3.9,3.9,0,0,0,21.3,35.579a3.6,3.6,0,0,0,.438-1.838V28.2a9.166,9.166,0,0,1,.118-1.583,1.219,1.219,0,0,1,.425-.85,2.148,2.148,0,0,1,.792-.294,4.678,4.678,0,0,1,.739-.1v-.314H21.43ZM14.064,14.182,16.3,19.919H11.86l2.2-5.737Zm6.777,19.37a3.923,3.923,0,0,1-.15,1.066,3.183,3.183,0,0,1-.523,1.014,2.768,2.768,0,0,1-1.053.824,3.988,3.988,0,0,1-1.655.314,3.681,3.681,0,0,1-1.655-.314,2.662,2.662,0,0,1-.955-.811A2.8,2.8,0,0,1,14.4,34.6a5.911,5.911,0,0,1-.111-1.073V26.487a1.417,1.417,0,0,1,.1-.549.619.619,0,0,1,.406-.36c.1-.033.262-.072.464-.118v-.412H11.5a5.312,5.312,0,0,1-.635-.164c-.432-.157-.654-.373-.654-.648a3.5,3.5,0,0,1,.052-.458,6.564,6.564,0,0,1,.19-.726c.1-.307.209-.641.327-1s.275-.785.471-1.269h5.187l1.223,3.31a.782.782,0,0,1,.065.242,1.3,1.3,0,0,1,.02.229c0,.15-.177.281-.536.386a6.22,6.22,0,0,1-1.348.209v.36h3.552a2.391,2.391,0,0,1,.857.347,1.347,1.347,0,0,1,.425.831,7.984,7.984,0,0,1,.144,1.629v5.227Zm-5.253-6.784.654.8.674-.824-.674-.778-.654.8ZM30.569,27V1.419C25.126-.471,5.475-.478.02,1.419V26.99c.046.144-1,3.3,7.477,10.48,6.476,5.371,7.634,6.188,7.8,6.313h0c.177-.1,1.341-.949,7.8-6.3C31.57,30.294,30.523,27.141,30.575,27ZM.393,1.812C5.711-.033,24.878-.027,30.2,1.818V5.723c-5.318-1.845-24.485-1.851-29.8,0Zm0,4.056c5.318-1.851,24.485-1.845,29.8,0V9.779c-5.318-1.845-24.485-1.851-29.8,0V5.867Zm22.5,31.269c-5.881,4.873-7.261,5.9-7.556,6.1l-.046.033-.039-.026c-.275-.19-1.622-1.184-7.562-6.11C-.582,30.124.438,27.056.393,26.912V9.976c5.325-1.851,24.485-1.845,29.8,0V26.912H30.19C30.137,27.049,31.164,30.124,22.889,37.136Zm6.7-26.552-.118-.039c-2.355-.818-7.817-1.328-14.2-1.328s-11.808.51-14.149,1.321L1,10.577V27.029c-.131,1.328.615,4.363,6.98,9.76,5.312,4.4,6.757,5.5,7.124,5.763l.1.072.065.039.033.02.177-.124c.366-.262,1.8-1.341,7.13-5.763,6.365-5.39,7.1-8.432,6.98-9.76Zm-.34,16.485c.288,3.048-4.7,7.628-6.856,9.453-5.279,4.383-6.718,5.469-7.085,5.73-.373-.268-1.819-1.361-7.091-5.737-2.159-1.825-7.143-6.4-6.856-9.453v-.111h.013V10.832C3.748,10.054,9.027,9.57,15.288,9.57s11.579.478,13.96,1.263V27.069ZM25.82,8.144l-1.334-.177L24.747,5.9l-.6-.072-.334,2.6,1.93.249.072-.53ZM21.914,8.3a1.211,1.211,0,0,0,.877-.255,1.234,1.234,0,0,0,.379-.857l.124-1.452-.589-.052-.124,1.459c-.039.432-.242.648-.615.641a.69.69,0,0,1-.164-.013.625.625,0,0,1-.484-.739l.124-1.459-.6-.052-.124,1.459a1.148,1.148,0,0,0,.288.949,1.336,1.336,0,0,0,.9.373Zm-7.83,2.61q-1.05,2.7-2.394,6.175T9.23,23.333a3.762,3.762,0,0,1-.445.85,2.781,2.781,0,0,1-.648.589,2.2,2.2,0,0,1-.667.268,4,4,0,0,1-.68.118v.36h4.73a1.579,1.579,0,0,1,.327.137.97.97,0,0,1,.419.392,1.19,1.19,0,0,1,.1.523v7.536a3.245,3.245,0,0,0,.307,1.38,3.455,3.455,0,0,0,.909,1.171,4.45,4.45,0,0,0,1.511.811,6.393,6.393,0,0,0,2.048.3,5.839,5.839,0,0,0,1.5-.209,4.884,4.884,0,0,0,1.5-.693,3.9,3.9,0,0,0,1.158-1.289,3.6,3.6,0,0,0,.438-1.838V28.2a9.166,9.166,0,0,1,.118-1.583,1.219,1.219,0,0,1,.425-.85,2.148,2.148,0,0,1,.792-.294,4.678,4.678,0,0,1,.739-.1v-.314H21.437a.533.533,0,0,1-.059-.013,2.358,2.358,0,0,1-.628-.242,2.311,2.311,0,0,1-.549-.491,2.534,2.534,0,0,1-.353-.654L14.921,10.911h-.837Zm3.585,13.181a.782.782,0,0,1,.065.242,1.3,1.3,0,0,1,.02.229c0,.15-.177.281-.536.386a6.22,6.22,0,0,1-1.348.209v.36h3.552a2.391,2.391,0,0,1,.857.347,1.347,1.347,0,0,1,.425.831,7.984,7.984,0,0,1,.144,1.629v5.227a3.923,3.923,0,0,1-.15,1.066,3.183,3.183,0,0,1-.523,1.014,2.768,2.768,0,0,1-1.053.824,3.988,3.988,0,0,1-1.655.314,3.681,3.681,0,0,1-1.655-.314,2.663,2.663,0,0,1-.955-.811,2.8,2.8,0,0,1-.445-1.047,5.911,5.911,0,0,1-.111-1.073V26.487a1.417,1.417,0,0,1,.1-.549.619.619,0,0,1,.406-.36c.1-.033.262-.072.464-.118v-.412H11.507a5.312,5.312,0,0,1-.635-.164c-.432-.157-.654-.373-.654-.648a3.5,3.5,0,0,1,.052-.458,6.564,6.564,0,0,1,.19-.726c.1-.307.209-.641.327-1s.275-.785.471-1.269h5.187l1.223,3.31Zm-5.8-4.174,2.2-5.737,2.237,5.737ZM20.024,7.47a.652.652,0,0,0-.046-.458.579.579,0,0,0-.347-.321.54.54,0,0,0,.379-.517.606.606,0,0,0-.242-.543,1.148,1.148,0,0,0-.661-.209l-1.321-.059L17.669,7.98l1.348.059c.576.026.916-.164,1.007-.569ZM18.349,5.894l.739.033a.382.382,0,0,1,.249.085.235.235,0,0,1,.079.2c-.007.164-.124.242-.36.229L18.323,6.4l.026-.51Zm-.039.994.733.033a.445.445,0,0,1,.294.1.279.279,0,0,1,.092.229c-.013.2-.15.294-.412.281L18.284,7.5Zm-1.387,19.86-.674-.778-.654.8.654.8.674-.824ZM16.348,7.954h.517l.013-2.617h-.6v.877l.026.824L14.954,5.331h-.517l-.013,2.617h.608V7.13l-.013-.857,1.328,1.681ZM11.984,5.4,10.872,8.065l.648-.026.177-.458,1.38-.052h0l.209.445.648-.026-1.3-2.571-.654.026Zm-.078,1.655.425-1.079h.007l.5,1.047-.929.033Zm-1.23-1.6-2.231.164.033.517L9.3,6.077l.15,2.093.6-.046-.15-2.087.818-.059ZM7.045,6.783A1.271,1.271,0,0,1,6.6,6.744a.232.232,0,0,1-.164-.209.249.249,0,0,1,.118-.222.624.624,0,0,1,.334-.118,1.023,1.023,0,0,1,.347.02.644.644,0,0,1,.288.131l.34-.36a1.2,1.2,0,0,0-.471-.262A1.553,1.553,0,0,0,6.816,5.7a1.3,1.3,0,0,0-.726.294.669.669,0,0,0-.249.615.676.676,0,0,0,.118.366.652.652,0,0,0,.268.209,1.594,1.594,0,0,0,.347.092c.137.013.281.02.419.02a.947.947,0,0,1,.425.059.249.249,0,0,1,.157.229.26.26,0,0,1-.124.242.848.848,0,0,1-.379.131,1.216,1.216,0,0,1-.458-.046.952.952,0,0,1-.4-.235l-.314.4a1.076,1.076,0,0,0,.53.347,1.842,1.842,0,0,0,.706.059,1.911,1.911,0,0,0,.543-.15A.924.924,0,0,0,8.059,8a.76.76,0,0,0,.111-.491C8.112,7.006,7.739,6.764,7.045,6.783ZM4.4,6.1l.373,2.59.589-.085-.373-2.59Zm.275-.294A.4.4,0,0,0,4.9,5.7a.258.258,0,0,0,.072-.222.251.251,0,0,0-.137-.2.347.347,0,0,0-.242-.046.4.4,0,0,0-.222.111.265.265,0,0,0-.072.229.24.24,0,0,0,.137.2.386.386,0,0,0,.242.046ZM16.249,25.97l-.654.8.654.8.674-.824-.674-.778Zm0,0-.654.8.654.8.674-.824-.674-.778Zm5.187-.916a.532.532,0,0,1-.059-.013,2.359,2.359,0,0,1-.628-.242,2.311,2.311,0,0,1-.549-.491,2.534,2.534,0,0,1-.353-.654L14.921,10.911h-.837q-1.05,2.7-2.394,6.175T9.23,23.333a3.762,3.762,0,0,1-.445.85,2.781,2.781,0,0,1-.648.589,2.2,2.2,0,0,1-.667.268,4,4,0,0,1-.68.118v.36h4.73a1.579,1.579,0,0,1,.327.137.97.97,0,0,1,.419.392,1.19,1.19,0,0,1,.1.523v7.536a3.245,3.245,0,0,0,.307,1.38,3.455,3.455,0,0,0,.909,1.171,4.45,4.45,0,0,0,1.511.811,6.393,6.393,0,0,0,2.048.3,5.839,5.839,0,0,0,1.5-.209,4.884,4.884,0,0,0,1.5-.693,3.9,3.9,0,0,0,1.158-1.289,3.6,3.6,0,0,0,.438-1.838V28.2a9.166,9.166,0,0,1,.118-1.583,1.219,1.219,0,0,1,.425-.85,2.148,2.148,0,0,1,.792-.294,4.678,4.678,0,0,1,.739-.1v-.314H21.437ZM14.071,14.182l2.237,5.737H11.867l2.2-5.737Zm6.777,19.37a3.923,3.923,0,0,1-.15,1.066,3.183,3.183,0,0,1-.523,1.014,2.768,2.768,0,0,1-1.053.824,3.988,3.988,0,0,1-1.655.314,3.681,3.681,0,0,1-1.655-.314,2.663,2.663,0,0,1-.955-.811,2.8,2.8,0,0,1-.445-1.047,5.911,5.911,0,0,1-.111-1.073V26.487a1.416,1.416,0,0,1,.1-.549.619.619,0,0,1,.406-.36c.1-.033.262-.072.464-.118v-.412H11.507a5.312,5.312,0,0,1-.635-.164c-.432-.157-.654-.373-.654-.648a3.5,3.5,0,0,1,.052-.458,6.564,6.564,0,0,1,.19-.726c.1-.307.209-.641.327-1s.275-.785.471-1.269h5.187l1.223,3.31a.782.782,0,0,1,.065.242,1.3,1.3,0,0,1,.02.229c0,.15-.177.281-.536.386a6.22,6.22,0,0,1-1.348.209v.36h3.552a2.391,2.391,0,0,1,.857.347,1.347,1.347,0,0,1,.425.831,7.984,7.984,0,0,1,.144,1.629v5.227ZM15.6,26.768l.654.8.674-.824-.674-.778-.654.8ZM4.834,5.272a.347.347,0,0,0-.242-.046.4.4,0,0,0-.222.111.265.265,0,0,0-.072.229.24.24,0,0,0,.137.2.386.386,0,0,0,.242.046A.4.4,0,0,0,4.9,5.7a.258.258,0,0,0,.072-.222.251.251,0,0,0-.137-.2Zm.157.746L4.4,6.1l.373,2.59.589-.085Zm2.054.765A1.271,1.271,0,0,1,6.6,6.744a.232.232,0,0,1-.164-.209.249.249,0,0,1,.118-.222.624.624,0,0,1,.334-.118,1.023,1.023,0,0,1,.347.02.644.644,0,0,1,.288.131l.34-.36a1.2,1.2,0,0,0-.471-.262A1.553,1.553,0,0,0,6.816,5.7a1.3,1.3,0,0,0-.726.294.669.669,0,0,0-.249.615.676.676,0,0,0,.118.366.652.652,0,0,0,.268.209,1.594,1.594,0,0,0,.347.092c.137.013.281.02.419.02a.947.947,0,0,1,.425.059.249.249,0,0,1,.157.229.26.26,0,0,1-.124.242.848.848,0,0,1-.379.131,1.216,1.216,0,0,1-.458-.046.952.952,0,0,1-.4-.235l-.314.4a1.076,1.076,0,0,0,.53.347,1.842,1.842,0,0,0,.706.059,1.911,1.911,0,0,0,.543-.15A.924.924,0,0,0,8.059,8a.76.76,0,0,0,.111-.491C8.112,7.006,7.739,6.764,7.045,6.783Zm3.663-.8-.033-.523-2.231.164.033.517L9.3,6.077l.15,2.093.6-.046-.15-2.087Zm1.93-.6-.654.026L10.872,8.065l.648-.026.177-.458,1.38-.052h0l.209.445.648-.026-1.3-2.571Zm-.733,1.681.425-1.079h.007l.5,1.047-.929.033Zm4.37-1.72v.877l.026.824L14.954,5.331h-.517l-.013,2.617h.608V7.13l-.013-.857,1.328,1.681h.517l.013-2.617h-.6Zm3.7,1.675a.579.579,0,0,0-.347-.321.54.54,0,0,0,.379-.517.606.606,0,0,0-.242-.543,1.148,1.148,0,0,0-.661-.209l-1.321-.059L17.669,7.98l1.348.059c.576.026.916-.164,1.007-.569a.652.652,0,0,0-.046-.458ZM18.349,5.894l.739.033a.382.382,0,0,1,.249.085.235.235,0,0,1,.078.2c-.007.164-.124.242-.36.229L18.323,6.4l.026-.51Zm.667,1.635L18.284,7.5l.026-.608.733.033a.445.445,0,0,1,.294.1.279.279,0,0,1,.092.229c-.013.2-.15.294-.412.281Zm3.689-1.845-.124,1.459c-.039.432-.242.648-.615.641a.69.69,0,0,1-.164-.013.625.625,0,0,1-.484-.739l.124-1.459-.6-.052-.124,1.459a1.148,1.148,0,0,0,.288.949,1.336,1.336,0,0,0,.9.373,1.211,1.211,0,0,0,.877-.255,1.234,1.234,0,0,0,.379-.857l.124-1.452-.589-.052Zm1.779,2.283L24.747,5.9l-.6-.072-.334,2.6,1.93.249.072-.53-1.334-.177Zm0,0L24.747,5.9l-.6-.072-.334,2.6,1.93.249.072-.53-1.334-.177Zm-8.236,18-.654.8.654.8.674-.824-.674-.778Zm0,0-.654.8.654.8.674-.824-.674-.778Zm5.187-.916a.532.532,0,0,1-.059-.013,2.359,2.359,0,0,1-.628-.242,2.311,2.311,0,0,1-.549-.491,2.534,2.534,0,0,1-.353-.654L14.921,10.911h-.837q-1.05,2.7-2.394,6.175T9.23,23.333a3.762,3.762,0,0,1-.445.85,2.781,2.781,0,0,1-.648.589,2.2,2.2,0,0,1-.667.268,4,4,0,0,1-.68.118v.36h4.73a1.579,1.579,0,0,1,.327.137.97.97,0,0,1,.419.392,1.19,1.19,0,0,1,.1.523v7.536a3.245,3.245,0,0,0,.307,1.38,3.455,3.455,0,0,0,.909,1.171,4.45,4.45,0,0,0,1.511.811,6.393,6.393,0,0,0,2.048.3,5.839,5.839,0,0,0,1.5-.209,4.884,4.884,0,0,0,1.5-.693,3.9,3.9,0,0,0,1.158-1.289,3.6,3.6,0,0,0,.438-1.838V28.2a9.166,9.166,0,0,1,.118-1.583,1.219,1.219,0,0,1,.425-.85,2.148,2.148,0,0,1,.792-.294,4.678,4.678,0,0,1,.739-.1v-.314H21.437ZM14.071,14.182l2.237,5.737H11.867l2.2-5.737Zm6.777,19.37a3.923,3.923,0,0,1-.15,1.066,3.183,3.183,0,0,1-.523,1.014,2.768,2.768,0,0,1-1.053.824,3.988,3.988,0,0,1-1.655.314,3.681,3.681,0,0,1-1.655-.314,2.663,2.663,0,0,1-.955-.811,2.8,2.8,0,0,1-.445-1.047,5.911,5.911,0,0,1-.111-1.073V26.487a1.417,1.417,0,0,1,.1-.549.619.619,0,0,1,.406-.36c.1-.033.262-.072.464-.118v-.412H11.507a5.312,5.312,0,0,1-.635-.164c-.432-.157-.654-.373-.654-.648a3.5,3.5,0,0,1,.052-.458,6.564,6.564,0,0,1,.19-.726c.1-.307.209-.641.327-1s.275-.785.471-1.269h5.187l1.223,3.31a.782.782,0,0,1,.065.242,1.3,1.3,0,0,1,.02.229c0,.15-.177.281-.536.386a6.22,6.22,0,0,1-1.348.209v.36h3.552a2.391,2.391,0,0,1,.857.347,1.347,1.347,0,0,1,.425.831,7.984,7.984,0,0,1,.144,1.629v5.227ZM15.6,26.768l.654.8.674-.824-.674-.778-.654.8Zm.654-.8-.654.8.654.8.674-.824-.674-.778ZM22.706,5.684l-.124,1.459c-.039.432-.242.648-.615.641a.69.69,0,0,1-.164-.013.625.625,0,0,1-.484-.739l.124-1.459-.6-.052-.124,1.459a1.148,1.148,0,0,0,.288.949,1.336,1.336,0,0,0,.9.373,1.211,1.211,0,0,0,.877-.255,1.234,1.234,0,0,0,.379-.857l.124-1.452-.589-.052ZM19.978,7.012a.579.579,0,0,0-.347-.321.54.54,0,0,0,.379-.517.606.606,0,0,0-.242-.543,1.148,1.148,0,0,0-.661-.209l-1.321-.059L17.669,7.98l1.348.059c.576.026.916-.164,1.007-.569a.652.652,0,0,0-.046-.458ZM18.349,5.894l.739.033a.382.382,0,0,1,.249.085.235.235,0,0,1,.078.2c-.007.164-.124.242-.36.229L18.323,6.4l.026-.51Zm.667,1.635L18.284,7.5l.026-.608.733.033a.445.445,0,0,1,.294.1.279.279,0,0,1,.092.229c-.013.2-.15.294-.412.281ZM16.249,25.97l-.654.8.654.8.674-.824-.674-.778Zm.026-20.632v.877l.026.824L14.954,5.331h-.517l-.013,2.617h.608V7.13l-.013-.857,1.328,1.681h.517l.013-2.617Zm-3.637.039-.654.026L10.872,8.065l.648-.026.177-.458,1.38-.052h0l.209.445.648-.026-1.3-2.571Zm-.733,1.681.425-1.079h.007l.5,1.047-.929.033Zm-1.2-1.079-.033-.523-2.231.164.033.517L9.3,6.077l.15,2.093.6-.046-.15-2.087.818-.059Zm-3.663.8A1.271,1.271,0,0,1,6.6,6.744a.232.232,0,0,1-.164-.209.249.249,0,0,1,.118-.222.624.624,0,0,1,.334-.118,1.023,1.023,0,0,1,.347.02.644.644,0,0,1,.288.131l.34-.36a1.2,1.2,0,0,0-.471-.262A1.553,1.553,0,0,0,6.816,5.7a1.3,1.3,0,0,0-.726.294.669.669,0,0,0-.249.615.676.676,0,0,0,.118.366.652.652,0,0,0,.268.209,1.594,1.594,0,0,0,.347.092c.137.013.281.02.419.02a.947.947,0,0,1,.425.059.249.249,0,0,1,.157.229.26.26,0,0,1-.124.242.848.848,0,0,1-.379.131,1.216,1.216,0,0,1-.458-.046.952.952,0,0,1-.4-.235l-.314.4a1.076,1.076,0,0,0,.53.347,1.842,1.842,0,0,0,.706.059,1.911,1.911,0,0,0,.543-.15A.924.924,0,0,0,8.059,8a.76.76,0,0,0,.111-.491C8.112,7.006,7.739,6.764,7.045,6.783ZM4.991,6.018,4.4,6.1l.373,2.59.589-.085-.373-2.59Zm-.157-.746a.347.347,0,0,0-.242-.046.4.4,0,0,0-.222.111.265.265,0,0,0-.072.229.24.24,0,0,0,.137.2.386.386,0,0,0,.242.046A.4.4,0,0,0,4.9,5.7a.258.258,0,0,0,.072-.222.251.251,0,0,0-.137-.2Zm11.415,20.7-.654.8.654.8.674-.824-.674-.778Zm0,0-.654.8.654.8.674-.824-.674-.778Zm5.187-.916a.532.532,0,0,1-.059-.013,2.359,2.359,0,0,1-.628-.242,2.311,2.311,0,0,1-.549-.491,2.534,2.534,0,0,1-.353-.654L14.921,10.911h-.837q-1.05,2.7-2.394,6.175T9.23,23.333a3.762,3.762,0,0,1-.445.85,2.781,2.781,0,0,1-.648.589,2.2,2.2,0,0,1-.667.268,4,4,0,0,1-.68.118v.36h4.73a1.579,1.579,0,0,1,.327.137.97.97,0,0,1,.419.392,1.19,1.19,0,0,1,.1.523v7.536a3.245,3.245,0,0,0,.307,1.38,3.455,3.455,0,0,0,.909,1.171,4.45,4.45,0,0,0,1.511.811,6.393,6.393,0,0,0,2.048.3,5.839,5.839,0,0,0,1.5-.209,4.884,4.884,0,0,0,1.5-.693,3.9,3.9,0,0,0,1.158-1.289,3.6,3.6,0,0,0,.438-1.838V28.2a9.166,9.166,0,0,1,.118-1.583,1.219,1.219,0,0,1,.425-.85,2.148,2.148,0,0,1,.792-.294,4.678,4.678,0,0,1,.739-.1v-.314H21.437ZM14.071,14.182l2.237,5.737H11.867l2.2-5.737Zm6.777,19.37a3.923,3.923,0,0,1-.15,1.066,3.183,3.183,0,0,1-.523,1.014,2.768,2.768,0,0,1-1.053.824,3.988,3.988,0,0,1-1.655.314,3.681,3.681,0,0,1-1.655-.314,2.663,2.663,0,0,1-.955-.811,2.8,2.8,0,0,1-.445-1.047,5.911,5.911,0,0,1-.111-1.073V26.487a1.417,1.417,0,0,1,.1-.549.619.619,0,0,1,.406-.36c.1-.033.262-.072.464-.118v-.412H11.507a5.312,5.312,0,0,1-.635-.164c-.432-.157-.654-.373-.654-.648a3.5,3.5,0,0,1,.052-.458,6.564,6.564,0,0,1,.19-.726c.1-.307.209-.641.327-1s.275-.785.471-1.269h5.187l1.223,3.31a.782.782,0,0,1,.065.242,1.3,1.3,0,0,1,.02.229c0,.15-.177.281-.536.386a6.22,6.22,0,0,1-1.348.209v.36h3.552a2.391,2.391,0,0,1,.857.347,1.347,1.347,0,0,1,.425.831,7.984,7.984,0,0,1,.144,1.629v5.227ZM15.6,26.768l.654.8.674-.824-.674-.778-.654.8Zm.654-.8-.654.8.654.8.674-.824-.674-.778Zm0,0-.654.8.654.8.674-.824-.674-.778ZM4.834,5.272a.347.347,0,0,0-.242-.046.4.4,0,0,0-.222.111.265.265,0,0,0-.072.229.24.24,0,0,0,.137.2.386.386,0,0,0,.242.046A.4.4,0,0,0,4.9,5.7a.258.258,0,0,0,.072-.222.251.251,0,0,0-.137-.2Zm.157.746L4.4,6.1l.373,2.59.589-.085Zm2.054.765A1.271,1.271,0,0,1,6.6,6.744a.232.232,0,0,1-.164-.209.249.249,0,0,1,.118-.222.624.624,0,0,1,.334-.118,1.023,1.023,0,0,1,.347.02.644.644,0,0,1,.288.131l.34-.36a1.2,1.2,0,0,0-.471-.262A1.553,1.553,0,0,0,6.816,5.7a1.3,1.3,0,0,0-.726.294.669.669,0,0,0-.249.615.676.676,0,0,0,.118.366.652.652,0,0,0,.268.209,1.594,1.594,0,0,0,.347.092c.137.013.281.02.419.02a.947.947,0,0,1,.425.059.249.249,0,0,1,.157.229.26.26,0,0,1-.124.242.848.848,0,0,1-.379.131,1.216,1.216,0,0,1-.458-.046.952.952,0,0,1-.4-.235l-.314.4a1.076,1.076,0,0,0,.53.347,1.842,1.842,0,0,0,.706.059,1.911,1.911,0,0,0,.543-.15A.924.924,0,0,0,8.059,8a.76.76,0,0,0,.111-.491C8.112,7.006,7.739,6.764,7.045,6.783Zm3.663-.8-.033-.523-2.231.164.033.517L9.3,6.077l.15,2.093.6-.046-.15-2.087Zm1.93-.6-.654.026L10.872,8.065l.648-.026.177-.458,1.38-.052h0l.209.445.648-.026-1.3-2.571Zm-.733,1.681.425-1.079h.007l.5,1.047-.929.033Zm4.37-1.72v.877l.026.824L14.954,5.331h-.517l-.013,2.617h.608V7.13l-.013-.857,1.328,1.681h.517l.013-2.617h-.6Zm3.7,1.675a.579.579,0,0,0-.347-.321.54.54,0,0,0,.379-.517.606.606,0,0,0-.242-.543,1.148,1.148,0,0,0-.661-.209l-1.321-.059L17.669,7.98l1.348.059c.576.026.916-.164,1.007-.569a.652.652,0,0,0-.046-.458ZM18.349,5.894l.739.033a.382.382,0,0,1,.249.085.235.235,0,0,1,.078.2c-.007.164-.124.242-.36.229L18.323,6.4l.026-.51Zm.667,1.635L18.284,7.5l.026-.608.733.033a.445.445,0,0,1,.294.1.279.279,0,0,1,.092.229c-.013.2-.15.294-.412.281Zm3.689-1.845-.124,1.459c-.039.432-.242.648-.615.641a.69.69,0,0,1-.164-.013.625.625,0,0,1-.484-.739l.124-1.459-.6-.052-.124,1.459a1.148,1.148,0,0,0,.288.949,1.336,1.336,0,0,0,.9.373,1.211,1.211,0,0,0,.877-.255,1.234,1.234,0,0,0,.379-.857l.124-1.452-.589-.052Zm1.779,2.283L24.747,5.9l-.6-.072-.334,2.6,1.93.249.072-.53-1.334-.177Zm0,0L24.747,5.9l-.6-.072-.334,2.6,1.93.249.072-.53-1.334-.177Zm-8.236,18-.654.8.654.8.674-.824-.674-.778Zm0,0-.654.8.654.8.674-.824-.674-.778Zm5.187-.916a.532.532,0,0,1-.059-.013,2.359,2.359,0,0,1-.628-.242,2.311,2.311,0,0,1-.549-.491,2.534,2.534,0,0,1-.353-.654L14.921,10.911h-.837q-1.05,2.7-2.394,6.175T9.23,23.333a3.762,3.762,0,0,1-.445.85,2.781,2.781,0,0,1-.648.589,2.2,2.2,0,0,1-.667.268,4,4,0,0,1-.68.118v.36h4.73a1.579,1.579,0,0,1,.327.137.97.97,0,0,1,.419.392,1.19,1.19,0,0,1,.1.523v7.536a3.245,3.245,0,0,0,.307,1.38,3.455,3.455,0,0,0,.909,1.171,4.45,4.45,0,0,0,1.511.811,6.393,6.393,0,0,0,2.048.3,5.839,5.839,0,0,0,1.5-.209,4.884,4.884,0,0,0,1.5-.693,3.9,3.9,0,0,0,1.158-1.289,3.6,3.6,0,0,0,.438-1.838V28.2a9.166,9.166,0,0,1,.118-1.583,1.219,1.219,0,0,1,.425-.85,2.148,2.148,0,0,1,.792-.294,4.678,4.678,0,0,1,.739-.1v-.314H21.437ZM14.071,14.182l2.237,5.737H11.867l2.2-5.737Zm6.777,19.37a3.923,3.923,0,0,1-.15,1.066,3.183,3.183,0,0,1-.523,1.014,2.768,2.768,0,0,1-1.053.824,3.988,3.988,0,0,1-1.655.314,3.681,3.681,0,0,1-1.655-.314,2.663,2.663,0,0,1-.955-.811,2.8,2.8,0,0,1-.445-1.047,5.911,5.911,0,0,1-.111-1.073V26.487a1.417,1.417,0,0,1,.1-.549.619.619,0,0,1,.406-.36c.1-.033.262-.072.464-.118v-.412H11.507a5.312,5.312,0,0,1-.635-.164c-.432-.157-.654-.373-.654-.648a3.5,3.5,0,0,1,.052-.458,6.564,6.564,0,0,1,.19-.726c.1-.307.209-.641.327-1s.275-.785.471-1.269h5.187l1.223,3.31a.782.782,0,0,1,.065.242,1.3,1.3,0,0,1,.02.229c0,.15-.177.281-.536.386a6.22,6.22,0,0,1-1.348.209v.36h3.552a2.391,2.391,0,0,1,.857.347,1.347,1.347,0,0,1,.425.831,7.984,7.984,0,0,1,.144,1.629v5.227ZM15.6,26.768l.654.8.674-.824-.674-.778-.654.8Zm.654-.8-.654.8.654.8.674-.824-.674-.778Zm0,0-.654.8.654.8.674-.824-.674-.778ZM22.706,5.684l-.124,1.459c-.039.432-.242.648-.615.641a.69.69,0,0,1-.164-.013.625.625,0,0,1-.484-.739l.124-1.459-.6-.052-.124,1.459a1.148,1.148,0,0,0,.288.949,1.336,1.336,0,0,0,.9.373,1.211,1.211,0,0,0,.877-.255,1.234,1.234,0,0,0,.379-.857l.124-1.452-.589-.052ZM19.978,7.012a.579.579,0,0,0-.347-.321.54.54,0,0,0,.379-.517.606.606,0,0,0-.242-.543,1.148,1.148,0,0,0-.661-.209l-1.321-.059L17.669,7.98l1.348.059c.576.026.916-.164,1.007-.569a.652.652,0,0,0-.046-.458ZM18.349,5.894l.739.033a.382.382,0,0,1,.249.085.235.235,0,0,1,.078.2c-.007.164-.124.242-.36.229L18.323,6.4l.026-.51Zm.667,1.635L18.284,7.5l.026-.608.733.033a.445.445,0,0,1,.294.1.279.279,0,0,1,.092.229c-.013.2-.15.294-.412.281ZM16.276,5.338v.877l.026.824L14.954,5.331h-.517l-.013,2.617h.608V7.13l-.013-.857,1.328,1.681h.517l.013-2.617h-.6Zm-3.637.039-.654.026L10.872,8.065l.648-.026.177-.458,1.38-.052h0l.209.445.648-.026-1.3-2.571Zm-.733,1.681.425-1.079h.007l.5,1.047-.929.033Zm-1.2-1.079-.033-.523-2.231.164.033.517L9.3,6.077l.15,2.093.6-.046-.15-2.087.818-.059Zm-3.663.8A1.271,1.271,0,0,1,6.6,6.744a.232.232,0,0,1-.164-.209.249.249,0,0,1,.118-.222.624.624,0,0,1,.334-.118,1.023,1.023,0,0,1,.347.02.644.644,0,0,1,.288.131l.34-.36a1.2,1.2,0,0,0-.471-.262A1.553,1.553,0,0,0,6.816,5.7a1.3,1.3,0,0,0-.726.294.669.669,0,0,0-.249.615.676.676,0,0,0,.118.366.652.652,0,0,0,.268.209,1.594,1.594,0,0,0,.347.092c.137.013.281.02.419.02a.947.947,0,0,1,.425.059.249.249,0,0,1,.157.229.26.26,0,0,1-.124.242.848.848,0,0,1-.379.131,1.216,1.216,0,0,1-.458-.046.952.952,0,0,1-.4-.235l-.314.4a1.076,1.076,0,0,0,.53.347,1.842,1.842,0,0,0,.706.059,1.911,1.911,0,0,0,.543-.15A.924.924,0,0,0,8.059,8a.76.76,0,0,0,.111-.491c-.059-.5-.432-.746-1.125-.726ZM4.991,6.018,4.4,6.1l.373,2.59.589-.085-.373-2.59Zm-.157-.746a.347.347,0,0,0-.242-.046.4.4,0,0,0-.222.111.265.265,0,0,0-.072.229.24.24,0,0,0,.137.2.386.386,0,0,0,.242.046A.4.4,0,0,0,4.9,5.7a.258.258,0,0,0,.072-.222.251.251,0,0,0-.137-.2Zm0,0a.347.347,0,0,0-.242-.046.4.4,0,0,0-.222.111.265.265,0,0,0-.072.229.24.24,0,0,0,.137.2.386.386,0,0,0,.242.046A.4.4,0,0,0,4.9,5.7a.258.258,0,0,0,.072-.222.251.251,0,0,0-.137-.2Zm.157.746L4.4,6.1l.373,2.59.589-.085-.373-2.59Zm2.054.765A1.271,1.271,0,0,1,6.6,6.744a.232.232,0,0,1-.164-.209.249.249,0,0,1,.118-.222.624.624,0,0,1,.334-.118,1.023,1.023,0,0,1,.347.02.644.644,0,0,1,.288.131l.34-.36a1.2,1.2,0,0,0-.471-.262A1.553,1.553,0,0,0,6.816,5.7a1.3,1.3,0,0,0-.726.294.669.669,0,0,0-.249.615.676.676,0,0,0,.118.366.652.652,0,0,0,.268.209,1.594,1.594,0,0,0,.347.092c.137.013.281.02.419.02a.947.947,0,0,1,.425.059.249.249,0,0,1,.157.229.26.26,0,0,1-.124.242.848.848,0,0,1-.379.131,1.216,1.216,0,0,1-.458-.046.952.952,0,0,1-.4-.235l-.314.4a1.076,1.076,0,0,0,.53.347,1.842,1.842,0,0,0,.706.059,1.911,1.911,0,0,0,.543-.15A.924.924,0,0,0,8.059,8a.76.76,0,0,0,.111-.491c-.059-.5-.432-.746-1.125-.726Zm3.663-.8-.033-.523-2.231.164.033.517L9.3,6.077l.15,2.093.6-.046-.15-2.087Zm1.93-.6-.654.026L10.872,8.065l.648-.026.177-.458,1.38-.052h0l.209.445.648-.026-1.3-2.571Zm-.733,1.681.425-1.079h.007l.5,1.047-.929.033Zm4.37-1.72v.877l.026.824L14.954,5.331h-.517l-.013,2.617h.608V7.13l-.013-.857,1.328,1.681h.517l.013-2.617h-.6Zm3.7,1.675a.579.579,0,0,0-.347-.321.54.54,0,0,0,.379-.517.606.606,0,0,0-.242-.543,1.148,1.148,0,0,0-.661-.209l-1.321-.059L17.669,7.98l1.348.059c.576.026.916-.164,1.007-.569a.652.652,0,0,0-.046-.458ZM18.349,5.894l.739.033a.382.382,0,0,1,.249.085.235.235,0,0,1,.078.2c-.007.164-.124.242-.36.229L18.323,6.4l.026-.51Zm.667,1.635L18.284,7.5l.026-.608.733.033a.445.445,0,0,1,.294.1.279.279,0,0,1,.092.229c-.013.2-.15.294-.412.281Zm3.689-1.845-.124,1.459c-.039.432-.242.648-.615.641a.69.69,0,0,1-.164-.013.625.625,0,0,1-.484-.739l.124-1.459-.6-.052-.124,1.459a1.148,1.148,0,0,0,.288.949,1.336,1.336,0,0,0,.9.373,1.211,1.211,0,0,0,.877-.255,1.234,1.234,0,0,0,.379-.857l.124-1.452-.589-.052Zm1.779,2.283L24.747,5.9l-.6-.072-.334,2.6,1.93.249.072-.53-1.334-.177Zm0,0L24.747,5.9l-.6-.072-.334,2.6,1.93.249.072-.53-1.334-.177ZM22.706,5.684l-.124,1.459c-.039.432-.242.648-.615.641a.69.69,0,0,1-.164-.013.625.625,0,0,1-.484-.739l.124-1.459-.6-.052-.124,1.459a1.148,1.148,0,0,0,.288.949,1.336,1.336,0,0,0,.9.373,1.211,1.211,0,0,0,.877-.255,1.234,1.234,0,0,0,.379-.857l.124-1.452-.589-.052ZM19.978,7.012a.579.579,0,0,0-.347-.321.54.54,0,0,0,.379-.517.606.606,0,0,0-.242-.543,1.148,1.148,0,0,0-.661-.209l-1.321-.059L17.669,7.98l1.348.059c.576.026.916-.164,1.007-.569a.652.652,0,0,0-.046-.458ZM18.349,5.894l.739.033a.382.382,0,0,1,.249.085.235.235,0,0,1,.078.2c-.007.164-.124.242-.36.229L18.323,6.4l.026-.51Zm.667,1.635L18.284,7.5l.026-.608.733.033a.445.445,0,0,1,.294.1.279.279,0,0,1,.092.229c-.013.2-.15.294-.412.281ZM16.276,5.338v.877l.026.824L14.954,5.331h-.517l-.013,2.617h.608V7.13l-.013-.857,1.328,1.681h.517l.013-2.617h-.6Zm-3.637.039-.654.026L10.872,8.065l.648-.026.177-.458,1.38-.052h0l.209.445.648-.026-1.3-2.571Zm-.733,1.681.425-1.079h.007l.5,1.047-.929.033Zm-1.2-1.079-.033-.523-2.231.164.033.517L9.3,6.077l.15,2.093.6-.046-.15-2.087.818-.059Zm-3.663.8A1.271,1.271,0,0,1,6.6,6.744a.232.232,0,0,1-.164-.209.249.249,0,0,1,.118-.222.624.624,0,0,1,.334-.118,1.023,1.023,0,0,1,.347.02.644.644,0,0,1,.288.131l.34-.36a1.2,1.2,0,0,0-.471-.262A1.553,1.553,0,0,0,6.816,5.7a1.3,1.3,0,0,0-.726.294.669.669,0,0,0-.249.615.676.676,0,0,0,.118.366.652.652,0,0,0,.268.209,1.6,1.6,0,0,0,.347.092c.137.013.281.02.419.02a.947.947,0,0,1,.425.059.249.249,0,0,1,.157.229.26.26,0,0,1-.124.242.848.848,0,0,1-.379.131,1.216,1.216,0,0,1-.458-.046.952.952,0,0,1-.4-.235l-.314.4a1.076,1.076,0,0,0,.53.347,1.842,1.842,0,0,0,.706.059,1.911,1.911,0,0,0,.543-.15A.924.924,0,0,0,8.059,8a.76.76,0,0,0,.111-.491c-.059-.5-.432-.746-1.125-.726ZM4.991,6.018,4.4,6.1l.373,2.59.589-.085-.373-2.59Zm-.157-.746a.347.347,0,0,0-.242-.046.4.4,0,0,0-.222.111.265.265,0,0,0-.072.229.24.24,0,0,0,.137.2.386.386,0,0,0,.242.046A.4.4,0,0,0,4.9,5.7a.258.258,0,0,0,.072-.222.251.251,0,0,0-.137-.2Zm0,0a.347.347,0,0,0-.242-.046.4.4,0,0,0-.222.111.265.265,0,0,0-.072.229.24.24,0,0,0,.137.2.386.386,0,0,0,.242.046A.4.4,0,0,0,4.9,5.7a.258.258,0,0,0,.072-.222.251.251,0,0,0-.137-.2Zm.157.746L4.4,6.1l.373,2.59.589-.085-.373-2.59Zm2.054.765A1.271,1.271,0,0,1,6.6,6.744a.232.232,0,0,1-.164-.209.249.249,0,0,1,.118-.222.624.624,0,0,1,.334-.118,1.023,1.023,0,0,1,.347.02.644.644,0,0,1,.288.131l.34-.36a1.2,1.2,0,0,0-.471-.262A1.553,1.553,0,0,0,6.816,5.7a1.3,1.3,0,0,0-.726.294.669.669,0,0,0-.249.615.676.676,0,0,0,.118.366.652.652,0,0,0,.268.209,1.6,1.6,0,0,0,.347.092c.137.013.281.02.419.02a.947.947,0,0,1,.425.059.249.249,0,0,1,.157.229.26.26,0,0,1-.124.242.848.848,0,0,1-.379.131,1.216,1.216,0,0,1-.458-.046.952.952,0,0,1-.4-.235l-.314.4a1.076,1.076,0,0,0,.53.347,1.842,1.842,0,0,0,.706.059,1.911,1.911,0,0,0,.543-.15A.924.924,0,0,0,8.059,8a.76.76,0,0,0,.111-.491c-.059-.5-.432-.746-1.125-.726Zm3.663-.8-.033-.523-2.231.164.033.517L9.3,6.077l.15,2.093.6-.046-.15-2.087Zm1.93-.6-.654.026L10.872,8.065l.648-.026.177-.458,1.38-.052h0l.209.445.648-.026-1.3-2.571Zm-.733,1.681.425-1.079h.007l.5,1.047-.929.033Zm4.37-1.72v.877l.026.824L14.954,5.331h-.517l-.013,2.617h.608V7.13l-.013-.857,1.328,1.681h.517l.013-2.617h-.6Zm3.7,1.675a.579.579,0,0,0-.347-.321.54.54,0,0,0,.379-.517.606.606,0,0,0-.242-.543,1.148,1.148,0,0,0-.661-.209l-1.321-.059L17.669,7.98l1.348.059c.576.026.916-.164,1.007-.569a.652.652,0,0,0-.046-.458ZM18.349,5.894l.739.033a.382.382,0,0,1,.249.085.235.235,0,0,1,.078.2c-.007.164-.124.242-.36.229L18.323,6.4l.026-.51Zm.667,1.635L18.284,7.5l.026-.608.733.033a.445.445,0,0,1,.294.1.279.279,0,0,1,.092.229c-.013.2-.15.294-.412.281Zm3.689-1.845-.124,1.459c-.039.432-.242.648-.615.641a.69.69,0,0,1-.164-.013.625.625,0,0,1-.484-.739l.124-1.459-.6-.052-.124,1.459a1.148,1.148,0,0,0,.288.949,1.336,1.336,0,0,0,.9.373,1.211,1.211,0,0,0,.877-.255,1.234,1.234,0,0,0,.379-.857l.124-1.452-.589-.052Zm1.779,2.283L24.747,5.9l-.6-.072-.334,2.6,1.93.249.072-.53-1.334-.177Zm0,0L24.747,5.9l-.6-.072-.334,2.6,1.93.249.072-.53-1.334-.177ZM22.706,5.684l-.124,1.459c-.039.432-.242.648-.615.641a.69.69,0,0,1-.164-.013.625.625,0,0,1-.484-.739l.124-1.459-.6-.052-.124,1.459a1.148,1.148,0,0,0,.288.949,1.336,1.336,0,0,0,.9.373,1.211,1.211,0,0,0,.877-.255,1.234,1.234,0,0,0,.379-.857l.124-1.452-.589-.052ZM19.978,7.012a.579.579,0,0,0-.347-.321.54.54,0,0,0,.379-.517.606.606,0,0,0-.242-.543,1.148,1.148,0,0,0-.661-.209l-1.321-.059L17.669,7.98l1.348.059c.576.026.916-.164,1.007-.569a.652.652,0,0,0-.046-.458ZM18.349,5.894l.739.033a.382.382,0,0,1,.249.085.235.235,0,0,1,.078.2c-.007.164-.124.242-.36.229L18.323,6.4l.026-.51Zm.667,1.635L18.284,7.5l.026-.608.733.033a.445.445,0,0,1,.294.1.279.279,0,0,1,.092.229c-.013.2-.15.294-.412.281ZM16.276,5.338v.877l.026.824L14.954,5.331h-.517l-.013,2.617h.608V7.13l-.013-.857,1.328,1.681h.517l.013-2.617h-.6Zm-3.637.039-.654.026L10.872,8.065l.648-.026.177-.458,1.38-.052h0l.209.445.648-.026-1.3-2.571Zm-.733,1.681.425-1.079h.007l.5,1.047Zm-1.2-1.079-.033-.523-2.231.164.033.517L9.3,6.077l.15,2.093.6-.046-.15-2.087.818-.059Zm-3.663.8A1.271,1.271,0,0,1,6.6,6.744a.232.232,0,0,1-.164-.209.249.249,0,0,1,.118-.222.624.624,0,0,1,.334-.118,1.024,1.024,0,0,1,.347.02.644.644,0,0,1,.288.131l.34-.36a1.2,1.2,0,0,0-.471-.262A1.553,1.553,0,0,0,6.816,5.7a1.3,1.3,0,0,0-.726.294.669.669,0,0,0-.249.615.676.676,0,0,0,.118.366.652.652,0,0,0,.268.209,1.594,1.594,0,0,0,.347.092c.137.013.281.02.419.02a.947.947,0,0,1,.425.059.249.249,0,0,1,.157.229.26.26,0,0,1-.124.242.848.848,0,0,1-.379.131,1.216,1.216,0,0,1-.458-.046.952.952,0,0,1-.4-.235l-.314.4a1.076,1.076,0,0,0,.53.347,1.842,1.842,0,0,0,.706.059,1.911,1.911,0,0,0,.543-.15A.924.924,0,0,0,8.059,8a.76.76,0,0,0,.111-.491c-.059-.5-.432-.746-1.125-.726ZM4.991,6.018,4.4,6.1l.373,2.59.589-.085-.373-2.59Zm-.157-.746a.347.347,0,0,0-.242-.046.4.4,0,0,0-.222.111.265.265,0,0,0-.072.229.24.24,0,0,0,.137.2.386.386,0,0,0,.242.046A.4.4,0,0,0,4.9,5.7a.258.258,0,0,0,.072-.222.251.251,0,0,0-.137-.2Z" transform="translate(0 0.001)" fill="#fff"/>
    <path id="Path_34859" data-name="Path 34859" d="M6.706,8.524a.24.24,0,0,1-.137-.2A.265.265,0,0,1,6.64,8.1a.4.4,0,0,1,.222-.111.347.347,0,0,1,.242.046.251.251,0,0,1,.137.2.258.258,0,0,1-.072.222.4.4,0,0,1-.222.111A.386.386,0,0,1,6.706,8.524Z" transform="translate(-2.27 -2.76)" fill="#fff"/>
    <rect id="Rectangle_17407" data-name="Rectangle 17407" width="0.595" height="2.617" transform="matrix(0.99, -0.142, 0.142, 0.99, 4.4, 6.109)" fill="#fff"/>
    <path id="Path_34860" data-name="Path 34860" d="M11.256,10.514a.76.76,0,0,1-.111.491.924.924,0,0,1-.379.327,1.911,1.911,0,0,1-.543.15,1.842,1.842,0,0,1-.706-.059,1.076,1.076,0,0,1-.53-.347l.314-.4a.952.952,0,0,0,.4.235,1.216,1.216,0,0,0,.458.046.848.848,0,0,0,.379-.131.26.26,0,0,0,.124-.242.249.249,0,0,0-.157-.229.947.947,0,0,0-.425-.059c-.137,0-.281-.007-.419-.02a1.594,1.594,0,0,1-.347-.092.652.652,0,0,1-.268-.209.736.736,0,0,1-.118-.366A.669.669,0,0,1,9.175,9,1.3,1.3,0,0,1,9.9,8.7a1.553,1.553,0,0,1,.576.026,1.2,1.2,0,0,1,.471.262l-.34.36a.644.644,0,0,0-.288-.131,1.024,1.024,0,0,0-.347-.02.624.624,0,0,0-.334.118.249.249,0,0,0-.118.222.232.232,0,0,0,.164.209,1.271,1.271,0,0,0,.445.039c.693-.02,1.066.222,1.125.726Z" transform="translate(-3.085 -3.003)" fill="#fff"/>
    <path id="Path_34861" data-name="Path 34861" d="M15.173,8.863l-.818.059.15,2.087-.6.046-.15-2.093-.818.059L12.91,8.5l2.231-.164Z" transform="translate(-4.465 -2.883)" fill="#fff"/>
    <path id="Path_34862" data-name="Path 34862" d="M18.386,8.22l-.654.026L16.62,10.909l.648-.026.177-.458,1.38-.052h0l.209.445.648-.026L18.38,8.22ZM17.654,9.9l.425-1.079h.007l.5,1.047Z" transform="translate(-5.748 -2.842)" fill="#fff"/>
    <path id="Path_34863" data-name="Path 34863" d="M23.9,8.153h.6L24.49,10.77h-.517L22.645,9.089l.02.857-.007.818H22.05l.013-2.623.517.007,1.348,1.707-.033-.824Z" transform="translate(-7.626 -2.814)" fill="#fff"/>
    <path id="Path_34864" data-name="Path 34864" d="M29.319,9.848a.579.579,0,0,0-.347-.321.54.54,0,0,0,.379-.517.606.606,0,0,0-.242-.543,1.148,1.148,0,0,0-.661-.209L27.128,8.2l-.118,2.617,1.348.059c.576.026.916-.164,1.007-.569a.652.652,0,0,0-.046-.458ZM27.69,8.73l.739.033a.382.382,0,0,1,.249.085.235.235,0,0,1,.079.2c-.007.164-.124.242-.36.229l-.733-.033.026-.51Zm.667,1.635-.733-.033.026-.608.733.033a.445.445,0,0,1,.294.1.279.279,0,0,1,.092.229C28.757,10.28,28.619,10.378,28.358,10.365Z" transform="translate(-9.341 -2.835)" fill="#fff"/>
    <path id="Path_34865" data-name="Path 34865" d="M33.655,8.6l.589.052-.124,1.452a1.234,1.234,0,0,1-.379.857,1.211,1.211,0,0,1-.877.255,1.336,1.336,0,0,1-.9-.373,1.148,1.148,0,0,1-.288-.949L31.8,8.44l.6.052-.124,1.459a.625.625,0,0,0,.484.739.69.69,0,0,0,.164.013c.373.007.576-.209.615-.641L33.655,8.6Z" transform="translate(-10.949 -2.918)" fill="#fff"/>
    <path id="Path_34866" data-name="Path 34866" d="M38.412,11.226l-.072.53-1.93-.249.334-2.6.6.072-.262,2.067Z" transform="translate(-12.592 -3.081)" fill="#fff"/>
    <path id="Path_34867" data-name="Path 34867" d="M4.261,2.46l.811.765L3.875,5.41,2.05,3.7l.536-.981Z" transform="translate(-0.709 -0.85)" fill="#fff"/>
    <path id="Path_34868" data-name="Path 34868" d="M10.546,1.96l.752.824L9.951,4.878,8.25,3.046l.6-.942Z" transform="translate(-2.853 -0.677)" fill="#fff"/>
    <path id="Path_34869" data-name="Path 34869" d="M16.812,1.65l.713.863L16.066,4.535l-1.6-1.917.648-.909Z" transform="translate(-5.004 -0.57)" fill="#fff"/>
    <path id="Path_34870" data-name="Path 34870" d="M23.428,1.14l.831,1.079L22.4,4.62l-1.871-2.4.831-1.079Z" transform="translate(-7.1 -0.393)" fill="#fff"/>
    <path id="Path_34871" data-name="Path 34871" d="M30.237,1.709l.654.909-1.6,1.917L27.83,2.513l.713-.863Z" transform="translate(-9.625 -0.57)" fill="#fff"/>
    <path id="Path_34872" data-name="Path 34872" d="M36.507,2.1l.6.942-1.7,1.832L34.06,2.784l.759-.824Z" transform="translate(-11.779 -0.677)" fill="#fff"/>
    <path id="Path_34873" data-name="Path 34873" d="M43.322,3.909,41.5,5.61,40.3,3.425l.811-.765,1.675.262Z" transform="translate(-13.937 -0.919)" fill="#fff"/>
    <path id="ae" d="M7.262,8.779l-.589.085.373,2.59.589-.085-.373-2.59ZM7.1,8.033a.347.347,0,0,0-.242-.046A.4.4,0,0,0,6.64,8.1a.265.265,0,0,0-.072.229.24.24,0,0,0,.137.2.386.386,0,0,0,.242.046.4.4,0,0,0,.222-.111.258.258,0,0,0,.072-.222A.251.251,0,0,0,7.1,8.033Z" transform="translate(-2.27 -2.76)" fill="#fff"/>
    <path id="Path_34874" data-name="Path 34874" d="M11.256,10.514a.76.76,0,0,1-.111.491.924.924,0,0,1-.379.327,1.911,1.911,0,0,1-.543.15,1.842,1.842,0,0,1-.706-.059,1.076,1.076,0,0,1-.53-.347l.314-.4a.952.952,0,0,0,.4.235,1.216,1.216,0,0,0,.458.046.848.848,0,0,0,.379-.131.26.26,0,0,0,.124-.242.249.249,0,0,0-.157-.229.947.947,0,0,0-.425-.059c-.137,0-.281-.007-.419-.02a1.594,1.594,0,0,1-.347-.092.652.652,0,0,1-.268-.209.736.736,0,0,1-.118-.366A.669.669,0,0,1,9.175,9,1.3,1.3,0,0,1,9.9,8.7a1.553,1.553,0,0,1,.576.026,1.2,1.2,0,0,1,.471.262l-.34.36a.644.644,0,0,0-.288-.131,1.024,1.024,0,0,0-.347-.02.624.624,0,0,0-.334.118.249.249,0,0,0-.118.222.232.232,0,0,0,.164.209,1.271,1.271,0,0,0,.445.039c.693-.02,1.066.222,1.125.726Z" transform="translate(-3.085 -3.003)" fill="#fff"/>
    <path id="Path_34875" data-name="Path 34875" d="M14.356,8.922l.15,2.087-.6.046-.15-2.093-.818.059L12.91,8.5l2.231-.164.033.523Z" transform="translate(-4.465 -2.883)" fill="#fff"/>
    <path id="af" d="M18.386,8.22l-.654.026L16.62,10.909l.648-.026.177-.458,1.38-.052h0l.209.445.648-.026L18.38,8.22ZM17.654,9.9l.425-1.079h.007l.5,1.047Z" transform="translate(-5.748 -2.842)" fill="#fff"/>
    <path id="Path_34876" data-name="Path 34876" d="M24.5,8.153,24.49,10.77h-.517L22.645,9.089l.02.857-.007.818H22.05l.013-2.623.517.007,1.348,1.707-.033-.824.007-.877Z" transform="translate(-7.626 -2.814)" fill="#fff"/>
    <path id="ag" d="M29.319,9.848a.579.579,0,0,0-.347-.321.54.54,0,0,0,.379-.517.606.606,0,0,0-.242-.543,1.148,1.148,0,0,0-.661-.209L27.128,8.2l-.118,2.617,1.348.059c.576.026.916-.164,1.007-.569a.652.652,0,0,0-.046-.458ZM27.69,8.73l.739.033a.382.382,0,0,1,.249.085.235.235,0,0,1,.079.2c-.007.164-.124.242-.36.229l-.733-.033.026-.51Zm.667,1.635-.733-.033.026-.608.733.033a.445.445,0,0,1,.294.1.279.279,0,0,1,.092.229C28.757,10.28,28.619,10.378,28.358,10.365Z" transform="translate(-9.341 -2.835)" fill="#fff"/>
    <path id="Path_34877" data-name="Path 34877" d="M34.244,8.656l-.124,1.452a1.234,1.234,0,0,1-.379.857,1.211,1.211,0,0,1-.877.255,1.336,1.336,0,0,1-.9-.373,1.148,1.148,0,0,1-.288-.949L31.8,8.44l.6.052-.124,1.459a.625.625,0,0,0,.484.739.69.69,0,0,0,.164.013c.373.007.576-.209.615-.641L33.655,8.6l.589.052Z" transform="translate(-10.949 -2.918)" fill="#fff"/>
    <path id="Path_34878" data-name="Path 34878" d="M38.412,11.226l-.072.53-1.93-.249.334-2.6.6.072-.262,2.067Z" transform="translate(-12.592 -3.081)" fill="#fff"/>
    <path id="Path_34879" data-name="Path 34879" d="M24.259,2.219,22.4,4.62l-1.871-2.4.831-1.079h2.067Z" transform="translate(-7.1 -0.393)" fill="#fff"/>
    <path id="Path_34880" data-name="Path 34880" d="M17.525,2.513,16.066,4.535l-1.6-1.917.648-.909,1.694-.059Z" transform="translate(-5.004 -0.57)" fill="#fff"/>
    <path id="Path_34881" data-name="Path 34881" d="M11.3,2.784,9.951,4.878,8.25,3.046l.6-.942,1.694-.144Z" transform="translate(-2.853 -0.677)" fill="#fff"/>
    <path id="Path_34882" data-name="Path 34882" d="M5.072,3.225,3.875,5.41,2.05,3.7l.536-.981L4.261,2.46Z" transform="translate(-0.709 -0.85)" fill="#fff"/>
    <path id="Path_34883" data-name="Path 34883" d="M30.891,2.618l-1.6,1.917L27.83,2.513l.713-.863,1.694.059Z" transform="translate(-9.625 -0.57)" fill="#fff"/>
    <path id="Path_34884" data-name="Path 34884" d="M37.108,3.046l-1.7,1.832L34.06,2.784l.759-.824,1.688.144Z" transform="translate(-11.779 -0.677)" fill="#fff"/>
    <path id="Path_34885" data-name="Path 34885" d="M43.322,3.909,41.5,5.61,40.3,3.425l.811-.765,1.675.262Z" transform="translate(-13.937 -0.919)" fill="#fff"/>
    <path id="Path_34886" data-name="Path 34886" d="M19.839,31.739l-.654.8.654.8.674-.824Zm0,0-.654.8.654.8.674-.824Zm5.187-.916a.533.533,0,0,1-.059-.013,2.359,2.359,0,0,1-.628-.242,2.311,2.311,0,0,1-.549-.491,2.534,2.534,0,0,1-.353-.654L18.511,16.68h-.837q-1.05,2.7-2.394,6.175T12.82,29.1a3.762,3.762,0,0,1-.445.85,2.78,2.78,0,0,1-.648.589,2.2,2.2,0,0,1-.667.268,4,4,0,0,1-.68.118v.36h4.73a1.579,1.579,0,0,1,.327.137.97.97,0,0,1,.419.392,1.19,1.19,0,0,1,.1.523v7.536a3.245,3.245,0,0,0,.307,1.38,3.455,3.455,0,0,0,.909,1.171,4.45,4.45,0,0,0,1.511.811,6.393,6.393,0,0,0,2.048.3,5.839,5.839,0,0,0,1.5-.209,4.884,4.884,0,0,0,1.5-.693A3.9,3.9,0,0,0,24.9,41.348a3.6,3.6,0,0,0,.438-1.838V33.969a9.166,9.166,0,0,1,.118-1.583,1.219,1.219,0,0,1,.425-.85,2.148,2.148,0,0,1,.792-.294,4.678,4.678,0,0,1,.739-.1v-.314H25.027ZM17.661,19.951,19.9,25.688H15.456l2.2-5.737Zm6.777,19.37a3.923,3.923,0,0,1-.15,1.066,3.183,3.183,0,0,1-.523,1.014,2.768,2.768,0,0,1-1.053.824,3.988,3.988,0,0,1-1.655.314,3.681,3.681,0,0,1-1.655-.314,2.663,2.663,0,0,1-.955-.811A2.8,2.8,0,0,1,18,40.367a5.911,5.911,0,0,1-.111-1.073V32.256a1.417,1.417,0,0,1,.1-.549.619.619,0,0,1,.406-.36c.1-.033.262-.072.464-.118v-.412H15.1a5.312,5.312,0,0,1-.635-.164c-.432-.157-.654-.373-.654-.648a3.5,3.5,0,0,1,.052-.458,6.564,6.564,0,0,1,.19-.726c.1-.307.209-.641.327-1s.275-.785.471-1.269h5.187l1.223,3.31a.782.782,0,0,1,.065.242,1.3,1.3,0,0,1,.02.229c0,.15-.177.281-.536.386a6.219,6.219,0,0,1-1.348.209v.36h3.552a2.391,2.391,0,0,1,.857.347,1.347,1.347,0,0,1,.425.831,7.984,7.984,0,0,1,.144,1.629V39.32Zm-5.253-6.784.654.8.674-.824-.674-.778-.654.8Zm.654-.8-.654.8.654.8.674-.824Zm0,0-.654.8.654.8.674-.824Z" transform="translate(-3.59 -5.768)" fill="#fff"/>
    <path id="Path_34887" data-name="Path 34887" d="M30.11,31.909V15.457l-.118-.039c-2.355-.818-7.817-1.328-14.2-1.328S3.983,14.6,1.641,15.411l-.118.039V31.9c-.131,1.328.615,4.363,6.98,9.76,5.312,4.4,6.757,5.5,7.124,5.763l.1.072.065.039.033.02L16,47.433c.366-.262,1.8-1.341,7.13-5.763,6.365-5.39,7.1-8.432,6.98-9.76Zm-.34.033c.288,3.048-4.7,7.628-6.856,9.453-5.279,4.383-6.718,5.469-7.085,5.73-.373-.268-1.819-1.361-7.091-5.737-2.159-1.825-7.143-6.4-6.856-9.453v-.111H1.9V15.706c2.375-.778,7.654-1.263,13.914-1.263s11.579.478,13.96,1.263V31.942Z" transform="translate(-0.522 -4.872)" fill="#fff"/>
    <path id="ah" d="M30.11,31.909V15.457l-.118-.039c-2.355-.818-7.817-1.328-14.2-1.328S3.983,14.6,1.641,15.411l-.118.039V31.9c-.131,1.328.615,4.363,6.98,9.76,5.312,4.4,6.757,5.5,7.124,5.763l.1.072.065.039.033.02L16,47.433c.366-.262,1.8-1.341,7.13-5.763,6.365-5.39,7.1-8.432,6.98-9.76Zm-.34.033c.288,3.048-4.7,7.628-6.856,9.453-5.279,4.383-6.718,5.469-7.085,5.73-.373-.268-1.819-1.361-7.091-5.737-2.159-1.825-7.143-6.4-6.856-9.453v-.111H1.9V15.706c2.375-.778,7.654-1.263,13.914-1.263s11.579.478,13.96,1.263V31.942Z" transform="translate(-0.522 -4.872)" fill="#fff"/>
    <path id="ai" d="M25.027,30.823a.533.533,0,0,1-.059-.013,2.359,2.359,0,0,1-.628-.242,2.311,2.311,0,0,1-.549-.491,2.534,2.534,0,0,1-.353-.654L18.511,16.68h-.837q-1.05,2.7-2.394,6.175T12.82,29.1a3.762,3.762,0,0,1-.445.85,2.78,2.78,0,0,1-.648.589,2.2,2.2,0,0,1-.667.268,4,4,0,0,1-.68.118v.36h5.56v-.36a6.218,6.218,0,0,1-1.478-.275c-.432-.157-.654-.373-.654-.648a3.5,3.5,0,0,1,.052-.458,6.564,6.564,0,0,1,.19-.726c.1-.307.209-.641.327-1s.275-.785.471-1.269h5.187l1.223,3.31a.782.782,0,0,1,.065.242,1.3,1.3,0,0,1,.02.229c0,.15-.177.281-.536.386a6.22,6.22,0,0,1-1.348.209v.36h6.156v-.366a2.992,2.992,0,0,1-.589-.1Zm-9.57-5.135,2.2-5.737L19.9,25.688Z" transform="translate(-3.59 -5.768)" fill="#fff"/>
    <path id="Path_34888" data-name="Path 34888" d="M25.168,40.478l-.674.824-.654-.8.654-.8Z" transform="translate(-8.245 -13.729)" fill="#fff"/>
    <path id="Path_34889" data-name="Path 34889" d="M29.472,38.3v.314a4.678,4.678,0,0,0-.739.1,2.148,2.148,0,0,0-.792.294,1.219,1.219,0,0,0-.425.85,9.166,9.166,0,0,0-.118,1.583v5.541a3.6,3.6,0,0,1-.438,1.838A3.9,3.9,0,0,1,25.8,50.111a4.884,4.884,0,0,1-1.5.693,6.138,6.138,0,0,1-1.5.209,6.393,6.393,0,0,1-2.048-.3,4.45,4.45,0,0,1-1.511-.811,3.455,3.455,0,0,1-.909-1.171,3.245,3.245,0,0,1-.307-1.38V39.814a1.19,1.19,0,0,0-.1-.523A.97.97,0,0,0,17.5,38.9a1.578,1.578,0,0,0-.327-.137c-.079-.026-.164-.046-.249-.065-.235-.046-.425-.078-.576-.092V38.29h4.579V38.7c-.2.046-.36.085-.464.118a.619.619,0,0,0-.406.36,1.416,1.416,0,0,0-.1.549v7.039a5.381,5.381,0,0,0,.111,1.073,2.8,2.8,0,0,0,.445,1.047,2.663,2.663,0,0,0,.955.811,3.681,3.681,0,0,0,1.655.314,3.988,3.988,0,0,0,1.655-.314,2.768,2.768,0,0,0,1.053-.824,3.183,3.183,0,0,0,.523-1.014,3.923,3.923,0,0,0,.15-1.066V41.567a7.984,7.984,0,0,0-.144-1.629,1.347,1.347,0,0,0-.425-.831,2.391,2.391,0,0,0-.857-.347,5.133,5.133,0,0,0-.831-.144V38.3h5.227Z" transform="translate(-5.655 -13.241)" fill="#fff"/>
  </g>
</svg>
