<svg xmlns="http://www.w3.org/2000/svg" xmlns:xlink="http://www.w3.org/1999/xlink" width="99" height="49" viewBox="0 0 99 49">
  <defs>
    <clipPath id="clip-path">
      <rect id="Rectangle_17435" data-name="Rectangle 17435" width="38.181" height="45.325" fill="none"/>
    </clipPath>
  </defs>
  <g id="Group_39971" data-name="Group 39971" transform="translate(-215 -491)">
    <rect id="Rectangle_17438" data-name="Rectangle 17438" width="99" height="49" transform="translate(215 491)" fill="none"/>
    <g id="b" transform="translate(249.511 493)">
      <g id="c" transform="translate(0)">
        <g id="d">
          <g id="Group_39876" data-name="Group 39876">
            <g id="Group_39965" data-name="Group 39965" transform="translate(-4.511)">
              <g id="Group_39964" data-name="Group 39964" clip-path="url(#clip-path)">
                <path id="Path_34964" data-name="Path 34964" d="M17.543,4.934c-.929,0-1.886.012-2.843,0-1.583-.025-2.028-.474-2.039-2.022C12.642.017,12.642.017,15.569.016c2.746,0,5.493.022,8.239-.016.968-.013,1.522.3,1.518,1.327,0,.752,0,1.5-.019,2.255-.03.944-.6,1.329-1.478,1.341-.956.014-1.911,0-2.84,0-.5,1.949-.263,2.336,1.6,2.71a19,19,0,1,1-7.266.022c.269-.05.539-.1.807-.156,1.708-.35,1.971-.8,1.414-2.568m1.536,36.95C27,42.126,34.808,35.232,34.636,25.9A15.542,15.542,0,1,0,19.079,41.884" transform="translate(0 0)" fill="#fff"/>
                <path id="Path_34965" data-name="Path 34965" d="M7.989,40.775A3.727,3.727,0,0,1,8.52,36a3.974,3.974,0,0,1,5.25-.253L7.989,40.775" transform="translate(-5.84 -27.693)" fill="#fff"/>
                <path id="Path_34966" data-name="Path 34966" d="M151.291,40.722l-5.745-5.01a3.872,3.872,0,0,1,5.162.186,3.7,3.7,0,0,1,.583,4.824" transform="translate(-115.551 -27.64)" fill="#fff"/>
                <path id="Path_34967" data-name="Path 34967" d="M81.473,81.429c0,.514.025,1.029-.005,1.541a2.5,2.5,0,0,0,1.027,2.5,3.063,3.063,0,0,1,.014,4.56,3.2,3.2,0,0,1-4.592-.156,3.1,3.1,0,0,1,.319-4.557,1.8,1.8,0,0,0,.776-1.7c-.038-1.575-.021-3.152-.008-4.727.009-1.068.487-1.684,1.283-1.617.955.08,1.225.711,1.193,1.584-.031.855-.007,1.713-.007,2.569" transform="translate(-61.187 -61.347)" fill="#fff"/>
                <rect id="Rectangle_17440" data-name="Rectangle 17440" width="38.181" height="45.325" fill="none"/>
              </g>
            </g>
          </g>
        </g>
      </g>
    </g>
  </g>
</svg>
