<svg xmlns="http://www.w3.org/2000/svg" xmlns:xlink="http://www.w3.org/1999/xlink" width="99" height="49" viewBox="0 0 99 49">
  <defs>
    <clipPath id="clip-path">
      <rect id="Rectangle_17437" data-name="Rectangle 17437" width="50.048" height="45.325" fill="none"/>
    </clipPath>
  </defs>
  <g id="Group_39972" data-name="Group 39972" transform="translate(-215 -491)">
    <path id="Path_35014" data-name="Path 35014" d="M0,0H99V49H0Z" transform="translate(215 491)" fill="none"/>
    <g id="Group_39971" data-name="Group 39971" transform="translate(239 493)">
      <g id="Group_39968" data-name="Group 39968" clip-path="url(#clip-path)">
        <path id="Path_34990" data-name="Path 34990" d="M10.279,33.99H5.243A4.906,4.906,0,0,1,0,28.742Q0,16.981,0,5.22A4.914,4.914,0,0,1,5.226,0Q25.059,0,44.892,0a4.892,4.892,0,0,1,5.1,4.16,5.774,5.774,0,0,1,.054.959q0,11.868,0,23.736a4.873,4.873,0,0,1-5.134,5.132q-10.237,0-20.475-.008a1.279,1.279,0,0,0-.942.371q-5.765,5.261-11.548,10.5l-.2.179a.836.836,0,0,1-.975.213.861.861,0,0,1-.494-.872q0-2.7,0-5.4c0-1.637,0-3.275,0-4.984m1.649,8.631c.257-.215.42-.342.572-.48Q17.524,37.576,22.538,33a2.257,2.257,0,0,1,1.66-.655q10.369.035,20.739.013a3.268,3.268,0,0,0,3.487-3.477q0-11.866,0-23.732a3.255,3.255,0,0,0-3.509-3.5q-19.884,0-39.768,0A3.25,3.25,0,0,0,1.634,5.144q-.007,11.866,0,23.732a3.27,3.27,0,0,0,3.482,3.481c1.871.005,3.742,0,5.612,0,.976,0,1.2.22,1.2,1.192q0,4.2,0,8.392v.677" transform="translate(0 0)" fill="#fff"/>
        <path id="Path_34991" data-name="Path 34991" d="M159.8,67.486A10.811,10.811,0,0,1,151.034,78.1a10.343,10.343,0,0,1-11.212-6.221,10.891,10.891,0,0,1,5.15-14.129,10.332,10.332,0,0,1,14.447,7.207c.189.829.259,1.684.385,2.528m-7.238-.761a14.747,14.747,0,0,0-1.276-6.039,5.863,5.863,0,0,0-.935-1.351,1.117,1.117,0,0,0-1.777-.015,2.656,2.656,0,0,0-.423.479,13.647,13.647,0,0,0-1.815,6.925h6.226Zm-6.232,1.66c.054.62.082,1.205.16,1.783a11.743,11.743,0,0,0,1.523,4.843c.939,1.482,1.961,1.492,2.887,0a13.9,13.9,0,0,0,1.7-6.631Zm.494-9.546a8.809,8.809,0,0,0-6.176,7.843h4.03a15.486,15.486,0,0,1,2.146-7.843m0,17.329a15.455,15.455,0,0,1-2.14-7.8h-4.05c.05,3.31,3.084,7.16,6.19,7.8m11.2-9.456c-.075-3.258-3.174-7.364-5.783-7.687a15.8,15.8,0,0,1,2.011,7.687Zm-5.805,9.33a8.8,8.8,0,0,0,5.765-7.674c-1.154,0-2.306-.01-3.458.016-.109,0-.3.229-.306.361a15.329,15.329,0,0,1-2,7.3" transform="translate(-124.036 -50.69)" fill="#fff"/>
        <rect id="Rectangle_17441" data-name="Rectangle 17441" width="50.048" height="45.325" fill="none"/>
      </g>
    </g>
  </g>
</svg>
