<svg xmlns="http://www.w3.org/2000/svg" xmlns:xlink="http://www.w3.org/1999/xlink" width="99" height="49" viewBox="0 0 99 49">
  <defs>
    <clipPath id="clip-path">
      <rect id="Rectangle_17440" data-name="Rectangle 17440" width="85.923" height="45.325" fill="none"/>
    </clipPath>
  </defs>
  <g id="Group_39973" data-name="Group 39973" transform="translate(-215 -491)">
    <rect id="Rectangle_17438" data-name="Rectangle 17438" width="99" height="49" transform="translate(215 491)" fill="none"/>
    <g id="Group_39971" data-name="Group 39971" transform="translate(222 493)" clip-path="url(#clip-path)">
      <path id="Path_35014" data-name="Path 35014" d="M29.472,13.494c-.378-.5-.7-.911-1.009-1.327-.382-.507-.349-.839.139-1.218Q35.479,5.606,42.358.268a.784.784,0,0,1,1.188.009l13.69,10.608c.6.462.629.739.169,1.35-.295.392-.591.783-.951,1.259h.567q9.759,0,19.518.016a1.834,1.834,0,0,1,1.037.347c2.616,2,5.205,4.032,7.815,6.038a1.229,1.229,0,0,1,.531,1.086q-.019,11.6-.009,23.193c0,1.032-.116,1.151-1.148,1.151H1.3a6.144,6.144,0,0,1-.667-.015.639.639,0,0,1-.621-.659c-.007-.111,0-.223,0-.334Q.009,32.647,0,20.979a1.233,1.233,0,0,1,.531-1.086q3.89-3,7.753-6.041a1.654,1.654,0,0,1,1.093-.365q9.855.014,19.709.007h.386m23.9,28.246c.008-.176.019-.3.019-.428q0-14.246.008-28.491a.757.757,0,0,0-.341-.671C51,10.57,48.96,8.976,46.911,7.388q-1.977-1.532-3.959-3.064c-.141.1-.256.186-.368.273Q37.759,8.342,32.93,12.08a1.019,1.019,0,0,0-.453.908q.02,14.1.011,28.2v.538h4.021v-.548c0-1.829,0-3.659,0-5.488,0-.67.226-.893.888-.893q5.536,0,11.072,0c.691,0,.9.216.9.918q0,2.744,0,5.488v.532Zm31.159.005c.009-.181.02-.306.02-.431q0-9.971-.013-19.942a.907.907,0,0,0-.318-.618c-2.349-1.848-4.713-3.677-7.074-5.51-.084-.065-.178-.117-.275-.18-2.479,1.927-4.943,3.833-7.39,5.761a.866.866,0,0,0-.234.612q-.018,9.9-.008,19.8c0,.167.016.333.024.509ZM1.369,41.733H16.615c.01-.12.024-.213.024-.306q0-10.046-.011-20.092a.855.855,0,0,0-.3-.577c-1.116-.9-2.252-1.767-3.383-2.645l-3.932-3.05c-.131.092-.25.168-.361.255-2.3,1.788-4.587,3.583-6.892,5.36a.934.934,0,0,0-.4.838q.015,9.807.008,19.614c0,.188,0,.376,0,.6m53.439-.005H67.83V21.36H54.808ZM31.115,21.363H18.061V41.724H31.115Zm-20.04-6.5a2.06,2.06,0,0,0,.166.187c2.046,1.591,4.089,3.186,6.145,4.763a1.076,1.076,0,0,0,.617.16q6.3.014,12.6.007h.5V13.634l-1.2.479c-.081.6-.247.746-.978.746H11.075m63.683.108-.026-.108H57.093c-.852,0-.948-.075-1.1-.749l-1.191-.5v6.37h.586c3.658,0,7.318-.056,10.974.029a4.755,4.755,0,0,0,3.489-1.186c1.569-1.361,3.266-2.575,4.908-3.852m9.772,28.2H1.411v.756H84.529ZM47.984,36.211H37.925v5.521H47.984ZM56.07,11.719,42.946,1.552,29.85,11.721l.491.628c.194-.146.359-.267.52-.392q5.728-4.444,11.456-8.888c.526-.408.733-.407,1.261,0q4.659,3.6,9.316,7.211c.889.688,1.779,1.374,2.685,2.073l.491-.635" transform="translate(0 0)" fill="#fff"/>
      <path id="Path_35015" data-name="Path 35015" d="M402.2,165.877c0,.969,0,1.939,0,2.908,0,.7-.218.925-.9.928q-1.406.005-2.813,0c-.659,0-.88-.222-.882-.893q-.008-2.956,0-5.911c0-.639.221-.85.87-.854q1.43-.009,2.86,0c.634,0,.858.23.862.866.006.985,0,1.97,0,2.956m-1.419-2.421h-1.767v4.875h1.767Z" transform="translate(-359.647 -146.581)" fill="#fff"/>
      <path id="Path_35016" data-name="Path 35016" d="M402.2,259.137c0,.985,0,1.97,0,2.955,0,.661-.224.878-.892.881-.953,0-1.907.005-2.86,0-.614,0-.838-.219-.84-.832q-.01-2.979,0-5.958c0-.634.234-.861.864-.864q1.43-.008,2.86,0c.63,0,.865.236.869.863.006.985,0,1.97,0,2.955m-3.185,2.445h1.765v-4.876h-1.765Z" transform="translate(-359.645 -230.943)" fill="#fff"/>
      <path id="Path_35017" data-name="Path 35017" d="M458.654,259.125c0,1,0,2,0,3,0,.609-.221.829-.833.832-.985.005-1.97.007-2.956,0-.55,0-.787-.238-.788-.784q-.008-3.051,0-6.1a.677.677,0,0,1,.765-.765c1-.011,2-.009,3,0,.576,0,.806.24.809.814.005,1,0,2,0,3m-1.393-2.422h-1.793v4.886h1.793Z" transform="translate(-410.725 -230.93)" fill="#fff"/>
      <path id="Path_35018" data-name="Path 35018" d="M458.661,165.944c0,.985,0,1.97,0,2.955,0,.57-.237.8-.816.807q-1.478.01-2.955,0c-.569,0-.8-.245-.806-.821q-.006-3,0-6.006c0-.6.23-.824.844-.829q1.454-.011,2.908,0c.608.005.824.231.826.843,0,1.017,0,2.034,0,3.051m-1.4-2.492h-1.776v4.874h1.776Z" transform="translate(-410.733 -146.575)" fill="#fff"/>
      <path id="Path_35019" data-name="Path 35019" d="M422.17,88.373a3.269,3.269,0,1,1-3.223-3.3,3.224,3.224,0,0,1,3.223,3.3m-3.262,1.905A1.923,1.923,0,1,0,417,88.359a1.915,1.915,0,0,0,1.906,1.92" transform="translate(-375.956 -76.949)" fill="#fff"/>
      <path id="Path_35020" data-name="Path 35020" d="M748.623,230.429c0-.985,0-1.97,0-2.955,0-.614.224-.844.827-.848q1.454-.01,2.907,0c.6,0,.844.236.845.836q.009,3,0,6.005c0,.58-.237.815-.812.82q-1.477.014-2.955,0c-.589,0-.808-.224-.813-.81-.008-1.017,0-2.034,0-3.05m3.177-2.4h-1.776V232.9H751.8Z" transform="translate(-677.158 -204.988)" fill="#fff"/>
      <path id="Path_35021" data-name="Path 35021" d="M814.44,230.477c0-.985,0-1.97,0-2.955,0-.659.228-.879.9-.882q1.406-.005,2.812,0c.644,0,.871.22.873.852q.007,2.978,0,5.957c0,.639-.218.85-.868.854q-1.429.009-2.859,0c-.633,0-.851-.228-.854-.873-.005-.985,0-1.97,0-2.955m3.188-2.429h-1.775v4.863h1.775Z" transform="translate(-736.692 -205.003)" fill="#fff"/>
      <path id="Path_35022" data-name="Path 35022" d="M819.021,323.953c0,.969,0,1.939,0,2.908,0,.653-.209.872-.843.876q-1.454.01-2.908,0c-.607,0-.828-.229-.829-.845q-.007-3,0-6.007c0-.606.227-.822.846-.826q1.454-.008,2.908,0c.614,0,.822.217.825.842.006,1.017,0,2.034,0,3.051m-1.4-2.5h-1.778v4.9h1.778Z" transform="translate(-736.69 -289.502)" fill="#fff"/>
      <path id="Path_35023" data-name="Path 35023" d="M748.618,323.9c0-1,0-2,0-3,0-.62.212-.837.827-.841q1.478-.009,2.956,0c.56,0,.794.226.8.779q.012,3.051,0,6.1c0,.553-.238.79-.784.795q-1.5.014-3,0c-.572,0-.788-.235-.792-.83-.006-1,0-2,0-3m1.391,2.445h1.782v-4.913h-1.782Z" transform="translate(-677.154 -289.494)" fill="#fff"/>
      <path id="Path_35024" data-name="Path 35024" d="M37.608,230.438c0-.969,0-1.938,0-2.907,0-.674.217-.893.877-.9.953,0,1.906-.006,2.859,0,.6,0,.843.237.844.837q.008,3,0,6c0,.582-.234.816-.809.821q-1.477.013-2.955,0c-.6-.006-.814-.234-.817-.856-.005-1,0-2,0-3m1.4,2.456h1.771v-4.859H39.006Z" transform="translate(-34.017 -204.997)" fill="#fff"/>
      <path id="Path_35025" data-name="Path 35025" d="M103.162,230.466c0-1,0-2,0-3,0-.6.235-.831.843-.835q1.454-.011,2.908,0c.585,0,.823.231.825.8q.007,3.027,0,6.055c0,.574-.232.805-.814.809q-1.478.011-2.956,0c-.576-.005-.8-.241-.806-.82-.005-1,0-2,0-3m3.192-2.433H104.57V232.9h1.784Z" transform="translate(-93.313 -204.989)" fill="#fff"/>
      <path id="Path_35026" data-name="Path 35026" d="M37.607,323.89c0-1,0-2,0-3,0-.615.218-.824.84-.828q1.454-.009,2.908,0c.61,0,.83.225.832.84q.006,3,0,6.007c0,.608-.227.827-.844.831q-1.454.009-2.908,0c-.612,0-.825-.224-.828-.843-.005-1,0-2,0-3m1.406,2.446h1.77v-4.9h-1.77Z" transform="translate(-34.016 -289.502)" fill="#fff"/>
      <path id="Path_35027" data-name="Path 35027" d="M103.16,323.9c0-1,0-2,0-3,0-.615.22-.841.825-.845q1.478-.01,2.956,0c.58,0,.793.228.794.821q.005,3,0,6.008c0,.617-.216.843-.821.847q-1.478.011-2.956,0c-.572-.005-.8-.242-.8-.824,0-1,0-2,0-3m3.2-2.465h-1.8v4.9h1.8Z" transform="translate(-93.311 -289.498)" fill="#fff"/>
      <path id="Path_35028" data-name="Path 35028" d="M594.8,249.635c0,.985,0,1.97,0,2.956,0,.572-.235.805-.814.809q-1.478.009-2.956,0c-.569,0-.807-.246-.809-.823q-.008-3,0-6.007c0-.6.242-.83.849-.834q1.454-.01,2.908,0c.608.006.819.23.822.848,0,1.017,0,2.034,0,3.051m-1.388-2.5h-1.774V252h1.774Z" transform="translate(-533.873 -222.271)" fill="#fff"/>
      <path id="Path_35029" data-name="Path 35029" d="M650.9,249.557c0,.985.005,1.97,0,2.955,0,.668-.225.882-.892.884-.937,0-1.875,0-2.812,0-.66,0-.887-.229-.888-.894q-.006-2.955,0-5.91c0-.629.237-.857.874-.862.953-.006,1.907-.008,2.86,0,.64.006.854.225.858.871.007.985,0,1.97,0,2.955m-3.186,2.431h1.777v-4.863h-1.777Z" transform="translate(-584.606 -222.267)" fill="#fff"/>
      <path id="Path_35030" data-name="Path 35030" d="M650.9,343c0,.986,0,1.971,0,2.957,0,.678-.211.885-.883.889q-1.431.008-2.861,0c-.607,0-.845-.235-.847-.833q-.009-3,0-6.009c0-.6.237-.833.84-.836.986,0,1.971-.006,2.957,0,.554,0,.787.228.793.78.011,1.017,0,2.035,0,3.052m-1.4-2.444h-1.79v4.9h1.79Z" transform="translate(-584.609 -306.789)" fill="#fff"/>
      <path id="Path_35031" data-name="Path 35031" d="M594.794,343.054c0,.985,0,1.971,0,2.957,0,.6-.211.824-.787.829q-1.5.015-3,0c-.543-.006-.785-.249-.787-.794q-.009-3.052,0-6.1c0-.541.247-.775.8-.779q1.5-.011,3,0c.551,0,.772.231.775.79.006,1.033,0,2.066,0,3.1m-1.4-2.5h-1.777v4.9H593.4Z" transform="translate(-533.869 -306.783)" fill="#fff"/>
      <path id="Path_35032" data-name="Path 35032" d="M207.908,249.576c0,.985,0,1.97,0,2.955,0,.643-.222.867-.853.871q-1.43.008-2.86,0c-.652,0-.878-.236-.879-.9q-.006-2.932,0-5.863c0-.665.229-.895.888-.9q1.406-.008,2.812,0c.677,0,.89.214.893.881,0,.985,0,1.97,0,2.955m-3.183,2.414h1.79V247.14h-1.79Z" transform="translate(-183.903 -222.277)" fill="#fff"/>
      <path id="Path_35033" data-name="Path 35033" d="M259.841,249.607c0-1,0-2,0-3,0-.639.225-.868.856-.873q1.454-.011,2.908,0c.581,0,.819.239.821.809q.007,3.027,0,6.055c0,.548-.241.794-.781.8q-1.5.014-3,0c-.569-.006-.794-.243-.8-.83-.008-.985,0-1.971,0-2.956m3.187-2.471h-1.8v4.854h1.8Z" transform="translate(-235.035 -222.269)" fill="#fff"/>
      <path id="Path_35034" data-name="Path 35034" d="M207.9,343.012c0,.986,0,1.971,0,2.957,0,.673-.211.88-.887.883-.954.005-1.907.006-2.861,0-.6,0-.844-.242-.846-.837q-.007-3,0-6.009c0-.6.24-.827.846-.83q1.454-.007,2.909,0c.617,0,.831.215.835.834.007,1,0,2,0,3Zm-1.4-2.454h-1.773v4.909h1.773Z" transform="translate(-183.897 -306.793)" fill="#fff"/>
      <path id="Path_35035" data-name="Path 35035" d="M259.842,343c0-.986,0-1.971,0-2.957,0-.654.211-.866.848-.869q1.454-.007,2.909,0c.6,0,.827.231.828.843q.005,3,0,6.009c0,.58-.229.819-.8.824q-1.5.014-3,0c-.548-.006-.772-.239-.777-.8-.009-1.017,0-2.035,0-3.052m1.4,2.458h1.782v-4.914h-1.782Z" transform="translate(-235.036 -306.792)" fill="#fff"/>
    </g>
  </g>
</svg>
